<?xml version="1.0" encoding="UTF-8"?>
<svg version="1.1" xmlns="http://www.w3.org/2000/svg" width="512" height="512">
<path d="M0 0 C3.02951007 1.99473198 6.07334358 3.95309571 9.1640625 5.8515625 C16.37487509 10.29205647 21.95322195 14.17576675 26.34765625 21.56640625 C27.40645361 26.11923488 28.11076551 31.97768773 25.97265625 36.25390625 C41.46350955 37.29278613 56.14190404 33.90739168 71.125 30.25390625 C82.01588915 27.65905523 94.72392632 25.76351521 104.97265625 31.25390625 C107.74057792 33.14243614 110.36967508 35.14648658 112.97265625 37.25390625 C114.1328125 36.71121094 115.29296875 36.16851562 116.48828125 35.609375 C131.57185569 28.65445005 146.729389 22.53062798 163.37109375 28.1953125 C167.63339383 29.92967184 171.77006577 31.92541098 175.9296875 33.890625 C182.29941527 36.74432845 188.03485473 37.50168488 194.97265625 37.25390625 C194.92625 36.62484375 194.87984375 35.99578125 194.83203125 35.34765625 C194.56624289 29.04467509 195.06974297 24.35027236 198.97265625 19.25390625 C205.19513242 12.92747463 213.62239828 8.71668272 221.17578125 4.17578125 C226.64287487 0.87413791 231.98827162 -2.60644715 237.31445312 -6.12988281 C244.98111231 -11.16183464 250.62929729 -13.89072177 259.97265625 -12.74609375 C271.17742594 -9.81801805 276.36687352 2.30386258 281.984375 11.43359375 C285.49534489 17.12582143 289.11068147 22.75043548 292.72265625 28.37890625 C297.81963242 36.32863639 302.90734486 44.28395989 307.97265625 52.25390625 C312.9581391 60.09657474 317.96053012 67.92823939 322.97265625 75.75390625 C329.79602173 86.40996714 336.61148302 97.07088865 343.38720703 107.75732422 C344.93054129 110.18758848 346.48061539 112.61345216 348.03125 115.0390625 C348.94956915 116.48545467 349.86755944 117.93205571 350.78515625 119.37890625 C351.20007324 120.0241626 351.61499023 120.66941895 352.04248047 121.33422852 C355.53473397 126.86950279 356.40906452 130.70778215 355.97265625 137.25390625 C352.47075876 151.75782813 335.90874582 158.63494537 324.12207031 165.92041016 C321.91847163 167.28752238 319.72200292 168.66546273 317.52734375 170.046875 C316.80627441 170.50022217 316.08520508 170.95356934 315.34228516 171.4206543 C313.96103192 172.28946608 312.58046311 173.15936724 311.20068359 174.03051758 C302.42640765 179.53614459 302.42640765 179.53614459 296.03515625 179.50390625 C295.01550781 179.5090625 293.99585938 179.51421875 292.9453125 179.51953125 C289.91933421 179.2491416 287.71439978 178.52631761 284.97265625 177.25390625 C285.14023437 178.07632813 285.3078125 178.89875 285.48046875 179.74609375 C287.74622967 192.16475802 286.03456365 201.58591847 278.97265625 212.25390625 C270.954608 220.50520681 261.86784856 223.08319273 250.66015625 223.81640625 C249.40589844 223.90019531 248.15164063 223.98398437 246.859375 224.0703125 C245.90675781 224.13089844 244.95414062 224.19148437 243.97265625 224.25390625 C243.76511719 224.95515625 243.55757813 225.65640625 243.34375 226.37890625 C240.57650269 234.90063856 236.93831283 241.44022591 228.78515625 245.69140625 C224.00985863 247.86022778 219.97512982 248.37349835 214.72265625 248.31640625 C213.645 248.30738281 212.56734375 248.29835938 211.45703125 248.2890625 C210.22726562 248.27166016 210.22726562 248.27166016 208.97265625 248.25390625 C208.82570313 248.81078125 208.67875 249.36765625 208.52734375 249.94140625 C205.91425969 258.83189915 200.76929421 266.104275 192.97265625 271.25390625 C185.28219875 275.18821366 175.98948538 275.57999785 167.72265625 273.25390625 C166.81515625 272.92390625 165.90765625 272.59390625 164.97265625 272.25390625 C164.74578125 273.09953125 164.51890625 273.94515625 164.28515625 274.81640625 C160.93208922 283.59824848 155.10104899 288.40710219 146.66015625 292.328125 C135.59987898 296.34839026 123.46532482 293.85922935 112.97265625 289.25390625 C107.83490234 286.73197384 102.80100098 284.01978827 97.796875 281.24365234 C95.87647242 280.20172086 93.93167004 279.22098011 91.97265625 278.25390625 C91.56015625 278.640625 91.14765625 279.02734375 90.72265625 279.42578125 C82.23409718 287.08064255 75.50102301 289.10032703 64.046875 288.63671875 C56.04733384 288.05606272 49.22729921 284.32679045 43.97265625 278.25390625 C43.70880127 277.6820459 43.44494629 277.11018555 43.1730957 276.52099609 C42.25248715 274.53094264 41.40601923 272.91823767 39.97265625 271.25390625 C36.91954868 270.61247067 34.82075724 270.41390635 31.78515625 270.50390625 C30.24983571 270.47685999 28.71463433 270.44178372 27.1796875 270.3984375 C26.44830566 270.38119629 25.71692383 270.36395508 24.96337891 270.34619141 C17.37235945 269.99428984 12.3360876 266.57021545 6.92578125 261.453125 C3.91566688 258.06373622 0.97265625 253.95334174 0.97265625 249.25390625 C0.36679688 249.228125 -0.2390625 249.20234375 -0.86328125 249.17578125 C-10.35111411 248.53352795 -18.25489981 245.91534134 -25.26953125 239.3125 C-29.65014742 234.18231173 -32.49408127 228.00856438 -33.02734375 221.25390625 C-34.28546875 221.31578125 -35.54359375 221.37765625 -36.83984375 221.44140625 C-45.60281672 221.38629321 -52.98488542 219.3994807 -59.37109375 213.22265625 C-66.87374523 204.30441015 -66.89332568 193.36734097 -66.02734375 182.25390625 C-65.31878422 178.96651957 -64.37694191 176.34673538 -63.02734375 173.25390625 C-64.01734375 173.74890625 -65.00734375 174.24390625 -66.02734375 174.75390625 C-70.79283027 176.75387951 -75.2317331 177.24684011 -80.12866211 175.50756836 C-85.30407761 173.1855122 -90.01152616 170.54129074 -94.71484375 167.37890625 C-96.18262287 166.40608565 -97.65142884 165.4348131 -99.12109375 164.46484375 C-99.90226562 163.94889648 -100.6834375 163.43294922 -101.48828125 162.90136719 C-104.23827804 161.11704235 -107.01842567 159.38875694 -109.80859375 157.66796875 C-110.78868408 157.05937012 -111.76877441 156.45077148 -112.77856445 155.82373047 C-114.69355121 154.63687495 -116.6137583 153.45838918 -118.53979492 152.28955078 C-124.95396178 148.28776345 -130.1984675 144.2441817 -133.40234375 137.25390625 C-135.2974295 128.15749464 -132.76760338 121.63315135 -127.95703125 113.9453125 C-126.28311021 111.4177681 -124.57099685 108.91739532 -122.85546875 106.41796875 C-119.88282833 102.078906 -117.07160858 97.64678847 -114.27734375 93.19140625 C-113.25659628 91.56765435 -112.23576112 89.94395758 -111.21484375 88.3203125 C-110.6940625 87.49160645 -110.17328125 86.66290039 -109.63671875 85.80908203 C-106.8640305 81.40693471 -104.07120813 77.01763434 -101.27734375 72.62890625 C-100.69758789 71.71810303 -100.11783203 70.8072998 -99.52050781 69.86889648 C-94.35787746 61.76373582 -89.17623139 53.67078278 -83.99365234 45.57836914 C-80.20009147 39.65339347 -76.41159324 33.72527606 -72.63525391 27.78930664 C-71.4880496 25.98671864 -70.33930778 24.18510815 -69.18896484 22.38452148 C-66.19487409 17.69229609 -63.23717436 12.98136604 -60.32421875 8.23828125 C-59.70949707 7.24723389 -59.09477539 6.25618652 -58.46142578 5.23510742 C-57.29539274 3.35387597 -56.1393131 1.46642045 -54.99560547 -0.4284668 C-50.75793014 -7.23037726 -46.06615476 -12.98370349 -38.58984375 -16.24609375 C-23.58768141 -18.35166039 -11.87628399 -7.82965774 0 0 Z M-36.33203125 -0.01171875 C-40.25292085 4.33684989 -43.12160987 9.5229913 -46.15234375 14.50390625 C-47.49633764 16.68424639 -48.84139477 18.86393148 -50.1875 21.04296875 C-50.84379395 22.10805664 -51.50008789 23.17314453 -52.17626953 24.27050781 C-54.59765949 28.17309094 -57.08031913 32.03260717 -59.58984375 35.87890625 C-63.71102271 42.20931368 -67.78769009 48.56657482 -71.83984375 54.94140625 C-72.43047607 55.87057861 -73.0211084 56.79975098 -73.62963867 57.75708008 C-74.83254345 59.65010926 -76.03526067 61.54325763 -77.23779297 63.43652344 C-80.12429224 67.98088927 -83.01287118 72.52393048 -85.90234375 77.06640625 C-86.47154541 77.96141846 -87.04074707 78.85643066 -87.62719727 79.77856445 C-91.4731035 85.8221314 -95.33296153 91.85662188 -99.19995117 97.88671875 C-101.23330861 101.06018059 -103.26154841 104.23686514 -105.2890625 107.4140625 C-107.6040301 111.0402353 -109.93773169 114.65243439 -112.296875 118.25 C-113.22800757 119.68870955 -114.15900855 121.12750428 -115.08984375 122.56640625 C-115.51362305 123.19981934 -115.93740234 123.83323242 -116.37402344 124.48583984 C-118.4714464 127.73311393 -118.4714464 127.73311393 -118.98828125 131.48046875 C-114.80516517 139.20052852 -103.09910211 143.99435382 -95.76171875 148.37890625 C-92.61573595 150.26597892 -89.53283802 152.2189934 -86.48046875 154.25390625 C-85.40261108 154.96293091 -85.40261108 154.96293091 -84.30297852 155.6862793 C-82.93964123 156.58736028 -81.5853848 157.50237726 -80.24194336 158.43286133 C-77.45461367 160.25533205 -75.73453298 161.3430826 -72.36328125 160.91796875 C-69.25591396 158.70435928 -67.44708042 156.00522177 -65.46484375 152.81640625 C-65.03703613 152.1517334 -64.60922852 151.48706055 -64.16845703 150.80224609 C-62.77429406 148.62791414 -61.39993533 146.44190826 -60.02734375 144.25390625 C-59.1100155 142.80688543 -58.19204248 141.36027316 -57.2734375 139.9140625 C-55.29372404 136.79085564 -53.3226888 133.66233896 -51.35546875 130.53125 C-47.65306349 124.64746993 -43.9036571 118.79408328 -40.15234375 112.94140625 C-35.05762283 104.99027901 -29.97039082 97.03456603 -24.90234375 89.06640625 C-24.33128906 88.16857422 -23.76023437 87.27074219 -23.171875 86.34570312 C-21.4567745 83.64860063 -19.74199353 80.9512953 -18.02734375 78.25390625 C-16.31191013 75.55528411 -14.59634164 72.85675042 -12.87963867 70.15893555 C-11.73437483 68.35710773 -10.59128252 66.55389769 -9.45043945 64.74926758 C-6.57911661 60.21660131 -3.67805989 55.70890342 -0.7010498 51.2447052 C0.81093378 48.97445566 2.31026077 46.69597489 3.80889893 44.41690063 C4.88825644 42.78697687 5.98571314 41.1690849 7.08349609 39.55151367 C7.73656738 38.55611572 8.38963867 37.56071777 9.0625 36.53515625 C9.64894287 35.65923828 10.23538574 34.78332031 10.83959961 33.88085938 C12.30306407 30.487867 12.12341696 28.74327141 10.97265625 25.25390625 C9.1687749 23.37084569 9.1687749 23.37084569 6.73046875 22.02734375 C5.83763184 21.4758667 4.94479492 20.92438965 4.02490234 20.35620117 C3.05891113 19.78619385 2.09291992 19.21618652 1.09765625 18.62890625 C-0.90773151 17.40393952 -2.91293633 16.17867327 -4.91796875 14.953125 C-5.93568359 14.34001465 -6.95339844 13.7269043 -8.00195312 13.09521484 C-10.886571 11.33958315 -13.73525268 9.53927668 -16.57421875 7.7109375 C-17.86030029 6.88360107 -17.86030029 6.88360107 -19.17236328 6.03955078 C-20.79438392 4.99429118 -22.41520389 3.94716544 -24.03466797 2.89794922 C-24.7670166 2.43146973 -25.49936523 1.96499023 -26.25390625 1.484375 C-26.88893066 1.07598389 -27.52395508 0.66759277 -28.17822266 0.24682617 C-32.3472603 -2.00134502 -32.3472603 -2.00134502 -36.33203125 -0.01171875 Z M249.2421875 4.2734375 C248.52981934 4.71341064 247.81745117 5.15338379 247.08349609 5.60668945 C246.32504395 6.088396 245.5665918 6.57010254 244.78515625 7.06640625 C243.9957666 7.55906982 243.20637695 8.0517334 242.39306641 8.55932617 C239.91253292 10.11329729 237.44166492 11.68169926 234.97265625 13.25390625 C234.18906738 13.75019531 233.40547852 14.24648437 232.59814453 14.7578125 C230.34395897 16.18783083 228.09447585 17.62484599 225.84765625 19.06640625 C224.83795776 19.71283081 224.83795776 19.71283081 223.80786133 20.37231445 C219.03779697 23.4653707 214.48275481 26.79397151 209.97265625 30.25390625 C210.27815799 36.65890825 213.73302564 41.07854678 217.16015625 46.25390625 C218.44818862 48.23680254 219.73594149 50.21988041 221.0234375 52.203125 C221.6829541 53.21165527 222.3424707 54.22018555 223.02197266 55.25927734 C226.00357029 59.83653349 228.92380468 64.45214387 231.84765625 69.06640625 C237.55036305 78.03504061 243.279022 86.98697096 249.01123047 95.93676758 C253.911118 103.5892216 258.79339924 111.25269922 263.66821289 118.92114258 C268.88916228 127.13058927 274.13272226 135.32549095 279.38085938 143.51757812 C280.00798828 144.49662109 280.63511719 145.47566406 281.28125 146.484375 C281.89597168 147.4336084 282.51069336 148.3828418 283.14404297 149.36083984 C284.4004952 151.34868483 285.61373726 153.36429784 286.78955078 155.40087891 C287.37720215 156.40038574 287.96485352 157.39989258 288.5703125 158.4296875 C289.33807007 159.78380737 289.33807007 159.78380737 290.12133789 161.1652832 C291.86876999 163.48470917 291.86876999 163.48470917 294.85791016 164.23022461 C298.58693194 164.25857663 300.10551663 163.47857442 303.2109375 161.45703125 C304.18853027 160.83296387 305.16612305 160.20889648 306.17333984 159.56591797 C307.20023926 158.8854541 308.22713867 158.20499023 309.28515625 157.50390625 C310.87191162 156.47740967 310.87191162 156.47740967 312.49072266 155.43017578 C314.63713238 154.04025292 316.77942596 152.64395224 318.91748047 151.24121094 C321.67516086 149.44741851 324.45492258 147.70242113 327.2578125 145.98046875 C328.04051514 145.49416992 328.82321777 145.00787109 329.62963867 144.50683594 C331.07131541 143.61120319 332.51787539 142.723367 333.9699707 141.84472656 C337.82539935 139.40336101 339.9302145 137.7500205 340.97265625 133.25390625 C339.94845031 130.43133318 339.94845031 130.43133318 338.0625 127.671875 C337.40233887 126.61661621 336.74217773 125.56135742 336.06201172 124.47412109 C335.37252441 123.4114502 334.68303711 122.3487793 333.97265625 121.25390625 C333.36953613 120.29307129 332.76641602 119.33223633 332.14501953 118.34228516 C330.29564146 115.40331979 328.41879491 112.48351859 326.53515625 109.56640625 C325.12233938 107.36852587 323.70958063 105.17060813 322.296875 102.97265625 C321.5734681 101.84891768 320.84999804 100.72521976 320.12646484 99.6015625 C316.69125611 94.26223104 313.2694031 88.91437102 309.84765625 83.56640625 C309.1832251 82.52846924 308.51879395 81.49053223 307.83422852 80.42114258 C303.53648163 73.70541985 299.25057864 66.98227129 294.97265625 60.25390625 C284.8969346 44.40993829 274.79624135 28.58165303 264.59765625 12.81640625 C263.78542603 11.55546143 263.78542603 11.55546143 262.95678711 10.26904297 C262.45928955 9.50221191 261.96179199 8.73538086 261.44921875 7.9453125 C261.01689941 7.27701416 260.58458008 6.60871582 260.13916016 5.92016602 C258.94201363 4.10743902 258.94201363 4.10743902 256.97265625 2.25390625 C253.04978192 2.25390625 252.32438356 2.3459226 249.2421875 4.2734375 Z M101.97265625 64.25390625 C100.67908203 65.38505859 100.67908203 65.38505859 99.359375 66.5390625 C96.86546379 68.74536027 94.41132186 70.98680506 91.97265625 73.25390625 C91.29589844 73.87652344 90.61914062 74.49914062 89.921875 75.140625 C77.63250115 86.88818277 63.6013855 104.54894817 62.47265625 122.12890625 C62.61071926 125.28778782 62.70847063 125.96415429 64.91015625 128.37890625 C75.31653458 131.3521572 86.76880523 125.18679676 95.78125 120.20703125 C106.01241167 114.31302134 115.77526203 107.54575799 124.90234375 100.05859375 C125.56105469 99.51952393 126.21976562 98.9804541 126.8984375 98.42504883 C128.15734315 97.38610478 129.40803572 96.33709035 130.6484375 95.27612305 C136.21252429 90.65771415 142.05812852 87.56989437 149.47265625 88.19140625 C172.87144132 91.02850894 194.13657735 107.30410201 212.97265625 120.25390625 C214.39931646 121.22588176 215.82637437 122.1972739 217.25390625 123.16796875 C228.5122545 130.84442599 239.63308938 138.72135131 250.71875 146.64453125 C251.49355713 147.19633057 252.26836426 147.74812988 253.06665039 148.31665039 C254.55637538 149.37777849 256.04394574 150.44193982 257.52905273 151.50952148 C258.19880127 151.98591064 258.8685498 152.4622998 259.55859375 152.953125 C260.14688965 153.37424561 260.73518555 153.79536621 261.34130859 154.22924805 C263.11436769 155.4327032 263.11436769 155.4327032 265.97265625 156.25390625 C267.43371697 154.70683072 267.43371697 154.70683072 267.97265625 152.25390625 C266.59483097 149.57967263 265.19255705 147.32251221 263.47265625 144.87890625 C262.43349282 143.3407907 261.39580172 141.80167969 260.359375 140.26171875 C259.80427246 139.44606445 259.24916992 138.63041016 258.67724609 137.79003906 C255.79357438 133.49963777 253.04600148 129.12393433 250.28515625 124.75390625 C249.09438297 122.8785042 247.9029622 121.00351313 246.7109375 119.12890625 C246.1020166 118.17113281 245.4930957 117.21335937 244.86572266 116.2265625 C240.9069247 110.01011629 236.92839662 103.80627929 232.95239258 97.60083008 C229.04644774 91.50220721 225.15426652 85.39512691 221.27416992 79.2800293 C213.47527217 65.59501394 213.47527217 65.59501394 203.97265625 53.25390625 C202.03132869 53.13946118 200.08926277 53.03229711 198.14575195 52.96435547 C184.54788255 52.48483363 173.34975913 49.84451259 161.1875 43.77734375 C141.07402807 34.24605085 116.50346096 51.25503134 101.97265625 64.25390625 Z M66.72265625 46.69140625 C64.60390229 47.18424685 62.48434921 47.67327137 60.36383057 48.15846252 C58.4502311 48.5978592 56.53899135 49.04749655 54.62792969 49.49780273 C42.36067511 52.03531859 30.19122706 52.04672244 17.97265625 49.25390625 C10.97400031 59.61253639 4.23344678 70.11450087 -2.41796875 80.69873047 C-5.1906569 85.10087765 -7.98345343 89.49019482 -10.77734375 93.87890625 C-11.35347412 94.78390869 -11.92960449 95.68891113 -12.52319336 96.62133789 C-16.42727127 102.75005002 -20.3385119 108.87416545 -24.25512695 114.99487305 C-25.63142911 117.14644319 -27.00629605 119.29893217 -28.37963867 121.45239258 C-31.2388683 125.93042737 -34.10537203 130.39836756 -37.07421875 134.8046875 C-37.50822998 135.45501953 -37.94224121 136.10535156 -38.3894043 136.77539062 C-39.48949694 138.41669215 -40.60344646 140.04868397 -41.71875 141.6796875 C-43.26438482 144.12861706 -43.26438482 144.12861706 -42.7421875 146.609375 C-42.50628906 147.15207031 -42.27039063 147.69476563 -42.02734375 148.25390625 C-41.49367188 147.85558594 -40.96 147.45726562 -40.41015625 147.046875 C-32.27590362 141.26283031 -24.84381328 138.33026683 -14.7734375 139.6015625 C-10.11186474 140.70893469 -6.15884908 142.88988983 -2.02734375 145.25390625 C-1.29644531 145.59421875 -0.56554687 145.93453125 0.1875 146.28515625 C2.49230511 147.53590388 2.91476024 148.91142222 3.97265625 151.25390625 C4.96265625 151.74890625 4.96265625 151.74890625 5.97265625 152.25390625 C7.71952192 151.5481448 7.71952192 151.5481448 9.59765625 150.44140625 C18.48592156 145.84622078 28.24343808 144.67005719 38.04296875 146.9765625 C45.80235017 149.58768949 50.91660374 152.83980397 54.72265625 160.25390625 C56.26360867 163.54127141 57.6452606 166.87508096 58.97265625 170.25390625 C59.79507813 170.2796875 60.6175 170.30546875 61.46484375 170.33203125 C70.81850156 170.80727483 78.80570192 172.00755761 85.91015625 178.50390625 C92.06108698 185.34953033 92.81702776 193.29928228 92.97265625 202.25390625 C92.79259214 204.98418069 92.44009045 207.55317532 91.97265625 210.25390625 C92.75769531 210.59421875 93.54273438 210.93453125 94.3515625 211.28515625 C102.91327543 215.23509988 109.16058297 219.42406962 112.91015625 228.31640625 C115.78990934 237.63960688 112.67652305 246.94509461 108.37109375 255.3984375 C107.32341155 257.25298395 106.25046448 259.0936526 105.14453125 260.9140625 C103.67411587 263.41384207 103.67411587 263.41384207 103.97265625 267.25390625 C121.38151612 277.79244136 121.38151612 277.79244136 140.97265625 278.25390625 C146.589313 275.55359051 149.06967261 271.54607112 151.97265625 266.25390625 C147.94622065 261.92568653 143.52298461 258.65666039 138.66015625 255.31640625 C137.20488445 254.30851023 135.7504543 253.29939789 134.296875 252.2890625 C133.58450684 251.7955127 132.87213867 251.30196289 132.13818359 250.79345703 C129.23287786 248.72797135 126.41824455 246.5516249 123.61254883 244.35327148 C122.02483231 243.06829338 122.02483231 243.06829338 119.97265625 243.25390625 C118.8125 235.51953125 118.8125 235.51953125 119.97265625 231.25390625 C126.74563391 230.52813616 130.92829251 231.12736341 136.38891602 235.26806641 C137.09717529 235.84089355 137.80543457 236.4137207 138.53515625 237.00390625 C140.09699982 238.19487175 141.65951716 239.38495412 143.22265625 240.57421875 C144.00769531 241.18426758 144.79273438 241.79431641 145.6015625 242.42285156 C149.35571657 245.32196148 153.18389041 248.11079544 157.03515625 250.87890625 C157.70039307 251.37487305 158.36562988 251.87083984 159.05102539 252.38183594 C166.01257691 257.40214383 173.34178593 260.22835935 181.97265625 259.25390625 C188.66227221 256.64608986 191.10202346 252.69503684 193.97265625 246.25390625 C194.30265625 245.26390625 194.63265625 244.27390625 194.97265625 243.25390625 C187.77364754 238.0713275 180.37104351 233.23918284 172.9140625 228.44140625 C166.16168903 224.09492281 159.44607905 219.69187249 152.7277832 215.29296875 C151.79281006 214.68195313 150.85783691 214.0709375 149.89453125 213.44140625 C148.65074707 212.62736328 148.65074707 212.62736328 147.38183594 211.796875 C144.9398641 210.23290439 142.46647219 208.73353335 139.97265625 207.25390625 C141.52967556 202.58284833 144.05712998 199.1668494 146.97265625 195.25390625 C152.66528292 197.96982981 157.83558341 201.00792434 163.03515625 204.56640625 C164.60991969 205.63002849 166.18548184 206.69246885 167.76171875 207.75390625 C168.59735352 208.31722656 169.43298828 208.88054687 170.29394531 209.4609375 C175.13903388 212.70394975 180.02498486 215.88422731 184.91015625 219.06640625 C185.8441626 219.67589111 186.77816895 220.28537598 187.74047852 220.91333008 C189.56525296 222.1020246 191.39293412 223.28627009 193.22363281 224.46582031 C195.1246145 225.70230254 197.01124079 226.96103505 198.88574219 228.23730469 C199.83610352 228.87313477 200.78646484 229.50896484 201.765625 230.1640625 C202.61278076 230.74164307 203.45993652 231.31922363 204.33276367 231.91430664 C208.97471858 234.26984225 213.92933045 234.25101078 218.97265625 233.25390625 C223.4409183 231.00689839 225.55413328 228.65907308 227.97265625 224.25390625 C228.35204242 222.26212884 228.69257948 220.26205667 228.97265625 218.25390625 C221.96495082 213.08402646 214.86814976 208.10833709 207.59765625 203.31640625 C196.40853083 195.90094364 185.27878994 188.3995605 174.16015625 180.87890625 C173.32953674 180.31712677 172.49891724 179.75534729 171.64312744 179.17654419 C165.18188358 174.80640804 165.18188358 174.80640804 162.3407135 172.88343811 C161.34484474 172.20951271 161.34484474 172.20951271 160.32885742 171.52197266 C159.75060715 171.13055084 159.17235687 170.73912903 158.57658386 170.33584595 C157.04558945 169.30310381 155.50924843 168.27830103 153.97265625 167.25390625 C153.07486282 163.21383582 152.82383836 160.20514353 153.97265625 156.25390625 C159.7200956 155.59436403 162.97852865 155.87674168 167.8203125 159.12109375 C169.26555298 160.0797937 169.26555298 160.0797937 170.73999023 161.05786133 C171.80677002 161.78255615 172.8735498 162.50725098 173.97265625 163.25390625 C175.15336042 164.04701443 176.33444601 164.839555 177.51586914 165.6315918 C180.83476308 167.86220593 184.14242561 170.10904198 187.44882202 172.35812378 C189.64955664 173.85162788 191.85499093 175.33794984 194.06176758 176.82250977 C201.01626781 181.50579452 207.94775198 186.20999713 214.77960205 191.07112122 C217.69366802 193.1390528 220.62596907 195.18016509 223.56097412 197.2182312 C224.94234589 198.18765753 226.31513835 199.16944513 227.67828369 200.16433716 C237.15734595 207.07367132 244.05928282 210.09058861 255.97265625 208.25390625 C261.67669835 206.64267924 265.96729988 204.57107522 268.97265625 199.25390625 C271.2797515 193.86758307 272.85101927 188.90418759 270.953125 183.1875 C265.75855219 172.94322294 254.70926349 166.68506025 245.44921875 160.6015625 C241.3536662 157.87079612 237.38807884 154.96458251 233.41015625 152.06640625 C193.12853162 119.10663353 193.12853162 119.10663353 145.97265625 102.25390625 C143.51732025 103.71416882 141.75179143 105.00860978 139.66015625 106.87890625 C138.43235473 107.90424404 137.20174876 108.92623045 135.96875 109.9453125 C135.32147949 110.48687988 134.67420898 111.02844727 134.00732422 111.58642578 C116.00844964 126.33712333 91.23292252 144.61962371 66.78515625 143.12890625 C60.3604542 142.24027496 55.61359516 140.31559873 51.53515625 135.19140625 C47.66852988 127.92214868 48.02663066 119.08044444 49.5859375 111.125 C57.62169821 85.10612721 78.3830142 62.92936444 99.97265625 47.25390625 C97.63641151 44.81146856 96.19274779 43.37244532 92.72363281 43.03540039 C83.7036327 42.84985754 75.42736086 44.62388799 66.72265625 46.69140625 Z M-31.7734375 158.953125 C-32.93390248 160.27439344 -34.06562925 161.62129566 -35.171875 162.98828125 C-37.21962077 165.48868661 -39.42513924 167.78758051 -41.65234375 170.12890625 C-48.37950293 177.67252406 -51.93430918 184.25151243 -51.4453125 194.546875 C-50.85626744 198.36190519 -49.71677273 200.49370282 -47.02734375 203.25390625 C-42.26044897 206.50406178 -38.61533692 206.78609608 -33.02734375 206.25390625 C-27.72764047 203.96879372 -25.00956513 199.6968436 -21.77734375 195.12890625 C-21.21176758 194.33790527 -20.64619141 193.5469043 -20.06347656 192.73193359 C-10.49062246 179.42940314 -10.49062246 179.42940314 -5.02734375 164.25390625 C-7.50847591 159.4901325 -10.29374965 156.75992666 -15.02734375 154.25390625 C-21.84431396 152.23406322 -26.78992935 154.10340231 -31.7734375 158.953125 Z M8.97265625 168.25390625 C7.63319001 170.71223427 7.63319001 170.71223427 6.72265625 173.50390625 C1.32047556 187.28532077 -6.67443081 199.04583135 -15.84155273 210.58496094 C-17.76256534 213.28869619 -19.11797056 215.25536354 -18.8125 218.62109375 C-16.9914476 224.94063774 -14.78098264 228.86801999 -9.02734375 232.25390625 C-5.50283216 233.7141306 -5.50283216 233.7141306 -2.02734375 234.25390625 C-1.25777344 234.43050781 -0.48820312 234.60710937 0.3046875 234.7890625 C4.8522729 233.87688212 6.55864447 230.00866017 9.03515625 226.31640625 C9.60169922 225.50171875 10.16824219 224.68703125 10.75195312 223.84765625 C11.9300454 222.15193722 13.10136488 220.45149423 14.26611328 218.74658203 C16.31795344 215.74954512 18.41027779 212.7828503 20.50976562 209.8190918 C21.4861279 208.44074593 22.46008375 207.06069234 23.43164062 205.67895508 C27.78933862 199.48222196 32.22878174 193.34577029 36.69726562 187.22851562 C42.09559072 180.44261909 42.09559072 180.44261909 43.97265625 172.31640625 C43.17687813 167.74068209 41.31138602 165.44087558 37.97265625 162.25390625 C28.67112758 156.56963873 16.26086982 161.45157359 8.97265625 168.25390625 Z M46.35839844 198.05126953 C44.07154928 201.68621547 41.53893573 205.14168725 39.03515625 208.62890625 C38.03204613 210.05080954 37.03075654 211.47399882 36.03125 212.8984375 C35.28077393 213.96698975 35.28077393 213.96698975 34.51513672 215.05712891 C33.75160889 216.14453369 33.75160889 216.14453369 32.97265625 217.25390625 C30.84938414 220.27595899 28.72399226 223.2965088 26.59765625 226.31640625 C25.88428101 227.33323486 25.88428101 227.33323486 25.15649414 228.37060547 C22.24982164 232.49886394 19.24816811 236.5188679 16.10571289 240.47167969 C14.70781244 242.35162324 14.70781244 242.35162324 14.78515625 245.44140625 C16.50509407 249.5149432 19.02021624 252.01419323 22.73828125 254.375 C25.703526 255.54139872 28.22983437 255.55537623 31.41015625 255.56640625 C33.07884766 255.59154297 33.07884766 255.59154297 34.78125 255.6171875 C39.86440536 255.03856639 42.13101382 253.22850956 45.4453125 249.390625 C46.31585949 248.24637696 47.17876393 247.09628625 48.03515625 245.94140625 C51.91663394 240.85154399 55.90423827 235.90279709 60.09765625 231.06640625 C61.09909233 229.90506345 62.10039649 228.74360688 63.1015625 227.58203125 C63.58254395 227.02451172 64.06352539 226.46699219 64.55908203 225.89257812 C65.02556152 225.35181641 65.49204102 224.81105469 65.97265625 224.25390625 C66.4197998 223.73634766 66.86694336 223.21878906 67.32763672 222.68554688 C74.07282469 214.83604698 79.28727253 208.04339394 78.97265625 197.25390625 C78.12550316 193.22817877 76.94604359 190.19687523 73.97265625 187.31640625 C60.4774808 180.14709429 53.24213946 186.8881114 46.35839844 198.05126953 Z M83.09765625 225.94921875 C78.30915847 231.42430261 73.74713362 237.01607719 69.2956543 242.76660156 C64.08920725 249.46282048 58.5416723 255.85877089 52.97265625 262.25390625 C55.42197362 267.47388 57.72832482 270.63174054 62.97265625 273.25390625 C67.6551732 273.95828487 72.0547481 274.18954702 76.3828125 272.078125 C87.27527434 264.02884544 96.94844154 250.94775863 99.75 237.53125 C100.23723231 234.17154982 100.23723231 234.17154982 98.53515625 231.06640625 C95.43606989 227.66497001 92.30557876 225.7664254 87.97265625 224.25390625 C84.92223604 223.918571 84.92223604 223.918571 83.09765625 225.94921875 Z " fill="#000000" transform="translate(145.02734375,110.74609375)"/>
<path d="M0 0 C4.5002504 1.49422377 6.90374523 6.99744182 9.14453125 10.92578125 C9.73218262 11.95018311 10.31983398 12.97458496 10.92529297 14.0300293 C11.54807129 15.12613525 12.17084961 16.22224121 12.8125 17.3515625 C14.14398187 19.68521191 15.4760084 22.01854372 16.80859375 24.3515625 C17.32024078 25.24901436 17.32024078 25.24901436 17.84222412 26.16459656 C20.28361034 30.43837837 22.77410478 34.68092072 25.28515625 38.9140625 C25.97782893 40.08872973 26.67013558 41.26361289 27.36206055 42.4387207 C28.67903275 44.67158358 30.00440094 46.89952093 31.33911133 49.12182617 C37.07628337 58.90466831 37.07628337 58.90466831 37 64.6640625 C35 67.6640625 35 67.6640625 32 69.6640625 C28.4375 69.7890625 28.4375 69.7890625 25 68.6640625 C22.14343811 65.49167896 19.96550223 62.10145988 17.85546875 58.40234375 C17.26781738 57.37786133 16.68016602 56.35337891 16.07470703 55.29785156 C15.45192871 54.20182617 14.82915039 53.10580078 14.1875 51.9765625 C13.19651315 50.24079671 12.20551413 48.50503773 11.21380615 46.76968384 C10.52795438 45.569433 9.8426171 44.36888803 9.15777588 43.1680603 C6.71098223 38.88449063 4.22191364 34.62741951 1.71484375 30.37890625 C1.02225416 29.19963208 0.32994862 28.02019103 -0.36206055 26.84057617 C-1.68080022 24.59575977 -3.00624837 22.35486776 -4.33911133 20.1184082 C-4.93618896 19.09706787 -5.5332666 18.07572754 -6.1484375 17.0234375 C-6.94000244 15.68490723 -6.94000244 15.68490723 -7.74755859 14.31933594 C-9.13887988 11.36962633 -9.73528612 8.91084791 -10 5.6640625 C-7.55890118 0.78186487 -5.09150203 0.0994434 0 0 Z " fill="#000000" transform="translate(355,416.3359375)"/>
<path d="M0 0 C3.5 0.875 3.5 0.875 5.5 2.5 C6.924559 5.88332762 6.51572606 8.44815354 5.5 11.875 C3.58099187 15.96509899 1.33179698 19.84579511 -0.9375 23.75 C-1.57059082 24.85827148 -2.20368164 25.96654297 -2.85595703 27.10839844 C-4.7248667 30.37130376 -6.60961327 33.62450082 -8.5 36.875 C-8.99870605 37.73706055 -9.49741211 38.59912109 -10.01123047 39.48730469 C-12.43859092 43.67962203 -14.8956132 47.85239038 -17.38720703 52.00683594 C-18.51160924 53.89448966 -19.6142841 55.79367854 -20.71484375 57.6953125 C-21.41348082 58.8805514 -22.11266927 60.06546551 -22.8125 61.25 C-23.40675781 62.26835938 -24.00101562 63.28671875 -24.61328125 64.3359375 C-26.68149088 67.11924238 -28.35286038 68.44856271 -31.5 69.875 C-35.16612892 69.28841937 -36.93930977 68.43569023 -39.5625 65.8125 C-41.11963065 60.93349063 -38.77220833 56.43548735 -36.55297852 51.96899414 C-35.49335784 50.0968519 -34.38411473 48.26545888 -33.25 46.4375 C-32.36294274 44.97104323 -31.4776491 43.50351875 -30.59375 42.03515625 C-30.10648437 41.22836426 -29.61921875 40.42157227 -29.1171875 39.59033203 C-25.2703146 33.13125589 -21.57685011 26.58045841 -17.85449219 20.04907227 C-6.22496012 -0.22232 -6.22496012 -0.22232 0 0 Z " fill="#000000" transform="translate(385.5,19.125)"/>
<path d="M0 0 C2 2 2 2 2.50390625 5.4453125 C2.3329482 11.43557481 -0.97331594 15.92552148 -4.0625 20.875 C-5.34499517 22.99534111 -6.62619825 25.11646415 -7.90625 27.23828125 C-8.91171875 28.88884521 -8.91171875 28.88884521 -9.9375 30.57275391 C-12.03552106 34.05902516 -14.07674225 37.57202009 -16.09375 41.10546875 C-16.42733017 41.68927307 -16.76091034 42.27307739 -17.104599 42.87457275 C-18.71775706 45.70045905 -20.32738691 48.52833917 -21.93579102 51.35693359 C-30.60763603 66.47786351 -30.60763603 66.47786351 -35 68.125 C-38.54041308 67.97748279 -40.21412012 67.14910734 -43 65 C-44.40802756 62.18394488 -44.22864245 60.12819037 -44 57 C-42.86108398 54.34472656 -42.86108398 54.34472656 -41.24609375 51.640625 C-40.64571289 50.61928467 -40.04533203 49.59794434 -39.42675781 48.5456543 C-38.77030273 47.45808838 -38.11384766 46.37052246 -37.4375 45.25 C-36.41682558 43.5224113 -35.39617258 41.79480952 -34.37680054 40.06645203 C-33.31145253 38.26355184 -32.24067606 36.46395361 -31.16943359 34.66455078 C-27.63285862 28.70904042 -24.19918572 22.69386268 -20.75 16.6875 C-19.51643768 14.54510478 -18.28211885 12.40314489 -17.046875 10.26171875 C-16.52963867 9.36412842 -16.01240234 8.46653809 -15.47949219 7.54174805 C-14.99125977 6.70297119 -14.50302734 5.86419434 -14 5 C-13.48985352 4.09612549 -12.97970703 3.19225098 -12.45410156 2.26098633 C-11 0 -11 0 -8.6875 -1.4375 C-5.18611436 -2.17034816 -3.2351761 -1.43785604 0 0 Z " fill="#000000" transform="translate(190,425)"/>
<path d="M0 0 C7.07193626 2.31445187 9.89771957 10.26522486 13.3125 16.4375 C18.14857558 25.08998827 23.05893238 33.69320278 28.0625 42.25 C28.65401855 43.26231689 29.24553711 44.27463379 29.85498047 45.31762695 C32.93087622 50.58481467 32.93087622 50.58481467 36.09375 55.79980469 C38.22164102 59.4818603 37.8441114 61.92334887 37.4375 66.125 C36.4375 68.125 36.4375 68.125 34.4375 69.125 C29.50638756 70.014217 29.50638756 70.014217 26.4375 69.125 C20.46886575 63.56582087 16.80893103 55.03216265 12.875 48 C11.47052029 45.50346801 10.06229346 43.00907134 8.65234375 40.515625 C8.30082245 39.89317902 7.94930115 39.27073303 7.58712769 38.62942505 C5.29153362 34.58142774 2.92516914 30.58405142 0.50390625 26.609375 C-0.09929443 25.61566895 -0.70249512 24.62196289 -1.32397461 23.59814453 C-2.45600938 21.74358511 -3.5982689 19.89521597 -4.75219727 18.05419922 C-9.49974124 10.24497073 -9.49974124 10.24497073 -8.5625 5.125 C-5.89616981 1.32749942 -4.69543738 0.16475219 0 0 Z " fill="#000000" transform="translate(154.5625,25.875)"/>
<path d="M0 0 C2.98072357 2.19622629 3.89853229 3.38599967 4.50793457 7.0736084 C4.51111694 8.27843872 4.51429932 9.48326904 4.51757812 10.72460938 C4.52809204 11.72534233 4.52809204 11.72534233 4.53881836 12.74629211 C4.5563863 14.94587143 4.54478153 17.14415821 4.53125 19.34375 C4.5339453 20.8754501 4.53782804 22.40714853 4.54284668 23.93884277 C4.54874004 27.1467317 4.54018457 30.35417468 4.52148438 33.56201172 C4.49869424 37.67146043 4.51181829 41.77986422 4.53577423 45.8892746 C4.550237 49.05149186 4.54562418 52.21346188 4.53526306 55.37568665 C4.53259706 56.89073307 4.53586112 58.40580204 4.54518127 59.92082214 C4.5553556 62.03961532 4.53983731 64.15672285 4.51757812 66.27539062 C4.51439575 67.48022095 4.51121338 68.68505127 4.50793457 69.9263916 C3.89853229 73.61400033 2.98072357 74.80377371 0 77 C-3.8598602 77.5514086 -5.99581534 77.73989308 -9.18640137 75.38903809 C-11.59847393 72.21163537 -11.50709736 70.24335606 -11.51757812 66.27539062 C-11.5245874 65.60823532 -11.53159668 64.94108002 -11.53881836 64.25370789 C-11.5563863 62.05412857 -11.54478153 59.85584179 -11.53125 57.65625 C-11.5339453 56.1245499 -11.53782804 54.59285147 -11.54284668 53.06115723 C-11.54874004 49.8532683 -11.54018457 46.64582532 -11.52148438 43.43798828 C-11.49869424 39.32853957 -11.51181829 35.22013578 -11.53577423 31.1107254 C-11.550237 27.94850814 -11.54562418 24.78653812 -11.53526306 21.62431335 C-11.53259706 20.10926693 -11.53586112 18.59419796 -11.54518127 17.07917786 C-11.5553556 14.96038468 -11.53983731 12.84327715 -11.51757812 10.72460938 C-11.51280457 8.91736389 -11.51280457 8.91736389 -11.50793457 7.0736084 C-10.40268651 0.38554279 -6.25469668 -0.8935281 0 0 Z " fill="#000000" transform="translate(273,9)"/>
<path d="M0 0 C3.5 0.5625 3.5 0.5625 5.68838501 2.68174744 C7.87423708 6.15759577 7.99581039 8.1341368 7.98583984 12.21704102 C7.98963654 12.86483521 7.99343323 13.51262939 7.99734497 14.18005371 C8.00472076 16.30933937 7.98341494 18.43724308 7.9609375 20.56640625 C7.9585514 22.05183248 7.9576481 23.53726176 7.9581604 25.02268982 C7.95503765 28.13047271 7.93851222 31.23779255 7.91162109 34.34545898 C7.87761214 38.32572894 7.86999368 42.30549138 7.87151146 46.28588963 C7.87096726 49.35113861 7.85999261 52.41627701 7.84550858 55.48148918 C7.8391525 56.94907737 7.83520447 58.41667805 7.83372116 59.88427925 C7.82937701 61.93552051 7.81185394 63.98622744 7.79052734 66.03735352 C7.78290375 67.20363785 7.77528015 68.36992218 7.76742554 69.57154846 C7.50748706 72.47876295 7.11069859 74.1545791 5.5 76.5625 C2.39079391 78.11710305 -1.13083028 78.28970693 -4.5 77.5625 C-7.83479276 74.21041697 -7.88338019 71.44773318 -7.90405273 66.83789062 C-7.91091599 66.17073532 -7.91777924 65.50358002 -7.92485046 64.81620789 C-7.94311181 62.61683714 -7.93928272 60.41818009 -7.93359375 58.21875 C-7.93815552 56.68705005 -7.94346108 55.15535215 -7.94947815 53.62365723 C-7.95840761 50.41584957 -7.95598772 47.20829091 -7.94604492 44.00048828 C-7.93454822 39.89107693 -7.95477734 35.78252398 -7.98396206 31.6732254 C-8.00231249 28.5110326 -8.00203411 25.34904603 -7.99632454 22.18681335 C-7.99617122 20.67175593 -8.00222455 19.15668462 -8.01461601 17.64167786 C-8.02950564 15.52294099 -8.01886726 13.4057966 -8.00170898 11.28710938 C-8.00154282 10.08227905 -8.00137665 8.87744873 -8.00120544 7.6361084 C-7.17111942 2.54566215 -4.98954298 0.80189084 0 0 Z " fill="#000000" transform="translate(268.5,425.4375)"/>
</svg>
