<?xml version="1.0" encoding="UTF-8"?>
<svg version="1.1" xmlns="http://www.w3.org/2000/svg" width="512" height="512">
<path d="M0 0 C6.00419054 4.22319619 7.84291982 9.49869047 9.19921875 16.546875 C9.54061911 19.88749329 9.64974639 23.22170478 9.74343872 26.57745361 C9.77781599 27.55995834 9.81219326 28.54246307 9.84761226 29.55474067 C9.96018247 32.83217338 10.06040575 36.10986404 10.16064453 39.38769531 C10.23901789 41.74378383 10.31814896 44.09984725 10.39797974 46.45588684 C10.61230664 52.84627221 10.81588701 59.23695962 11.01743937 65.62775898 C11.20873555 71.64432697 11.40780592 77.66063391 11.60672842 83.67695329 C12.00078196 95.60358825 12.38681817 107.53046892 12.76806641 119.45751953 C13.13735665 131.01009698 13.51136414 142.56250758 13.89111328 154.11474609 C13.9144838 154.8257254 13.93785432 155.53670471 13.96193303 156.26922885 C14.0559065 159.12777351 14.14988964 161.98631785 14.24389125 164.84486158 C14.62856637 176.54662024 15.0095054 188.24850093 15.38987112 199.95040035 C15.47635565 202.60983342 15.56294844 205.26926297 15.64964914 207.928689 C15.89698324 215.51677913 16.1423723 223.10492687 16.38459396 230.69318199 C16.4581088 232.98767639 16.53226713 235.28215028 16.60713196 237.57660103 C17.3322727 259.83094683 17.3322727 259.83094683 17.19921875 269.546875 C18.08593262 269.53640137 18.97264648 269.52592773 19.88623047 269.51513672 C23.22235796 269.48075263 26.55829313 269.45583075 29.89453125 269.43701172 C31.32978311 269.42704469 32.76501517 269.41346613 34.20019531 269.39599609 C58.37128353 269.10944902 58.37128353 269.10944902 67.921875 278.18359375 C73.46640999 284.24580031 75.65653388 290.1916507 75.60327148 298.37475586 C75.61356636 299.49818138 75.61356636 299.49818138 75.62406921 300.64430237 C75.64225041 303.10030509 75.63851235 305.5556637 75.6328125 308.01171875 C75.63737848 309.73133042 75.6426853 311.45094026 75.6486969 313.17054749 C75.65761095 316.76733838 75.6552244 320.36390704 75.64526367 323.96069336 C75.63377616 328.55498475 75.65399052 333.14850727 75.68318081 337.74269772 C75.70158468 341.29192423 75.70124204 344.8409679 75.69554329 348.39023018 C75.69539059 350.08340089 75.70139254 351.7765844 75.71383476 353.4697094 C75.78044248 364.01876855 75.12888521 370.82078959 69.01171875 379.734375 C62.91541739 385.83067636 56.20743652 388.66356423 47.66096592 388.68388939 C45.96071462 388.6915012 45.96071462 388.6915012 44.22611481 388.69926679 C42.98050953 388.69976455 41.73490424 388.70026231 40.45155334 388.70077515 C39.11522797 388.70479107 37.77890381 388.70922951 36.44258112 388.7140547 C32.76716252 388.72601078 29.09175705 388.73166636 25.41632283 388.73623586 C21.45374322 388.74219529 17.49117927 388.75380396 13.52861023 388.76452637 C3.95954549 388.78903753 -5.60952443 388.80367304 -15.17861089 388.81658643 C-17.88041513 388.82029847 -20.58221885 388.82427167 -23.28402257 388.8283391 C-40.05711274 388.85356919 -56.83020372 388.87562502 -73.60330868 388.88806725 C-77.48741089 388.89099698 -81.37151308 388.89395865 -85.25561523 388.89697266 C-86.22100086 388.89771871 -87.18638649 388.89846476 -88.18102623 388.89923342 C-103.8329101 388.91189738 -119.48468065 388.94513582 -135.1365115 388.98677449 C-151.19978932 389.02915827 -167.26300904 389.05275791 -183.32634264 389.05798781 C-192.34794353 389.06140532 -201.36936709 389.07320095 -210.39091301 389.10609055 C-218.07077743 389.13404299 -225.75042816 389.14511146 -233.43033951 389.13389508 C-237.35004829 389.1286966 -241.26930923 389.13167167 -245.1889534 389.15636063 C-248.77604484 389.17876693 -252.36236451 389.17818174 -255.94946868 389.15915675 C-257.86432736 389.15501053 -259.77919007 389.17556582 -261.6939339 389.19694364 C-270.96187736 389.11070175 -270.96187736 389.11070175 -274.06638432 386.19637489 C-276.22106611 382.90483934 -276.60429794 381.40375512 -275.80078125 377.546875 C-274.14289972 375.02688814 -273.35986733 373.98241871 -270.80078125 372.546875 C-266.55933464 371.78646334 -262.35247923 371.87903584 -258.05348206 371.9210968 C-256.74262302 371.91415226 -255.43176398 371.90720771 -254.08118194 371.90005273 C-250.44392893 371.88141947 -246.80734215 371.89386421 -243.17010772 371.911322 C-239.24703431 371.92469178 -235.32406377 371.9092163 -231.40100098 371.89715576 C-224.60314817 371.88012387 -217.80549023 371.88113561 -211.0076313 371.89415932 C-201.17255436 371.9128005 -191.3376795 371.90202258 -181.50260996 371.88368275 C-165.53745274 371.8545261 -149.57235804 371.84618154 -133.60717773 371.85229492 C-118.11302986 371.85815661 -102.618903 371.85923101 -87.12475586 371.8503418 C-86.17063632 371.84979923 -85.21651677 371.84925665 -84.23348451 371.84869764 C-73.81771854 371.8425315 -63.40195786 371.83379744 -52.98619747 371.82134533 C-52.07080831 371.82025284 -51.15541915 371.81916036 -50.21229092 371.81803476 C-46.55292881 371.81361551 -42.89356683 371.80914164 -39.23420524 371.80430915 C-28.51874093 371.79018384 -17.80334741 371.78416549 -7.08787607 371.79284503 C-0.36648268 371.79802593 6.35488727 371.79665975 13.07627945 371.79014198 C16.95546948 371.78669263 20.8345866 371.78665009 24.71376991 371.7953701 C28.91754338 371.80479574 33.12115824 371.79895587 37.32493591 371.79170227 C39.16709605 371.79972027 39.16709605 371.79972027 41.04647154 371.80790025 C42.17350431 371.80351825 43.30053709 371.79913625 44.46172237 371.79462147 C45.91692206 371.79526953 45.91692206 371.79526953 47.40151972 371.79593068 C50.60702252 371.51057165 53.22585112 370.76973593 56.19921875 369.546875 C58.56498296 365.73342974 58.46255704 361.94600083 58.48974609 357.54101562 C58.49646332 356.85581345 58.50318054 356.17061127 58.51010132 355.46464539 C58.52902336 353.21073055 58.53300206 350.95711421 58.53515625 348.703125 C58.54158659 347.13041056 58.54831513 345.5576973 58.55532837 343.98498535 C58.56728543 340.69324977 58.57101065 337.40161904 58.56982422 334.10986328 C58.56962074 329.89637242 58.59695887 325.68355386 58.63136864 321.47022247 C58.65362394 318.22394736 58.65766225 314.97783467 58.65660477 311.73149109 C58.65896141 310.17817358 58.66778859 308.62485164 58.6832695 307.0716095 C58.70290969 304.8981732 58.6971017 302.72619513 58.68505859 300.55273438 C58.68790863 299.31761108 58.69075867 298.08248779 58.69369507 296.80993652 C58.0885316 292.81644776 57.18267284 291.25765492 54.19921875 288.546875 C47.5359138 285.52106216 40.06480495 286.26882804 32.88208008 286.29150391 C31.42942611 286.28875105 29.97677364 286.28506937 28.52412415 286.28053284 C25.40685298 286.27244757 22.28965343 286.27024554 19.17237282 286.27248001 C14.24332984 286.27532066 9.31442929 286.26093497 4.38542175 286.24349976 C-9.62673839 286.19653872 -23.63888765 286.17252005 -37.65112305 286.16601562 C-45.39824008 286.16226774 -53.1451948 286.14426579 -60.89224225 286.11092126 C-65.79275462 286.09069114 -70.69284889 286.08834388 -75.59338605 286.09920144 C-78.63869018 286.10180521 -81.68374974 286.08782221 -84.72899055 286.06912041 C-86.14152003 286.06379071 -87.55409432 286.06530854 -88.96660614 286.07415581 C-90.89379069 286.08525425 -92.82107427 286.06951989 -94.74821472 286.05239868 C-96.36615071 286.05076438 -96.36615071 286.05076438 -98.01677227 286.04909706 C-101.50284754 285.42022556 -102.68551775 284.34573027 -104.80078125 281.546875 C-105.30078125 278.046875 -105.30078125 278.046875 -104.80078125 274.546875 C-102.58215096 271.63970427 -101.28133196 270.70705857 -97.80078125 269.546875 C-96.00607738 269.45874067 -94.20823886 269.4292378 -92.41137695 269.43334961 C-91.31046219 269.43342514 -90.20954742 269.43350067 -89.07527161 269.43357849 C-87.8876976 269.43873978 -86.7001236 269.44390106 -85.4765625 269.44921875 C-83.65175606 269.45134117 -83.65175606 269.45134117 -81.79008484 269.45350647 C-77.89779215 269.45911188 -74.00555661 269.47166533 -70.11328125 269.484375 C-67.47721437 269.4893893 -64.84114659 269.49395233 -62.20507812 269.49804688 C-55.73695897 269.50908307 -49.268876 269.52622559 -42.80078125 269.546875 C-42.80406321 268.96397866 -42.80734517 268.38108233 -42.81072658 267.78052247 C-42.88003876 253.44121027 -42.66505102 239.13835961 -42.17407227 224.80810547 C-42.10640984 222.75015292 -42.03907818 220.69218948 -41.9720459 218.63421631 C-41.7915409 213.12182922 -41.60638064 207.60960797 -41.42020917 202.09740973 C-41.22457653 196.28313438 -41.03308946 190.46872229 -40.84104919 184.65432739 C-40.51825879 174.89918499 -40.19260161 165.14414179 -39.86499023 155.38916016 C-39.48806634 144.16535446 -39.1148207 132.94143141 -38.74374443 121.71743095 C-38.34593733 109.68529834 -37.94579089 97.65324441 -37.54477954 85.6212182 C-37.43053107 82.18940174 -37.31666966 78.75757261 -37.20288277 75.32574081 C-37.02295172 69.90327573 -36.84140913 64.4808667 -36.65869904 59.05849457 C-36.59249167 57.0870927 -36.52677035 55.11567442 -36.46161461 53.14423752 C-36.31410229 48.68572196 -36.16003612 44.22770321 -35.9892292 39.77001572 C-35.85046686 36.134617 -35.75213257 32.50033282 -35.67194939 28.86319351 C-35.61628429 26.99774014 -35.56015747 25.13230047 -35.50352478 23.26687622 C-35.49227933 22.42333804 -35.48103389 21.57979986 -35.46944767 20.71069992 C-35.23411317 14.00657573 -33.69478624 7.74573514 -29.09332126 2.65955079 C-20.59632268 -5.23941496 -9.88749796 -5.52582304 0 0 Z M-17.00588989 14.0428009 C-19.45973208 17.46618507 -19.4501673 20.5432245 -19.51904297 24.61206055 C-19.54919117 25.46065706 -19.57933937 26.30925358 -19.61040115 27.18356514 C-19.71020752 30.12078331 -19.78225526 33.05809996 -19.85546875 35.99609375 C-19.92423991 38.17378074 -19.99494879 40.35140719 -20.06735229 42.52897644 C-20.21002951 46.89675215 -20.34591227 51.26462937 -20.47326624 55.63287932 C-20.78201252 66.21703419 -21.14513621 76.79909414 -21.51269531 87.38134766 C-22.16416056 106.19808762 -22.79320574 125.01550173 -23.41328931 143.83329976 C-23.44689895 144.85325468 -23.4805086 145.87320961 -23.51513672 146.92407227 C-23.54879483 147.94585284 -23.58245294 148.96763342 -23.61713099 150.02037704 C-23.89270401 158.37751779 -24.17221953 166.73452355 -24.45252335 175.09150678 C-24.72681641 183.27443451 -24.99839779 191.45744942 -25.26792419 199.64053553 C-25.42725863 204.47679531 -25.58760323 209.31301567 -25.75073624 214.14914894 C-26.37291408 232.62142711 -26.98032669 251.06103502 -26.80078125 269.546875 C-17.56078125 269.546875 -8.32078125 269.546875 1.19921875 269.546875 C0.22483957 227.32598092 -1.06656867 185.11606614 -2.41372395 142.90559769 C-2.80789999 130.54431044 -3.19450592 118.18287574 -3.56323242 105.82080078 C-3.88841676 94.91864986 -4.22691664 84.01701127 -4.58186692 73.11578727 C-4.76829565 67.37699561 -4.94817774 61.63817291 -5.11205482 55.89868927 C-5.26540699 50.53619543 -5.43664131 45.1745752 -5.6218338 39.81308937 C-5.68654457 37.84804486 -5.74468053 35.88277128 -5.79578972 33.91732597 C-5.86643849 31.23816329 -5.9605992 28.56082799 -6.06074524 25.88262939 C-6.07564839 25.10417042 -6.09055154 24.32571145 -6.10590631 23.52366281 C-6.26500461 19.91530337 -6.73831899 17.65192569 -8.5970335 14.52589035 C-11.62034585 11.81088744 -13.63719244 11.7575068 -17.00588989 14.0428009 Z " fill="#000000" transform="translate(436.80078125,63.453125)"/>
<path d="M0 0 C5.36084404 2.68516613 9.0525557 6.45653474 11.29177856 12.03094482 C12.41318095 16.01762155 12.65068968 19.80897793 12.77294922 23.91894531 C12.80592731 24.78712135 12.83890541 25.65529739 12.87288284 26.5497818 C12.98389474 29.53814757 13.08172673 32.52680466 13.1796875 35.515625 C13.25876748 37.73181492 13.33853862 39.94798025 13.41891479 42.16412354 C13.62771815 47.99717993 13.8267295 53.83053238 14.02209604 59.66405034 C14.21015422 65.27330254 14.40243644 70.88240115 14.59631348 76.49145508 C15.36995287 98.89237062 16.12292157 121.2939261 16.86252522 143.69599009 C16.89612921 144.71380359 16.92973319 145.7316171 16.96435547 146.78027344 C16.99801295 147.7998657 17.03167043 148.81945796 17.06634784 149.86994696 C17.34183901 158.20599274 17.6213961 166.54189886 17.9017421 174.87778258 C18.17626286 183.04631694 18.44780987 191.21494684 18.71714294 199.38365388 C18.87628864 204.20879116 19.03656172 209.03388362 19.19995499 213.85887909 C19.84900797 233.05544271 20.48203463 252.22645931 20.25 271.4375 C21.23490764 271.43565641 22.21981527 271.43381283 23.2345686 271.43191338 C47.18704116 271.38753654 71.13950839 271.35465905 95.09201336 271.33387566 C106.675208 271.32355812 118.25837551 271.30948864 129.84155273 271.28662109 C139.93611205 271.26670186 150.03065171 271.25378704 160.12523013 271.24932301 C165.47142234 271.24671315 170.81755832 271.24056888 176.16373253 271.22603989 C181.19430414 271.21247917 186.22479629 271.20827431 191.25538445 271.21128464 C193.10289186 271.2107338 194.9504019 271.20674738 196.79789352 271.19908905 C199.31858197 271.18915147 201.83896963 271.19152679 204.35966492 271.19699097 C205.45841172 271.18825244 205.45841172 271.18825244 206.57935542 271.17933738 C211.56293766 271.20857437 215.35642066 271.73327859 219.125 275.125 C220.78583755 278.53894385 220.16952707 280.82507223 219.25 284.4375 C217.62331412 286.63181397 216.76675079 287.34895156 214.05161881 287.81420618 C213.18775237 287.81502064 212.32388592 287.8158351 211.43384171 287.81667423 C209.93698062 287.82900895 209.93698062 287.82900895 208.40987992 287.84159285 C207.31058207 287.83538103 206.21128422 287.82916922 205.07867432 287.82276917 C203.91315403 287.82800486 202.74763374 287.83324056 201.54679465 287.83863491 C198.30613004 287.85021303 195.06578817 287.84834298 191.8251214 287.84092176 C188.33213936 287.83619267 184.83921575 287.84873564 181.34625244 287.85928345 C175.29106347 287.87527933 169.23594144 287.88053235 163.18073273 287.87875557 C154.41825519 287.87637428 145.65588478 287.89234876 136.89343521 287.91320812 C122.66757139 287.94675815 108.44171715 287.96840341 94.21582031 287.98120117 C92.93814559 287.98235541 92.93814559 287.98235541 91.63465926 287.98353296 C88.18356503 287.98663511 84.73247077 287.98971793 81.2813765 287.992773 C71.78946999 288.00129727 62.29756681 288.01219939 52.80566406 288.02416992 C51.53136195 288.02577195 51.53136195 288.02577195 50.23131636 288.02740634 C36.06420714 288.04550174 21.89712067 288.07149745 7.73003364 288.10230106 C-1.00930171 288.12085381 -9.74858596 288.13177074 -18.48794129 288.13282298 C-24.47817421 288.13392689 -30.46837212 288.14188072 -36.45859024 288.15520663 C-39.91460636 288.16262193 -43.3705459 288.16672269 -46.8265686 288.16208839 C-50.57470519 288.15869361 -54.32262456 288.16745698 -58.07073975 288.17921448 C-59.16111471 288.17523338 -60.25148967 288.17125229 -61.3749063 288.16715056 C-70.99720881 288.11041325 -70.99720881 288.11041325 -79.15713501 292.62463379 C-81.14373731 296.13280712 -81.2451232 298.42022146 -81.23583984 302.44335938 C-81.23963654 303.12856155 -81.24343323 303.81376373 -81.24734497 304.51972961 C-81.25472587 306.77404254 -81.23340472 309.02705256 -81.2109375 311.28125 C-81.20855143 312.85396168 -81.2076481 314.42667624 -81.2081604 315.99938965 C-81.20503662 319.29127924 -81.18850466 322.58273201 -81.16162109 325.87451172 C-81.12764178 330.08784483 -81.11999282 334.30069843 -81.12151146 338.51415253 C-81.12096682 341.76044263 -81.10998469 345.00662853 -81.09550858 348.25288391 C-81.08915767 349.80616976 -81.08520569 351.35946738 -81.08372116 352.9127655 C-81.07936985 355.08592711 -81.06183038 357.25858737 -81.04052734 359.43164062 C-81.03290375 360.66676392 -81.02528015 361.90188721 -81.01742554 363.17443848 C-80.74653166 366.47981989 -80.50002578 368.61658173 -78.75 371.4375 C-73.42868782 374.29520625 -67.29198963 373.70847807 -61.40795898 373.67700195 C-60.27394653 373.67901611 -59.13993408 373.68103027 -57.97155762 373.68310547 C-55.51454856 373.6866453 -53.05753037 373.68589088 -50.60052299 373.68132973 C-46.71299101 373.6757336 -42.82575703 373.6848995 -38.93824768 373.6985321 C-27.88729085 373.73620399 -16.83641863 373.75444982 -5.78540039 373.74291992 C0.97789835 373.7360376 7.74071364 373.75529211 14.50395012 373.78880882 C17.0815609 373.79677285 19.65921739 373.79547241 22.23681831 373.78478432 C25.83746413 373.77049253 29.43678147 373.78669239 33.03735352 373.80981445 C34.10398727 373.79804672 35.17062103 373.78627899 36.26957703 373.77415466 C43.4804868 373.86512704 43.4804868 373.86512704 47.41172791 376.78923035 C49.25 379.4375 49.25 379.4375 49.875 382.4375 C48.99607224 386.65635327 47.72396986 387.86406594 44.25 390.4375 C40.44619884 391.18439479 36.69145086 391.1101343 32.82543945 391.06860352 C31.67034378 391.07575882 30.51524811 391.08291412 29.32514954 391.09028625 C25.5041251 391.10720241 21.68426948 391.08774551 17.86328125 391.06640625 C15.20393815 391.06723496 12.54463561 391.06963934 9.88529968 391.07371521 C4.30759253 391.07823476 -1.26977918 391.06238325 -6.84741211 391.03442383 C-13.27484702 391.00245068 -19.70167441 391.00235734 -26.129152 391.0196386 C-32.33087108 391.03557209 -38.53236975 391.02872153 -44.73407936 391.01170158 C-47.36338621 391.00653245 -49.99271052 391.00698609 -52.622015 391.01324654 C-56.30787498 391.01872579 -59.99272231 390.99823136 -63.6784668 390.97094727 C-64.75674744 390.97747314 -65.83502808 390.98399902 -66.94598389 390.99072266 C-76.58173408 390.87006988 -84.91338398 388.43310709 -91.75 381.4375 C-96.15144013 375.33767809 -97.89709464 370.64824912 -97.94287109 363.09545898 C-97.95104858 362.35030533 -97.95922607 361.60515167 -97.96765137 360.8374176 C-97.99247495 358.36948438 -98.00901834 355.9016088 -98.0234375 353.43359375 C-98.02876118 352.58828661 -98.03408485 351.74297947 -98.03956985 350.87205696 C-98.06629509 346.39314812 -98.08566735 341.91426701 -98.10009766 337.43530273 C-98.11340652 333.74071324 -98.14120296 330.04668003 -98.18212891 326.35229492 C-98.23165229 321.88133446 -98.25624332 317.41087639 -98.26332474 312.9396534 C-98.27000662 311.24250873 -98.28514819 309.54537392 -98.30921555 307.84838676 C-98.44879426 297.40643802 -98.27902717 288.37518845 -90.77328491 280.31468201 C-82.76833231 272.6622778 -74.14848703 271.29476769 -63.28515625 271.33984375 C-62.26789711 271.34196617 -62.26789711 271.34196617 -61.23008728 271.34413147 C-59.09084422 271.34967255 -56.95171075 271.36221347 -54.8125 271.375 C-53.35091298 271.38002264 -51.88932431 271.3845842 -50.42773438 271.38867188 C-46.86845474 271.39962255 -43.30923809 271.41684555 -39.75 271.4375 C-39.73018066 270.44911133 -39.71036133 269.46072266 -39.68994141 268.44238281 C-39.22699318 245.73828143 -38.64181175 223.03706925 -37.93597412 200.3392334 C-37.85303285 197.6633067 -37.77415569 194.98730781 -37.6987915 192.31115723 C-37.59012964 188.51702245 -37.47026774 184.7233939 -37.34765625 180.9296875 C-37.31739853 179.80003571 -37.28714081 178.67038391 -37.25596619 177.50650024 C-36.69966095 161.38716095 -36.69966095 161.38716095 -32.75 157.4375 C-29.21231539 156.41550222 -27.41615962 156.14984016 -24 157.625 C-21.62618978 159.53723601 -20.87594635 160.65761874 -19.75 163.4375 C-19.54796314 165.41384983 -19.54796314 165.41384983 -19.61665344 167.5269928 C-19.63770142 168.33276764 -19.65874939 169.13854248 -19.68043518 169.96873474 C-19.73094276 171.2817733 -19.73094276 171.2817733 -19.7824707 172.62133789 C-19.80983307 173.55034912 -19.83719543 174.47936035 -19.86538696 175.43652344 C-19.95860315 178.51148505 -20.06701186 181.58570858 -20.17578125 184.66015625 C-20.24433717 186.80282489 -20.31204852 188.9455207 -20.37895203 191.08824158 C-20.52150566 195.58502593 -20.67097938 200.08150677 -20.82592773 204.57788086 C-21.02366643 210.31817834 -21.20952396 216.05877596 -21.39078999 221.79961491 C-21.56486643 227.29493558 -21.74517526 232.79004699 -21.92578125 238.28515625 C-21.95936548 239.32385424 -21.99294971 240.36255222 -22.02755165 241.43272591 C-22.12473342 244.40457779 -22.22636501 247.37624444 -22.3293457 250.34790039 C-22.35694473 251.20908981 -22.38454376 252.07027924 -22.41297913 252.95756531 C-22.63494628 259.16741853 -23.18510806 265.22368863 -23.75 271.4375 C-14.51 271.4375 -5.27 271.4375 4.25 271.4375 C4.14115479 268.76342041 4.03230957 266.08934082 3.92016602 263.33422852 C2.74182219 233.96526123 1.73713665 204.59163662 0.77734375 175.21484375 C0.7452533 174.23357277 0.71316285 173.2523018 0.68009996 172.24129534 C0.11151477 154.85409784 -0.45305434 137.46677014 -1.01654053 120.07940674 C-1.38392667 108.74433073 -1.75220663 97.40928516 -2.12305444 86.07432181 C-2.31173969 80.30421468 -2.49868964 74.53405504 -2.68420994 68.76384532 C-2.79995716 65.17597473 -2.91730885 61.58815784 -3.03507042 58.00035286 C-3.08853474 56.36189021 -3.14136787 54.7234068 -3.19345856 53.0848999 C-3.33505012 48.63701901 -3.49124737 44.19008094 -3.66513371 39.74334407 C-3.7250053 38.11661394 -3.77821801 36.48963209 -3.82665706 34.86252141 C-3.90521895 32.24023301 -4.00215244 29.61912653 -4.10203552 26.99757385 C-4.13216865 25.78026326 -4.13216865 25.78026326 -4.16291052 24.53836054 C-4.24543021 20.32507821 -4.24543021 20.32507821 -6.12043625 16.6912474 C-7.74662642 15.16006609 -7.74662642 15.16006609 -10.3125 15.5625 C-13.0761611 16.28139168 -13.0761611 16.28139168 -14.75 19.4375 C-15.0987334 21.68011652 -15.0987334 21.68011652 -15.12217712 24.20639038 C-15.15424759 25.1877446 -15.18631805 26.16909882 -15.21936035 27.18019104 C-15.25760925 28.79328407 -15.25760925 28.79328407 -15.29663086 30.43896484 C-15.33111832 31.57253922 -15.36560577 32.70611359 -15.40113831 33.8740387 C-15.4750648 36.33916788 -15.54468484 38.80442904 -15.61054802 41.26978683 C-15.71542131 45.16991644 -15.83280673 49.0694845 -15.95375061 52.96914673 C-16.25274276 62.65643018 -16.53409012 72.34421669 -16.80633545 82.0322876 C-17.0362699 90.21350694 -17.27711871 98.39422977 -17.53451729 106.57463455 C-17.61291564 109.16046912 -17.68581727 111.74647633 -17.75315666 114.33262253 C-17.84734101 117.94800532 -17.95876865 121.56248098 -18.07397461 125.17724609 C-18.09744965 126.24859299 -18.12092468 127.31993988 -18.14511108 128.42375183 C-18.34374813 134.04289551 -18.56921077 138.25671077 -22.75 142.4375 C-30.00473723 143.03215059 -30.00473723 143.03215059 -32.85429382 140.75846863 C-35.20299095 137.88288991 -35.23368322 136.55017862 -35.18676758 132.8762207 C-35.17778694 131.15341133 -35.17778694 131.15341133 -35.16862488 129.39579773 C-35.14004898 128.12694229 -35.11147308 126.85808685 -35.08203125 125.55078125 C-35.06470388 124.18591348 -35.04869808 122.82102841 -35.03388977 121.45613098 C-34.9732068 116.7823759 -34.86273848 112.11024281 -34.75 107.4375 C-34.71019943 105.68715565 -34.67046716 103.93680974 -34.63079834 102.1864624 C-34.36253328 90.66320371 -34.01556089 79.14327255 -33.63305664 67.62329102 C-33.46589568 62.5709025 -33.31604319 57.51814628 -33.16984844 52.46511364 C-33.05272567 48.51755334 -32.92359703 44.57045091 -32.79117775 40.62337685 C-32.73060354 38.75896175 -32.67436135 36.89440009 -32.62277794 35.02971458 C-32.04169119 14.36254414 -32.04169119 14.36254414 -27.1875 5.625 C-19.2092732 -1.53494713 -10.09439116 -3.88896142 0 0 Z " fill="#000000" transform="translate(97.75,61.5625)"/>
<path d="M0 0 C0.71431183 -0.00067474 1.42862366 -0.00134949 2.1645813 -0.00204468 C13.2334322 0.01455449 23.85318515 0.54706992 34.625 3.25 C35.31480957 3.41628906 36.00461914 3.58257812 36.71533203 3.75390625 C59.17382329 9.30810148 79.21306275 20.10161459 96.625 35.25 C97.3365625 35.84039062 98.048125 36.43078125 98.78125 37.0390625 C105.43925615 42.57830532 105.43925615 42.57830532 106.0625 48.1875 C105.96545937 51.4747514 105.73281294 52.11605059 103.5625 54.8125 C99.55515055 56.77354335 97.88006447 56.620275 93.625 55.25 C90.73453877 53.15441561 88.22068907 50.69466716 85.625 48.25 C57.01714649 23.57449749 22.80106093 15.03152779 -14.375 17.25 C-21.2083772 17.94586998 -27.7815552 19.34888523 -34.375 21.25 C-35.10428711 21.45898926 -35.83357422 21.66797852 -36.58496094 21.88330078 C-55.73694904 27.58787555 -72.5783921 37.56256946 -87.0859375 51.26953125 C-90.76489021 54.45251594 -93.04508745 56.29585905 -98 56.125 C-101.375 55.25 -101.375 55.25 -103.3125 54.1875 C-105.0809117 50.96274924 -105.1030379 47.76538299 -104.375 44.25 C-102.3125 41.6875 -102.3125 41.6875 -99.375 39.25 C-98.30426111 38.16431425 -97.24236816 37.06986238 -96.1875 35.96875 C-92.54594024 32.30812698 -88.66419336 29.2661524 -84.4375 26.3125 C-83.70096191 25.79671387 -82.96442383 25.28092773 -82.20556641 24.74951172 C-74.94652376 19.78051497 -67.39651375 15.82807384 -59.375 12.25 C-58.18777344 11.70730469 -57.00054687 11.16460937 -55.77734375 10.60546875 C-37.88205623 2.91380545 -19.35293248 0.01640715 0 0 Z " fill="#000000" transform="translate(255.375,130.75)"/>
<path d="M0 0 C0.73863281 0.58394531 1.47726562 1.16789062 2.23828125 1.76953125 C5.29514482 4.26945073 7.54850886 6.31166985 9 10 C8.82357605 13.35205511 8.56269287 15.97391301 6.9375 18.9375 C3.76374591 20.67794579 0.48565075 20.57613054 -3 20 C-5.38531836 18.38202845 -7.11655268 16.985742 -9.125 15 C-26.82274794 -1.14138717 -49.42090898 -7.92112475 -73.12890625 -7.28515625 C-93.80382287 -6.31873633 -113.79058101 2.22165762 -128.67578125 16.62109375 C-131.38892228 19.20259991 -133.43795704 20.3674492 -137.125 20.625 C-141 20 -141 20 -143.5625 17.9375 C-145.47218753 14.03509504 -145.255663 12.13630166 -144 8 C-142 5.5625 -142 5.5625 -139 3 C-138.08927734 2.10667969 -138.08927734 2.10667969 -137.16015625 1.1953125 C-99.73420087 -34.627669 -38.5768974 -31.00625087 0 0 Z " fill="#000000" transform="translate(324,195)"/>
<path d="M0 0 C2.00409236 1.93742001 3.05908956 3.31946154 3.99609375 5.9296875 C3.8196698 9.28174261 3.55878662 11.90360051 1.93359375 14.8671875 C-1.44190766 16.71826892 -4.37065621 16.90431145 -8.00390625 15.9296875 C-10.66206813 14.13445256 -13.01812452 12.1224344 -15.44921875 10.03125 C-24.64664919 2.46516808 -36.72144082 -0.55825869 -48.50390625 -0.0703125 C-59.99837395 1.24734599 -69.38064849 5.31668588 -78.00390625 12.9296875 C-81.47866143 15.85938304 -83.60948755 16.53262513 -88.09375 16.33984375 C-90.00390625 15.9296875 -90.00390625 15.9296875 -92.56640625 13.8671875 C-94.47609378 9.96478254 -94.25956925 8.06598916 -93.00390625 3.9296875 C-91.00390625 1.4296875 -91.00390625 1.4296875 -88.00390625 -1.0703125 C-87.36195313 -1.6271875 -86.72 -2.1840625 -86.05859375 -2.7578125 C-60.35958626 -24.12759651 -24.88546745 -19.82874047 0 0 Z " fill="#000000" transform="translate(301.00390625,227.0703125)"/>
<path d="M0 0 C5.38984266 3.90859158 5.38984266 3.90859158 6.703125 6.53515625 C7.39422448 13.67651751 7.39422448 13.67651751 4.640625 17.09765625 C0.7472331 19.00293314 -1.14896718 18.69948125 -5.296875 17.53515625 C-6.245625 16.87515625 -7.194375 16.21515625 -8.171875 15.53515625 C-12.20145833 12.95622292 -15.526593 12.17255035 -20.296875 12.53515625 C-24.37268963 13.92914146 -27.73064041 16.15766653 -31.296875 18.53515625 C-34.63154185 18.35651338 -37.2829019 18.09120602 -40.234375 16.47265625 C-42.00268262 13.2480953 -42.02736336 10.04977007 -41.296875 6.53515625 C-31.60509725 -6.00714437 -13.17755757 -8.40405457 0 0 Z " fill="#000000" transform="translate(273.296875,249.46484375)"/>
<path d="M0 0 C1.04481285 -0.00786278 1.04481285 -0.00786278 2.11073303 -0.0158844 C3.58251616 -0.0223015 5.05435059 -0.02097154 6.52612305 -0.01245117 C8.77420781 -0.00394766 11.01974491 -0.03268946 13.26757812 -0.06445312 C14.69921799 -0.0660655 16.13086234 -0.06548691 17.5625 -0.0625 C18.8630835 -0.06435303 20.16366699 -0.06620605 21.50366211 -0.06811523 C24.84765625 0.43359375 24.84765625 0.43359375 27.27563477 2.24584961 C29.55691375 5.42065019 29.324427 7.61942776 28.84765625 11.43359375 C27.08750494 14.61862945 26.34874709 15.26656347 22.84765625 16.43359375 C18.20555009 16.67041559 13.55765174 16.6187758 8.91015625 16.62109375 C7.62173828 16.63333984 6.33332031 16.64558594 5.00585938 16.65820312 C3.76900391 16.66013672 2.53214844 16.66207031 1.2578125 16.6640625 C-0.44169556 16.67022583 -0.44169556 16.67022583 -2.17553711 16.67651367 C-5.09290541 16.43844417 -6.72065207 16.01152755 -9.15234375 14.43359375 C-11.24913778 11.73771572 -11.14745196 10.34064975 -10.96484375 6.87109375 C-9.38671459 0.19439345 -6.53809343 0.04904887 0 0 Z " fill="#000000" transform="translate(231.15234375,400.56640625)"/>
<path d="M0 0 C1.04481285 -0.00786278 1.04481285 -0.00786278 2.11073303 -0.0158844 C3.58251616 -0.0223015 5.05435059 -0.02097154 6.52612305 -0.01245117 C8.77420781 -0.00394766 11.01974491 -0.03268946 13.26757812 -0.06445312 C14.69921799 -0.0660655 16.13086234 -0.06548691 17.5625 -0.0625 C18.8630835 -0.06435303 20.16366699 -0.06620605 21.50366211 -0.06811523 C24.84765625 0.43359375 24.84765625 0.43359375 27.27563477 2.24584961 C29.55691375 5.42065019 29.324427 7.61942776 28.84765625 11.43359375 C27.08750494 14.61862945 26.34874709 15.26656347 22.84765625 16.43359375 C18.20555009 16.67041559 13.55765174 16.6187758 8.91015625 16.62109375 C7.62173828 16.63333984 6.33332031 16.64558594 5.00585938 16.65820312 C3.76900391 16.66013672 2.53214844 16.66207031 1.2578125 16.6640625 C-0.44169556 16.67022583 -0.44169556 16.67022583 -2.17553711 16.67651367 C-5.09290541 16.43844417 -6.72065207 16.01152755 -9.15234375 14.43359375 C-11.24913778 11.73771572 -11.14745196 10.34064975 -10.96484375 6.87109375 C-9.38671459 0.19439345 -6.53809343 0.04904887 0 0 Z " fill="#000000" transform="translate(61.15234375,400.56640625)"/>
<path d="M0 0 C0.69512695 -0.00478363 1.39025391 -0.00956726 2.10644531 -0.01449585 C3.57228872 -0.01788977 5.03820833 -0.00872231 6.50390625 0.01220703 C8.74390886 0.03898967 10.97890266 0.01245251 13.21875 -0.01953125 C14.64584436 -0.01622705 16.07293561 -0.00982058 17.5 0 C19.44132812 0.00845947 19.44132812 0.00845947 21.421875 0.01708984 C24.75 0.6640625 24.75 0.6640625 27.17578125 3.01416016 C29.09241011 6.24044578 29.30035489 7.96882253 28.75 11.6640625 C26.97015595 14.7999782 26.22691793 15.50508986 22.75 16.6640625 C18.12916564 16.92701738 13.50250217 16.89553396 8.875 16.9140625 C6.95494141 16.945 6.95494141 16.945 4.99609375 16.9765625 C3.76246094 16.98171875 2.52882813 16.986875 1.2578125 16.9921875 C0.13004395 17.0015332 -0.99772461 17.01087891 -2.15966797 17.02050781 C-5.61225164 16.62227964 -7.47932854 15.72622024 -10.25 13.6640625 C-11.67662219 10.81081813 -11.56033868 8.82951701 -11.25 5.6640625 C-8.20586767 0.49909608 -5.84893556 0.02548714 0 0 Z " fill="#000000" transform="translate(433.25,400.3359375)"/>
<path d="M0 0 C0.69512695 -0.00619858 1.39025391 -0.01239716 2.10644531 -0.01878357 C3.57225142 -0.02586948 5.0381382 -0.02272897 6.50390625 -0.01000977 C8.74369589 0.00386719 10.97931258 -0.03023187 13.21875 -0.06835938 C14.64583435 -0.06931058 16.07292392 -0.06745168 17.5 -0.0625 C18.79421875 -0.0632251 20.0884375 -0.0639502 21.421875 -0.06469727 C24.75 0.56640625 24.75 0.56640625 27.18139648 2.97241211 C28.79372825 5.6387195 29.24542037 6.66689404 28.8125 9.69140625 C28.74160156 10.35398437 28.67070312 11.0165625 28.59765625 11.69921875 C27.31261192 14.52986939 25.50327946 15.2056903 22.75 16.56640625 C19.69140625 16.95458984 19.69140625 16.95458984 16.3125 16.96484375 C14.47558594 16.97064453 14.47558594 16.97064453 12.6015625 16.9765625 C11.33054688 16.96496094 10.05953125 16.95335937 8.75 16.94140625 C7.47898437 16.95300781 6.20796875 16.96460938 4.8984375 16.9765625 C3.67382812 16.97269531 2.44921875 16.96882813 1.1875 16.96484375 C0.07246094 16.96145996 -1.04257813 16.95807617 -2.19140625 16.95458984 C-5.60677619 16.52112575 -7.49965826 15.6036734 -10.25 13.56640625 C-11.79586876 10.47466873 -11.54359521 7.97211073 -11.25 4.56640625 C-8.08133257 0.13392648 -5.25991924 0.04420375 0 0 Z " fill="#000000" transform="translate(118.25,400.43359375)"/>
<path d="M0 0 C1.04481285 -0.00786278 1.04481285 -0.00786278 2.11073303 -0.0158844 C3.58251616 -0.0223015 5.05435059 -0.02097154 6.52612305 -0.01245117 C8.77420781 -0.00394766 11.01974491 -0.03268946 13.26757812 -0.06445312 C14.69921799 -0.0660655 16.13086234 -0.06548691 17.5625 -0.0625 C18.8630835 -0.06435303 20.16366699 -0.06620605 21.50366211 -0.06811523 C24.84765625 0.43359375 24.84765625 0.43359375 27.27563477 2.24584961 C29.55691375 5.42065019 29.324427 7.61942776 28.84765625 11.43359375 C27.08750494 14.61862945 26.34874709 15.26656347 22.84765625 16.43359375 C18.20555009 16.67041559 13.55765174 16.6187758 8.91015625 16.62109375 C7.62173828 16.63333984 6.33332031 16.64558594 5.00585938 16.65820312 C3.76900391 16.66013672 2.53214844 16.66207031 1.2578125 16.6640625 C-0.44169556 16.67022583 -0.44169556 16.67022583 -2.17553711 16.67651367 C-5.09290541 16.43844417 -6.72065207 16.01152755 -9.15234375 14.43359375 C-11.24913778 11.73771572 -11.14745196 10.34064975 -10.96484375 6.87109375 C-9.38671459 0.19439345 -6.53809343 0.04904887 0 0 Z " fill="#000000" transform="translate(377.15234375,400.56640625)"/>
<path d="M0 0 C1.00939636 -0.00218285 1.00939636 -0.00218285 2.03918457 -0.00440979 C3.4579706 -0.00275425 4.87677523 0.00876872 6.29541016 0.02954102 C8.46204217 0.05850408 10.62622624 0.05014426 12.79296875 0.03710938 C14.17449101 0.04334733 15.55600557 0.05173873 16.9375 0.0625 C18.81598633 0.0771228 18.81598633 0.0771228 20.73242188 0.09204102 C24.16609704 0.52073236 25.57057564 1.0483793 27.96875 3.49609375 C29.14282634 7.09659453 29.29634676 8.77538088 27.71875 12.24609375 C25.96875 14.49609375 25.96875 14.49609375 22.96875 16.49609375 C18.86124846 16.90430544 14.75323813 16.86769977 10.62695312 16.86669922 C8.60721 16.87106466 6.58966791 16.90736951 4.5703125 16.9453125 C3.2915625 16.94917969 2.0128125 16.95304687 0.6953125 16.95703125 C-1.05918213 16.96935791 -1.05918213 16.96935791 -2.84912109 16.98193359 C-6.66202177 16.39978902 -8.31558655 15.18265745 -11.03125 12.49609375 C-11.66015625 10.49609375 -11.66015625 10.49609375 -11.59375 8.49609375 C-11.59503906 7.83609375 -11.59632813 7.17609375 -11.59765625 6.49609375 C-9.90261948 0.51086047 -5.55605997 -0.00822114 0 0 Z " fill="#000000" transform="translate(175.03125,400.50390625)"/>
</svg>
