<?xml version="1.0" encoding="UTF-8"?>
<svg version="1.1" xmlns="http://www.w3.org/2000/svg" width="512" height="512">
<path d="M0 0 C9.46279613 6.64803094 16.51359471 15.63945597 18.99609375 26.96484375 C20.67942114 37.94438455 19.05726489 48.90005383 13.00390625 58.33203125 C10.21327262 62.08082236 8.05777383 64.86349122 3.68359375 66.71484375 C3.68359375 67.37484375 3.68359375 68.03484375 3.68359375 68.71484375 C4.25980469 68.94042969 4.83601562 69.16601562 5.4296875 69.3984375 C11.84955623 73.14799688 16.10807076 81.40235389 18.2109375 88.3515625 C18.89736526 91.78370128 19.25930209 95.24058426 19.68359375 98.71484375 C20.40942657 98.89388245 21.1352594 99.07292114 21.88308716 99.25738525 C28.74191164 100.95145367 35.59779522 102.65685654 42.45065498 104.37486649 C45.97340754 105.25759898 49.49712102 106.13599852 53.0234375 107.00439453 C56.43012079 107.84350096 59.83374231 108.69411999 63.23559189 109.55260468 C65.15786674 110.03455969 67.08308571 110.50472288 69.0083313 110.97467041 C78.33805031 113.34515605 83.89083156 115.93599167 89.68359375 123.71484375 C91.71510194 129.80936832 91.50795512 137.04779226 89.62109375 143.15234375 C86.17001318 147.71667612 81.98920298 151.47179828 76.68359375 153.71484375 C65.19345939 155.18314097 53.32542567 152.25052763 42.05859375 150.27734375 C40.11994902 149.94764116 38.18114762 149.61885834 36.2421875 149.29101562 C34.39699654 148.97607299 32.5519391 148.66034683 30.70703125 148.34375 C29.84459808 148.19579483 28.98216492 148.04783966 28.09359741 147.895401 C27.29491241 147.75533127 26.49622742 147.61526154 25.67333984 147.47094727 C24.97308685 147.34881363 24.27283386 147.22667999 23.55136108 147.10084534 C21.68359375 146.71484375 21.68359375 146.71484375 18.68359375 145.71484375 C18.68359375 149.67484375 18.68359375 153.63484375 18.68359375 157.71484375 C19.72 157.80378906 20.75640625 157.89273438 21.82421875 157.984375 C28.18654721 158.78596124 34.28060649 160.64854643 40.43359375 162.40234375 C41.63242188 162.72912109 42.83125 163.05589844 44.06640625 163.39257812 C57.40301232 167.17514047 70.04432429 172.09316529 77.35131836 184.56030273 C82.43337022 194.70513583 86.47026882 205.15342111 90.43359375 215.77734375 C91.13291654 217.63535844 91.83295688 219.49310321 92.53369141 221.35058594 C93.93063433 225.05613156 95.32382639 228.76305135 96.71386719 232.47119141 C98.49459629 237.21788853 100.29159508 241.95820338 102.09765625 246.6953125 C102.35482422 247.3702626 102.61199219 248.04521271 102.87695312 248.74061584 C103.60404249 250.64873917 104.33128279 252.55680488 105.05859375 254.46484375 C105.92198894 256.7299295 106.78409527 258.99550723 107.64453125 261.26171875 C107.99306152 262.17791992 108.3415918 263.09412109 108.70068359 264.03808594 C109.75490344 266.90904133 110.71644514 269.81339792 111.68359375 272.71484375 C130.49359375 264.29984375 130.49359375 264.29984375 149.68359375 255.71484375 C148.40615079 251.88251488 147.36391789 248.83713842 145.5546875 245.3671875 C145.15958984 244.59697266 144.76449219 243.82675781 144.35742188 243.03320312 C143.53077552 241.44128859 142.70264116 239.8501459 141.87304688 238.25976562 C137.93663904 230.57378436 137.93663904 230.57378436 137.68359375 226.71484375 C139.96070218 221.07628953 139.96070218 221.07628953 142.68359375 219.71484375 C144.8788969 219.6117682 147.07740753 219.57529692 149.27511597 219.56767273 C150.30250104 219.5621577 150.30250104 219.5621577 151.35064137 219.55653125 C153.65678272 219.54547568 155.96287905 219.54164744 158.26904297 219.5378418 C159.91800073 219.53157865 161.56695708 219.52493198 163.21591187 219.51792908 C167.70351728 219.50050762 172.19111203 219.48996458 176.67874289 219.48172355 C179.48055425 219.47657669 182.28236228 219.47050088 185.0841713 219.46421242 C193.84499142 219.44515867 202.6058031 219.43092692 211.36663997 219.42260045 C221.48990922 219.41282094 231.61296022 219.38648363 241.73615253 219.34609956 C249.5544516 219.31597706 257.37268798 219.30113533 265.19104397 219.29781944 C269.86375738 219.29546486 274.53623768 219.28645162 279.20888901 219.26135826 C283.60347585 219.23813945 287.99767508 219.23381916 292.39230728 219.24411964 C294.00642432 219.2446166 295.62056004 219.23824921 297.23461914 219.2245636 C299.43624943 219.20693835 301.63647438 219.21390276 303.83810425 219.22709656 C305.68701169 219.22351403 305.68701169 219.22351403 307.5732708 219.21985912 C311.2973238 219.8125143 312.48039936 220.69737193 314.68359375 223.71484375 C315.75634226 230.75059433 313.53177533 234.57337297 309.62109375 240.27734375 C309.08814697 241.08671387 308.5552002 241.89608398 308.00610352 242.72998047 C306.85255394 244.47963296 305.69137262 246.2242727 304.5234375 247.96435547 C301.98989528 251.7518935 299.5133513 255.57554962 297.0324707 259.39770508 C295.12393896 262.33546418 293.20766438 265.26802826 291.2890625 268.19921875 C288.15673947 272.98721002 285.03929128 277.78454719 281.93359375 282.58984375 C281.27605103 283.60715576 281.27605103 283.60715576 280.60522461 284.64501953 C279.73474774 285.99211285 278.86438525 287.33928007 277.99414062 288.68652344 C275.72582576 292.19717171 273.45452077 295.70588488 271.18359375 299.21484375 C270.2669136 300.63150169 269.35024691 302.04816834 268.43359375 303.46484375 C262.93359375 311.96484375 257.43359375 320.46484375 251.93359375 328.96484375 C251.2526062 330.017323 251.2526062 330.017323 250.55786133 331.09106445 C249.6437441 332.50373202 248.72951932 333.91633 247.81518555 335.32885742 C245.48361301 338.93113907 243.15408341 342.53471539 240.828125 346.140625 C238.12057929 350.33678705 235.40434071 354.52723206 232.68359375 358.71484375 C232.27915039 359.3392334 231.87470703 359.96362305 231.45800781 360.60693359 C230.35081347 362.3128979 229.23618361 364.01402979 228.12109375 365.71484375 C227.50105469 366.66359375 226.88101562 367.61234375 226.2421875 368.58984375 C224.68359375 370.71484375 224.68359375 370.71484375 222.68359375 371.71484375 C216.93699511 372.17827912 216.93699511 372.17827912 214.68359375 371.71484375 C211.38722495 368.87167383 209.57081046 365.96263442 207.66796875 362.07421875 C207.13945312 361.00429688 206.6109375 359.934375 206.06640625 358.83203125 C205.52757812 357.72085937 204.98875 356.6096875 204.43359375 355.46484375 C203.87929688 354.33820313 203.325 353.2115625 202.75390625 352.05078125 C201.38983871 349.27560936 200.03339168 346.49697665 198.68359375 343.71484375 C180.00982693 351.72363599 161.49323789 360.07314122 142.9727478 368.42826843 C135.67250122 371.72130822 128.36716952 375.00283054 121.05859375 378.27734375 C119.36355713 379.03688354 119.36355713 379.03688354 117.63427734 379.81176758 C106.01070121 385.0185507 94.38385808 390.21803859 82.75732422 395.41821289 C73.23075643 399.67932666 63.7059655 403.94435942 54.18359375 408.21484375 C38.31996339 415.3288597 22.44923779 422.42699546 6.57861328 429.52539062 C0.97830178 432.03025469 -4.62183484 434.53550961 -10.22189331 437.04093933 C-14.15823792 438.80202906 -18.09465562 440.56295497 -22.03125 442.32348633 C-30.97191412 446.32219296 -39.91050032 450.32548886 -48.84692383 454.33366394 C-55.21056715 457.18697882 -61.57899852 460.02945847 -67.94946289 462.86750793 C-72.48695557 464.89113355 -77.01190742 466.94007527 -81.53125 469.00390625 C-83.58446976 469.92875328 -85.63784072 470.85326475 -87.69140625 471.77734375 C-88.57562256 472.18911865 -89.45983887 472.60089355 -90.37084961 473.02514648 C-95.63629446 475.37072436 -99.54240624 476.26686353 -105.31640625 475.71484375 C-107.81640625 474.21484375 -107.81640625 474.21484375 -109.31640625 471.71484375 C-109.86326844 468.93496096 -110.04632094 466.46275788 -109.31640625 463.71484375 C-105.96039263 459.56273491 -101.84200932 457.85685874 -97.07421875 455.765625 C-96.25095596 455.39576981 -95.42769318 455.02591461 -94.57948303 454.64485168 C-91.87057322 453.43034946 -89.15609662 452.22886244 -86.44140625 451.02734375 C-84.54430268 450.17971262 -82.64757875 449.33123134 -80.7512207 448.48193359 C-76.85182606 446.73732962 -72.95015946 444.9979686 -69.04638672 443.26318359 C-63.72693307 440.89901921 -58.4131534 438.52239351 -53.1015625 436.140625 C-46.75335677 433.29486253 -40.40323077 430.45346445 -34.05078125 427.6171875 C-27.58126031 424.72841722 -21.11563541 421.83115096 -14.65234375 418.9284668 C-2.2529074 413.36030037 10.16423208 407.83298483 22.58758545 402.31842041 C39.76344004 394.69411864 56.91917897 387.02729769 74.05126953 379.30517578 C85.48307556 374.15262223 96.9235688 369.01987911 108.37109375 363.90234375 C109.16643524 363.54677399 109.96177673 363.19120422 110.78121948 362.82485962 C113.90286779 361.42930155 117.02452304 360.03375903 120.14622498 358.63832092 C127.16097967 355.5022821 134.17258876 352.35925703 141.18359375 349.21484375 C144.6796282 347.64749138 148.17573657 346.08030402 151.671875 344.51318359 C154.62771635 343.18823838 157.58340679 341.86295693 160.5390625 340.53759766 C164.89173503 338.58593971 169.24492145 336.63543144 173.59838867 334.68554688 C175.30834679 333.91946497 177.01814759 333.15303182 178.7277832 332.38623047 C181.11888654 331.31384544 183.51055011 330.24271934 185.90234375 329.171875 C186.61559814 328.85164871 187.32885254 328.53142242 188.0637207 328.20149231 C199.60267124 323.04047018 199.60267124 323.04047018 206.68359375 323.71484375 C210.81703403 326.87810771 212.72189421 331.26080655 214.93359375 335.83984375 C215.47886719 336.93232422 215.47886719 336.93232422 216.03515625 338.046875 C218.68359375 343.43335879 218.68359375 343.43335879 218.68359375 345.71484375 C219.34359375 345.71484375 220.00359375 345.71484375 220.68359375 345.71484375 C220.95888916 344.97782227 221.23418457 344.24080078 221.51782227 343.48144531 C222.60189327 340.90873481 223.80256009 338.77337281 225.3359375 336.44921875 C225.85945801 335.65040283 226.38297852 334.85158691 226.92236328 334.02856445 C227.48294434 333.18253662 228.04352539 332.33650879 228.62109375 331.46484375 C229.80488533 329.66158819 230.9884759 327.85820065 232.171875 326.0546875 C233.06060303 324.70479736 233.06060303 324.70479736 233.96728516 323.32763672 C236.43353024 319.57319078 238.87238189 315.80131874 241.30859375 312.02734375 C242.20694414 310.6379645 243.1053814 309.24864143 244.00390625 307.859375 C244.44508789 307.17697754 244.88626953 306.49458008 245.34082031 305.79150391 C247.62083304 302.26536059 249.90229581 298.74015566 252.18359375 295.21484375 C253.10026716 293.79818145 254.01693383 292.38151478 254.93359375 290.96484375 C272.80859375 263.33984375 272.80859375 263.33984375 290.68359375 235.71484375 C247.78359375 235.71484375 204.88359375 235.71484375 160.68359375 235.71484375 C163.98359375 242.31484375 167.28359375 248.91484375 170.68359375 255.71484375 C170.68359375 263.71484375 170.68359375 263.71484375 169.13476562 265.99316406 C166.06863123 268.14678754 162.87388334 269.74313338 159.46484375 271.26171875 C158.74790848 271.58955353 158.03097321 271.91738831 157.29231262 272.25515747 C154.9266697 273.33394642 152.55531939 274.39950224 150.18359375 275.46484375 C148.50907164 276.22479092 146.83484112 276.98538089 145.16088867 277.74658203 C132.65715118 283.4208622 120.11019083 288.99972284 107.55371094 294.55615234 C95.98725027 299.67615992 84.45469401 304.86862839 72.93359375 310.08984375 C69.37891844 311.70054773 65.82424061 313.31124617 62.26953125 314.921875 C61.38936844 315.32070389 60.50920563 315.71953278 59.60237122 316.13044739 C50.26145252 320.36165614 40.91090857 324.5713965 31.55859375 328.77734375 C30.32695496 329.33128815 30.32695496 329.33128815 29.07043457 329.89642334 C24.93085861 331.7581863 20.7911499 333.61965385 16.65136719 335.48095703 C9.1619813 338.84847341 1.67384765 342.21877263 -5.81439209 345.58883667 C-9.98167994 347.46428394 -14.14904706 349.33955501 -18.31640625 351.21484375 C-19.9830733 351.9648429 -21.64973996 352.7148429 -23.31640625 353.46484375 C-73.31640627 375.96484376 -73.31640627 375.96484376 -75.81587219 377.08959961 C-77.48432286 377.84040495 -79.15276971 378.59121877 -80.82121277 379.34204102 C-84.96055321 381.20478836 -89.09995751 383.06739353 -93.23950195 384.9296875 C-101.06552275 388.45063428 -108.89084567 391.97311134 -116.71408081 395.50024414 C-120.41811787 397.17012341 -124.1224974 398.83924215 -127.8269043 400.50830078 C-129.59628183 401.30577126 -131.36549064 402.10361622 -133.13452148 402.90185547 C-135.58404913 404.00712728 -138.03415001 405.11111891 -140.484375 406.21484375 C-141.20642624 406.54105713 -141.92847748 406.86727051 -142.67240906 407.20336914 C-154.20272932 412.39233679 -154.20272932 412.39233679 -161.31640625 411.71484375 C-163.81640625 410.21484375 -163.81640625 410.21484375 -165.31640625 407.71484375 C-165.86326844 404.93496096 -166.04632094 402.46275788 -165.31640625 399.71484375 C-162.18765793 395.95068913 -158.48266293 394.12131699 -154.09765625 392.16796875 C-153.37963333 391.83963547 -152.66161041 391.51130219 -151.92182922 391.17301941 C-149.55728754 390.09472653 -147.18705194 389.02964161 -144.81640625 387.96484375 C-143.15946457 387.21294822 -141.50281169 386.46041595 -139.84643555 385.70727539 C-134.67651462 383.36134306 -129.49784834 381.03520151 -124.31640625 378.71484375 C-123.48788147 378.34373474 -122.65935669 377.97262573 -121.8057251 377.590271 C-112.75376814 373.53844264 -103.69146086 369.51024437 -94.62002563 365.50222778 C-86.51280352 361.91997814 -78.41476743 358.31706948 -70.31640625 354.71484375 C-70.31640625 351.46311184 -72.53885049 349.35424473 -74.31640625 346.71484375 C-75.48305204 343.21490638 -75.49460726 340.06811181 -75.48388672 336.42602539 C-75.48211363 335.67977685 -75.48034054 334.93352831 -75.47851372 334.16466618 C-75.37825034 324.18922535 -74.48191304 314.27027543 -73.63671875 304.3359375 C-73.4617263 302.22709082 -73.28716384 300.11820842 -73.11300659 298.0092926 C-72.7493089 293.62453514 -72.38064951 289.24023222 -72.00830078 284.85620117 C-71.53270957 279.25210031 -71.06948364 273.64705704 -70.60988045 268.04162502 C-70.25267318 263.70112953 -69.88910714 259.36118463 -69.52361679 255.02137947 C-69.35027256 252.95437669 -69.17884963 250.88721181 -69.00943375 248.81988335 C-68.77200078 245.93459356 -68.52602534 243.05015298 -68.27783203 240.16577148 C-68.176409 238.90247009 -68.176409 238.90247009 -68.07293701 237.61364746 C-67.02683099 225.75559884 -67.02683099 225.75559884 -64.19140625 220.71484375 C-61.03313326 219.03043149 -57.76270906 219.19372941 -54.31640625 219.71484375 C-51.08027271 221.4573772 -50.4924531 222.18670319 -49.31640625 225.71484375 C-49.36458408 228.54752276 -49.47709688 231.33912496 -49.65209961 234.16430664 C-49.70078406 235.0085447 -49.74946852 235.85278276 -49.79962826 236.7226038 C-50.30391045 245.13071166 -50.98851036 253.52229358 -51.71850777 261.91338921 C-51.95288086 264.61053351 -52.18287973 267.30802241 -52.41184998 270.00563049 C-53.062192 277.65912983 -53.71989581 285.3119897 -54.38061523 292.96459961 C-54.78804512 297.68699477 -55.19049893 302.40979399 -55.59007072 307.13286018 C-55.74163035 308.91219582 -55.89508989 310.69137081 -56.05060005 312.47036552 C-56.72655828 320.20436905 -57.39547403 327.94662406 -57.65991211 335.70727539 C-57.69281845 336.61586807 -57.72572479 337.52446075 -57.7596283 338.46058655 C-57.48453639 340.82377066 -57.48453639 340.82377066 -55.73243713 342.59031677 C-52.339887 344.16935873 -49.90261871 343.47346562 -46.31640625 342.71484375 C-43.59217733 326.15801499 -41.12941333 309.58312512 -38.8984375 292.953125 C-38.59295707 290.693905 -38.28717984 288.43472512 -37.98112488 286.17558289 C-37.18820941 280.31776162 -36.39870786 274.45948597 -35.61016846 268.60107422 C-34.33904438 259.16203086 -33.06247715 249.72372198 -31.7860775 240.28539085 C-31.3435552 237.00951677 -30.90246545 233.73345235 -30.46162415 230.45735168 C-30.19164618 228.45634614 -29.92164328 226.45534396 -29.65161133 224.4543457 C-29.53058044 223.55206741 -29.40954956 222.64978912 -29.28485107 221.72016907 C-28.69696013 217.37146258 -28.06962485 213.03883557 -27.31640625 208.71484375 C-27.87328125 208.616875 -28.43015625 208.51890625 -29.00390625 208.41796875 C-39.76161643 206.31003905 -47.98763988 201.41877564 -54.890625 192.734375 C-61.94046632 182.12785698 -61.83791873 171.393625 -62.00390625 159.15234375 C-62.03712894 157.45895873 -62.07162307 155.76559815 -62.10742188 154.07226562 C-62.19175947 149.95326088 -62.25883366 145.83430598 -62.31640625 141.71484375 C-62.97640625 141.38484375 -63.63640625 141.05484375 -64.31640625 140.71484375 C-64.43114792 141.40670776 -64.54588959 142.09857178 -64.66410828 142.81140137 C-65.40183071 146.09507641 -66.5120879 149.04078419 -67.75317383 152.16992188 C-68.12414436 153.10994301 -68.12414436 153.10994301 -68.50260925 154.06895447 C-69.31750236 156.1298384 -70.13881116 158.18808556 -70.9609375 160.24609375 C-71.53297849 161.68423524 -72.1048912 163.12242777 -72.67668152 164.56066895 C-73.87489117 167.57113987 -75.07664081 170.58017007 -76.28051758 173.58837891 C-77.81921646 177.43487201 -79.34599739 181.28597323 -80.86975574 185.13840485 C-82.04689575 188.10910753 -83.23189824 191.07662699 -84.41910362 194.0433197 C-84.98520689 195.4615195 -85.54852829 196.88083313 -86.10895729 198.30128479 C-86.89493265 200.29083345 -87.69181013 202.27567878 -88.49145508 204.25976562 C-89.16643791 205.95256653 -89.16643791 205.95256653 -89.85505676 207.67956543 C-92.72514842 213.64085467 -96.32211879 217.15491549 -102.31640625 219.71484375 C-107.92879629 221.16990783 -112.95775009 220.87485095 -118.31640625 218.71484375 C-123.84946698 215.14481674 -127.53628 211.16780139 -129.31640625 204.71484375 C-129.93389259 198.21738772 -128.76976882 192.77542575 -126.67578125 186.66015625 C-126.25847244 185.38918846 -126.25847244 185.38918846 -125.83273315 184.09254456 C-124.92402669 181.33698519 -123.99604674 178.58840435 -123.06640625 175.83984375 C-122.42674581 173.92190608 -121.78792059 172.00368966 -121.14990234 170.08520508 C-119.84920033 166.18279264 -118.5396378 162.28350756 -117.22363281 158.38623047 C-115.72343872 153.938222 -114.24982531 149.4822182 -112.7911377 145.02044678 C-111.7619692 141.87913631 -110.71951785 138.74235097 -109.67346191 135.60662842 C-109.19447257 134.16434892 -108.71992417 132.72058507 -108.25036621 131.27520752 C-103.98058964 118.17361294 -98.38390912 106.21697891 -88.87890625 96.02734375 C-87.74873241 94.77067009 -86.61983222 93.51284985 -85.4921875 92.25390625 C-84.95029785 91.65481445 -84.4084082 91.05572266 -83.85009766 90.43847656 C-81.67312044 87.99188962 -79.61850787 85.45399375 -77.56640625 82.90234375 C-76.15185438 81.17144664 -74.73523923 79.44223334 -73.31640625 77.71484375 C-72.60226563 76.83957031 -71.888125 75.96429688 -71.15234375 75.0625 C-65.90652366 68.8991248 -60.35704289 64.68918443 -53.31640625 60.71484375 C-53.64253906 60.23015625 -53.96867187 59.74546875 -54.3046875 59.24609375 C-54.74167969 58.57578125 -55.17867188 57.90546875 -55.62890625 57.21484375 C-56.27279297 56.2403125 -56.27279297 56.2403125 -56.9296875 55.24609375 C-62.54805361 44.99059729 -63.0891155 33.49934958 -60.5078125 22.1640625 C-57.71225704 14.70602354 -53.05639444 9.14483258 -47.31640625 3.71484375 C-46.76210937 3.19019531 -46.2078125 2.66554688 -45.63671875 2.125 C-32.99115279 -8.22423184 -13.71752838 -7.61056802 0 0 Z M-40.0078125 20.7890625 C-44.41407263 27.58047768 -45.01916043 33.70955705 -44.31640625 41.71484375 C-42.56064204 48.3576714 -37.86077932 52.89469843 -32.31640625 56.71484375 C-26.31753621 59.65546632 -19.43357095 59.81368163 -13.00390625 58.09765625 C-6.87507764 55.392353 -2.07687833 50.3062068 0.85546875 44.32421875 C2.76165232 38.31794223 2.74798062 31.21192817 0.18359375 25.40234375 C-3.30158983 19.46140804 -8.75083655 14.79946084 -15.31640625 12.71484375 C-25.10270939 11.38093087 -33.53203033 12.84762987 -40.0078125 20.7890625 Z M-58.4140625 86.6171875 C-61.36486127 89.87094302 -64.11423452 93.27520682 -66.859375 96.703125 C-68.55974342 98.78736038 -70.26929958 100.81323839 -72.0546875 102.8203125 C-72.52422852 103.35446777 -72.99376953 103.88862305 -73.47753906 104.43896484 C-74.79260454 105.92952512 -76.11859006 107.41043086 -77.4453125 108.890625 C-85.74411578 119.30631013 -90.30653943 131.19677195 -94.3828125 143.69140625 C-94.91085153 145.27640856 -95.43991991 146.86106827 -95.96995544 148.44540405 C-97.0657318 151.73154039 -98.15122079 155.02082809 -99.22875977 158.31298828 C-100.60992506 162.5309502 -102.01406903 166.7408349 -103.42540073 170.94878578 C-104.51512255 174.20433515 -105.59443423 177.46325849 -106.67042351 180.7233696 C-107.18471842 182.2784463 -107.70187194 183.83258068 -108.22195625 185.38573074 C-108.94295474 187.54507917 -109.65018986 189.70845567 -110.35375977 191.87353516 C-110.75820816 193.10149811 -111.16265656 194.32946106 -111.57936096 195.59463501 C-112.27815846 198.5529255 -112.41636651 199.93711187 -111.31640625 202.71484375 C-108.88786079 202.60757446 -108.88786079 202.60757446 -106.31640625 201.71484375 C-104.77158175 199.5398978 -104.77158175 199.5398978 -103.765625 196.6796875 C-103.32226807 195.57890869 -102.87891113 194.47812988 -102.42211914 193.34399414 C-101.72010376 191.5166272 -101.72010376 191.5166272 -101.00390625 189.65234375 C-100.49732814 188.37999316 -99.98873177 187.10844454 -99.47827148 185.83764648 C-98.05155989 182.27107157 -96.64958972 178.69525034 -95.25354004 175.11657715 C-92.49917189 168.05754453 -89.72360717 161.00696122 -86.93545532 153.96121216 C-85.89203905 151.31070396 -84.86378055 148.65466463 -83.83666992 145.99780273 C-83.18591258 144.34207735 -82.53464983 142.6865505 -81.8828125 141.03125 C-81.59671112 140.27921295 -81.31060974 139.5271759 -81.01583862 138.75234985 C-78.8691261 133.35797377 -76.25987652 128.79329419 -71.40234375 125.36328125 C-65.39330292 123.49530226 -58.4242439 123.75337395 -52.75390625 126.33984375 C-48.40162124 130.58053171 -45.88893608 134.11793396 -45.76205444 140.34761047 C-45.76962265 141.37437141 -45.76962265 141.37437141 -45.77734375 142.421875 C-45.76555084 143.14670578 -45.75375793 143.87153656 -45.74160767 144.61833191 C-45.70653043 146.92155617 -45.69720418 149.22387512 -45.69140625 151.52734375 C-46.13418564 169.72254288 -46.13418564 169.72254288 -37.8515625 185.30859375 C-30.18397361 192.66947909 -19.27588299 193.40439184 -9.18900108 195.00805855 C-7.03085349 195.35126756 -4.87420404 195.70283223 -2.71772766 196.05638123 C1.85236277 196.80408761 6.42412805 197.54120524 10.99609375 198.27734375 C16.31658006 199.13487129 21.63629662 199.99681275 26.95458031 200.86790276 C29.07260008 201.21276225 31.19166089 201.5505982 33.31086731 201.88807678 C34.59958237 202.09847092 35.88829742 202.30886505 37.21606445 202.52563477 C38.34728226 202.70755875 39.47850006 202.88948273 40.64399719 203.07691956 C47.96184056 204.61272513 47.96184056 204.61272513 50.61791992 208.66856384 C51.2539653 209.93880212 51.8723638 211.2179705 52.4765625 212.50366211 C52.82038971 213.20139236 53.16421692 213.89912262 53.51846313 214.61799622 C54.26163661 216.13140202 54.99736927 217.64847944 55.72647095 219.16871452 C56.88120971 221.57577428 58.05539913 223.97241418 59.23510742 226.36732483 C61.73596844 231.45362265 64.2108998 236.55230766 66.68359375 241.65234375 C69.5495878 247.559135 72.42601462 253.46047879 75.3253479 259.35098457 C76.48098457 261.71132758 77.61907266 264.07959985 78.7565918 266.44871521 C79.46712756 267.89841704 80.17843124 269.34774283 80.890625 270.79663086 C81.20141998 271.45595612 81.51221497 272.11528137 81.83242798 272.79458618 C83.81968329 276.7818301 85.64381929 278.80895517 89.68359375 280.71484375 C91.00359375 279.72484375 92.32359375 278.73484375 93.68359375 277.71484375 C93.20040261 270.27234235 90.74581193 263.99616032 88.01953125 257.09765625 C87.31408676 255.28090897 87.31408676 255.28090897 86.59439087 253.42745972 C85.34583618 250.21234921 84.08642786 247.00160133 82.82458496 243.79168701 C81.56665269 240.58631521 80.31883608 237.37701428 79.0703125 234.16796875 C77.1525394 229.2411848 75.22653479 224.3177163 73.29516602 219.39624023 C71.68479001 215.2884133 70.09037794 211.17551952 68.52319336 207.05102539 C68.20504669 206.21751556 67.88690002 205.38400574 67.55911255 204.52523804 C66.99237176 203.03695134 66.43005073 201.54696906 65.87350464 200.05484009 C63.39125455 193.55610317 60.64803119 188.78716332 54.37402344 185.50756836 C44.03622495 181.1510313 33.2860278 178.33211787 22.48608398 175.36621094 C19.94405849 174.6651915 17.40558571 173.95230379 14.8671875 173.23828125 C14.0891124 173.02883881 13.31103729 172.81939636 12.50938416 172.60360718 C5.81827184 170.7138654 5.81827184 170.7138654 3.68359375 167.71484375 C3.29832458 164.83309937 3.29832458 164.83309937 3.28295898 161.27490234 C3.27249039 160.30106598 3.27249039 160.30106598 3.2618103 159.30755615 C3.24180466 157.15933296 3.24233357 155.01158944 3.2421875 152.86328125 C3.23041089 151.3645397 3.21704597 149.86580987 3.2021637 148.36709595 C3.16593291 144.41515005 3.14577258 140.46330775 3.13061523 136.51123047 C3.10582719 130.20743996 3.06574704 123.90387903 3.00871468 117.60029984 C2.992522 115.40855673 2.9886192 113.21703329 2.98570251 111.02523804 C2.93225177 100.88806671 2.8323024 90.62829798 -4.31640625 82.71484375 C-19.80961419 70.63539349 -45.01292008 72.8055068 -58.4140625 86.6171875 Z M18.68359375 116.71484375 C18.68359375 120.67484375 18.68359375 124.63484375 18.68359375 128.71484375 C25.24766292 129.86165911 31.81300886 131.00075113 38.37963867 132.1328125 C40.61177424 132.51872962 42.84355109 132.90672775 45.07495117 133.296875 C48.28862164 133.85838996 51.50352216 134.41232513 54.71875 134.96484375 C55.71068863 135.13983398 56.70262726 135.31482422 57.72462463 135.49511719 C62.77812919 136.35577176 67.55490305 137.02121611 72.68359375 136.71484375 C73.97992996 135.6483926 73.97992996 135.6483926 73.74609375 133.15234375 C73.72546875 132.34796875 73.70484375 131.54359375 73.68359375 130.71484375 C67.66577253 128.32776445 61.66391096 126.56655162 55.3828125 125.015625 C54.42462112 124.77571335 53.46642975 124.5358017 52.47920227 124.28862 C50.46871672 123.78641118 48.45765323 123.2865109 46.44604492 122.78881836 C43.36152266 122.02497359 40.27931442 121.25227325 37.19726562 120.47851562 C35.23841203 119.99036032 33.279432 119.50271206 31.3203125 119.015625 C30.3984465 118.78442459 29.47658051 118.55322418 28.52677917 118.3150177 C27.67191422 118.1044725 26.81704926 117.89392731 25.9362793 117.67700195 C25.1854155 117.49063675 24.4345517 117.30427155 23.66093445 117.11225891 C21.52954354 116.61632161 21.52954354 116.61632161 18.68359375 116.71484375 Z M-10.31640625 211.71484375 C-14.34517572 239.51985767 -18.27464378 267.33903404 -22.12554932 295.16921997 C-22.58637712 298.49797067 -23.05021007 301.82628217 -23.51654053 305.15426636 C-24.07160223 309.11670668 -24.62058124 313.07994301 -25.16492844 317.04386902 C-25.36889342 318.52164868 -25.57500705 319.99913349 -25.78334427 321.4763031 C-26.06904338 323.50479687 -26.34627812 325.53447747 -26.62304688 327.56420898 C-26.78180298 328.70881088 -26.94055908 329.85341278 -27.10412598 331.03269958 C-27.54635056 333.6852792 -27.54635056 333.6852792 -26.31640625 335.71484375 C-25.31416016 335.26383301 -24.31191406 334.81282227 -23.27929688 334.34814453 C-18.45833333 332.17871094 -13.63736979 330.00927734 -8.81640625 327.83984375 C-7.92715454 327.43968048 -7.03790283 327.03951721 -6.1217041 326.62722778 C4.98567708 321.62890625 16.09305827 316.63058472 27.20043945 311.63226318 C28.500177 311.04738129 28.500177 311.04738129 29.82617188 310.45068359 C33.59265137 308.75576782 33.59265137 308.75576782 37.35913086 307.06085205 C38.14102783 306.70899841 38.9229248 306.35714478 39.72851562 305.99462891 C42.79492188 304.61474609 45.86132813 303.23486328 48.92773438 301.85498047 C50.07157593 301.34025177 50.07157593 301.34025177 51.23852539 300.81512451 C52.04539795 300.45203186 52.85227051 300.08893921 53.68359375 299.71484375 C54.59359131 299.30534485 55.50358887 298.89584595 56.44116211 298.47393799 C60.95003255 296.44494629 65.45890299 294.41595459 69.96777344 292.38696289 C70.68632507 292.06361465 71.40487671 291.74026642 72.14520264 291.40711975 C72.6528717 291.17866867 73.16054077 290.95021759 73.68359375 290.71484375 C73.26851563 289.96630127 72.8534375 289.21775879 72.42578125 288.4465332 C68.0332763 280.37542022 63.93619765 272.1890093 59.94714355 263.91088486 C58.13806151 260.16349063 56.31297021 256.42384872 54.48956299 252.68340874 C52.91587214 249.45129701 51.35314356 246.2146088 49.81054688 242.9675293 C48.29558473 239.78027331 46.75350803 236.60750771 45.19219971 233.44271278 C44.32649872 231.66948745 43.48980732 229.88219294 42.65380859 228.09477234 C40.11695086 222.58583371 40.11695086 222.58583371 35.79058838 218.59075928 C33.718577 218.04218655 31.82107988 217.83854581 29.68359375 217.71484375 C28.29797772 217.46915339 26.91475577 217.20960152 25.53417969 216.93701172 C24.07935975 216.69021894 22.62392773 216.44701285 21.16796875 216.20703125 C20.38971741 216.07668488 19.61146606 215.9463385 18.80963135 215.81204224 C17.17966778 215.53993143 15.54943451 215.26943162 13.91894531 215.00048828 C11.42559537 214.58852221 8.93348336 214.16958941 6.44140625 213.75 C4.85032963 213.48526076 3.25918605 213.2209236 1.66796875 212.95703125 C0.55539703 212.7695784 0.55539703 212.7695784 -0.57965088 212.57833862 C-3.89481697 212.0358403 -6.94440958 211.71484375 -10.31640625 211.71484375 Z " fill="#000000" transform="translate(181.31640625,20.28515625)"/>
<path d="M0 0 C3.02796305 0.94380677 6.00610063 1.97843179 8.98803711 3.05859375 C10.52234375 3.58066406 10.52234375 3.58066406 12.08764648 4.11328125 C20.86976193 7.21894094 20.86976193 7.21894094 24.17553711 11.30859375 C26.03871268 18.2415223 22.75720138 25.68421208 20.42553711 32.12109375 C20.07749023 33.14396484 19.72944336 34.16683594 19.37084961 35.22070312 C17.59990677 40.22853594 16.28682237 43.76944051 12.17553711 47.30859375 C9.4333641 48.03698346 6.94724865 47.8777337 4.17553711 47.30859375 C1.6921272 45.52563279 0.52710461 44.31307231 -0.48071289 41.43359375 C-1.06691157 37.80982012 0.18470716 34.80564062 1.17553711 31.30859375 C0.40999512 31.65116211 -0.35554688 31.99373047 -1.14428711 32.34667969 C-4.03242872 33.63795145 -6.92135401 34.92745012 -9.81079102 36.21582031 C-11.6570884 37.03968517 -13.50250512 37.86552271 -15.34790039 38.69140625 C-36.84438803 48.2713627 -36.84438803 48.2713627 -43.82446289 47.30859375 C-46.32446289 45.80859375 -46.32446289 45.80859375 -47.82446289 43.30859375 C-48.37132508 40.52871096 -48.55437758 38.05650788 -47.82446289 35.30859375 C-44.53392586 31.26878833 -40.66904431 29.62365052 -35.99633789 27.63671875 C-35.24733215 27.30943787 -34.49832642 26.98215698 -33.72662354 26.6449585 C-31.3463176 25.60728098 -28.96059138 24.58280092 -26.57446289 23.55859375 C-24.95429528 22.85503176 -23.33449907 22.15061385 -21.71508789 21.4453125 C-17.75577854 19.7231314 -13.79155781 18.01275941 -9.82446289 16.30859375 C-10.62883789 15.85484375 -11.43321289 15.40109375 -12.26196289 14.93359375 C-14.82446289 13.30859375 -14.82446289 13.30859375 -15.82446289 11.30859375 C-16.39026855 4.29260359 -16.39026855 4.29260359 -14.38696289 0.80859375 C-9.85997537 -1.84135016 -4.93579475 -1.20824365 0 0 Z " fill="#000000" transform="translate(471.824462890625,152.69140625)"/>
<path d="M0 0 C3.02796305 0.94380677 6.00610063 1.97843179 8.98803711 3.05859375 C10.52234375 3.58066406 10.52234375 3.58066406 12.08764648 4.11328125 C20.86976193 7.21894094 20.86976193 7.21894094 24.17553711 11.30859375 C26.03871268 18.2415223 22.75720138 25.68421208 20.42553711 32.12109375 C20.07749023 33.14396484 19.72944336 34.16683594 19.37084961 35.22070312 C17.59990677 40.22853594 16.28682237 43.76944051 12.17553711 47.30859375 C9.4333641 48.03698346 6.94724865 47.8777337 4.17553711 47.30859375 C1.6921272 45.52563279 0.52710461 44.31307231 -0.48071289 41.43359375 C-1.06691157 37.80982012 0.18470716 34.80564062 1.17553711 31.30859375 C0.40999512 31.65116211 -0.35554688 31.99373047 -1.14428711 32.34667969 C-4.03242872 33.63795145 -6.92135401 34.92745012 -9.81079102 36.21582031 C-11.6570884 37.03968517 -13.50250512 37.86552271 -15.34790039 38.69140625 C-36.84438803 48.2713627 -36.84438803 48.2713627 -43.82446289 47.30859375 C-46.32446289 45.80859375 -46.32446289 45.80859375 -47.82446289 43.30859375 C-48.37132508 40.52871096 -48.55437758 38.05650788 -47.82446289 35.30859375 C-44.53392586 31.26878833 -40.66904431 29.62365052 -35.99633789 27.63671875 C-35.24733215 27.30943787 -34.49832642 26.98215698 -33.72662354 26.6449585 C-31.3463176 25.60728098 -28.96059138 24.58280092 -26.57446289 23.55859375 C-24.95429528 22.85503176 -23.33449907 22.15061385 -21.71508789 21.4453125 C-17.75577854 19.7231314 -13.79155781 18.01275941 -9.82446289 16.30859375 C-10.62883789 15.85484375 -11.43321289 15.40109375 -12.26196289 14.93359375 C-14.82446289 13.30859375 -14.82446289 13.30859375 -15.82446289 11.30859375 C-16.39026855 4.29260359 -16.39026855 4.29260359 -14.38696289 0.80859375 C-9.85997537 -1.84135016 -4.93579475 -1.20824365 0 0 Z " fill="#000000" transform="translate(351.824462890625,128.69140625)"/>
<path d="M0 0 C3.02796305 0.94380677 6.00610063 1.97843179 8.98803711 3.05859375 C10.52234375 3.58066406 10.52234375 3.58066406 12.08764648 4.11328125 C20.86976193 7.21894094 20.86976193 7.21894094 24.17553711 11.30859375 C26.03871268 18.2415223 22.75720138 25.68421208 20.42553711 32.12109375 C20.07749023 33.14396484 19.72944336 34.16683594 19.37084961 35.22070312 C17.59990677 40.22853594 16.28682237 43.76944051 12.17553711 47.30859375 C9.4333641 48.03698346 6.94724865 47.8777337 4.17553711 47.30859375 C1.6921272 45.52563279 0.52710461 44.31307231 -0.48071289 41.43359375 C-1.06691157 37.80982012 0.18470716 34.80564062 1.17553711 31.30859375 C0.40999512 31.65116211 -0.35554688 31.99373047 -1.14428711 32.34667969 C-4.03242872 33.63795145 -6.92135401 34.92745012 -9.81079102 36.21582031 C-11.6570884 37.03968517 -13.50250512 37.86552271 -15.34790039 38.69140625 C-36.84438803 48.2713627 -36.84438803 48.2713627 -43.82446289 47.30859375 C-46.32446289 45.80859375 -46.32446289 45.80859375 -47.82446289 43.30859375 C-48.37132508 40.52871096 -48.55437758 38.05650788 -47.82446289 35.30859375 C-44.53392586 31.26878833 -40.66904431 29.62365052 -35.99633789 27.63671875 C-35.24733215 27.30943787 -34.49832642 26.98215698 -33.72662354 26.6449585 C-31.3463176 25.60728098 -28.96059138 24.58280092 -26.57446289 23.55859375 C-24.95429528 22.85503176 -23.33449907 22.15061385 -21.71508789 21.4453125 C-17.75577854 19.7231314 -13.79155781 18.01275941 -9.82446289 16.30859375 C-10.62883789 15.85484375 -11.43321289 15.40109375 -12.26196289 14.93359375 C-14.82446289 13.30859375 -14.82446289 13.30859375 -15.82446289 11.30859375 C-16.39026855 4.29260359 -16.39026855 4.29260359 -14.38696289 0.80859375 C-9.85997537 -1.84135016 -4.93579475 -1.20824365 0 0 Z " fill="#000000" transform="translate(423.824462890625,32.69140625)"/>
</svg>
