<?xml version="1.0" encoding="UTF-8"?>
<svg version="1.1" xmlns="http://www.w3.org/2000/svg" width="512" height="512">
<path d="M0 0 C2.98513748 1.32276887 5.64987827 3.02275627 8.375 4.8125 C9.55400879 5.56019653 9.55400879 5.56019653 10.75683594 6.32299805 C13.18170777 7.86634108 15.59169246 9.43096623 18 11 C19.39271344 11.8966349 20.78591953 12.79250518 22.1796875 13.6875 C24.94950577 15.47083044 27.71272993 17.26390341 30.47265625 19.0625 C35.5220609 22.34746611 40.60339527 25.58158448 45.6875 28.8125 C46.61401367 29.40135986 47.54052734 29.99021973 48.49511719 30.59692383 C50.38644783 31.79867284 52.27788725 33.00025068 54.16943359 34.20166016 C58.78134224 37.1317377 63.39055701 40.06604578 68 43 C69.83331992 44.16668774 71.66665327 45.33335439 73.5 46.5 C101 64 101 64 128.5 81.5 C129.40830566 82.0779834 130.31661133 82.6559668 131.25244141 83.25146484 C133.07774405 84.41308005 134.90294014 85.57486273 136.72802734 86.73681641 C141.4333508 89.73218311 146.1407355 92.7242325 150.8515625 95.7109375 C177.81559633 112.81559633 177.81559633 112.81559633 181 116 C181.26742554 118.07382202 181.26742554 118.07382202 181.29052734 120.66162109 C181.30328705 121.62957611 181.31604675 122.59753113 181.32919312 123.59481812 C181.33253159 125.16823471 181.33253159 125.16823471 181.3359375 126.7734375 C181.3425943 127.84872711 181.3492511 128.92401672 181.35610962 130.03189087 C181.36624915 132.30998012 181.37092624 134.58809915 181.37060547 136.86621094 C181.37497372 140.35401375 181.41126743 143.84054669 181.44921875 147.328125 C181.45508754 149.53905816 181.45905652 151.74999735 181.4609375 153.9609375 C181.47530853 155.00583344 181.48967957 156.05072937 181.50448608 157.12728882 C181.4589558 164.33620125 181.4589558 164.33620125 179.16699219 167.65112305 C175.7894291 169.75353811 173.93827014 169.63251005 170 169 C166.50673054 167.31200177 163.33907494 165.22733182 160.125 163.0625 C159.25875 162.49853516 158.3925 161.93457031 157.5 161.35351562 C151.28931052 157.28931052 151.28931052 157.28931052 150 156 C149.99641747 157.36416786 149.99641747 157.36416786 149.99276257 158.75589466 C149.93368014 180.86346153 149.85817363 202.97091877 149.76428509 225.07836628 C149.7192796 235.76927519 149.67987598 246.46015044 149.65356445 257.15112305 C149.63062279 266.46711259 149.59726791 275.78299601 149.55129844 285.09890145 C149.52731438 290.03366094 149.50861965 294.96831499 149.50238609 299.90313148 C149.49635859 304.54475138 149.47644391 309.18610131 149.44572449 313.82762146 C149.43690664 315.53404049 149.43322938 317.24049475 149.43499184 318.94693565 C149.43663513 321.27148312 149.42002757 323.59519829 149.39872742 325.91963196 C149.39411845 327.22212544 149.38950949 328.52461893 149.38476086 329.86658192 C149 333 149 333 147.7893737 334.67224342 C145.40878357 336.43869624 143.93677701 336.37593054 140.98526001 336.37752342 C139.94308508 336.38534666 138.90091015 336.39316991 137.82715416 336.40123022 C136.67843645 336.39453805 135.52971874 336.38784589 134.34619141 336.38095093 C132.52017364 336.38797089 132.52017364 336.38797089 130.65726662 336.39513266 C127.27199193 336.40505206 123.88721418 336.40145019 120.50196934 336.39217401 C116.85365115 336.38540399 113.20537733 336.39585454 109.55706787 336.40411377 C102.4075869 336.41747526 95.25820025 336.41456265 88.10871553 336.40587585 C82.2997844 336.39910919 76.49087975 336.39817816 70.6819458 336.4014473 C69.85616079 336.401907 69.03037578 336.40236669 68.17956698 336.40284032 C66.50216277 336.40379947 64.82475856 336.40477211 63.14735436 336.4057581 C47.4068994 336.41431907 31.6664968 336.40446679 15.92605042 336.388357 C2.41096051 336.37495317 -11.10405211 336.37728107 -24.61914062 336.39111328 C-40.30208167 336.40715663 -55.98497678 336.41349503 -71.66792488 336.40427649 C-73.33926518 336.40332081 -75.01060549 336.4023777 -76.6819458 336.4014473 C-77.91554244 336.40075306 -77.91554244 336.40075306 -79.17406023 336.40004479 C-84.97809154 336.39745116 -90.78209379 336.40183392 -96.58612061 336.40888596 C-103.65632864 336.41728735 -110.72643671 336.41504961 -117.79663324 336.39904372 C-121.40610667 336.39114256 -125.01541325 336.38810057 -128.62488556 336.39799118 C-132.5320825 336.40853593 -136.43900438 336.39597175 -140.34619141 336.38095093 C-141.49490911 336.38764309 -142.64362682 336.39433526 -143.82715416 336.40123022 C-144.86932909 336.39340697 -145.91150402 336.38558373 -146.98526001 336.37752342 C-147.8877479 336.37703637 -148.79023579 336.37654931 -149.72007179 336.37604749 C-152.48106733 335.92065357 -153.37211593 335.24860339 -155 333 C-155.38476086 329.86658192 -155.38476086 329.86658192 -155.39872742 325.91963196 C-155.40869766 324.83160389 -155.40869766 324.83160389 -155.41886932 323.72159547 C-155.43756073 321.28471439 -155.43488999 318.84832166 -155.43237305 316.41137695 C-155.44138648 314.66710717 -155.45171267 312.92284374 -155.46325684 311.17858887 C-155.4909022 306.4371656 -155.50012155 301.69586227 -155.50611091 296.95436883 C-155.51547501 292.00152828 -155.54167675 287.04877801 -155.56611633 282.09599304 C-155.60983919 272.71442106 -155.63835058 263.33286653 -155.66143972 253.95122355 C-155.68846042 243.2717407 -155.73237381 232.59234841 -155.77772844 221.91293013 C-155.87065757 199.94200209 -155.9423004 177.97104694 -156 156 C-157.02480469 156.68707031 -158.04960937 157.37414062 -159.10546875 158.08203125 C-160.46610433 158.99224954 -161.82678373 159.90240233 -163.1875 160.8125 C-163.86103516 161.26431641 -164.53457031 161.71613281 -165.22851562 162.18164062 C-176.74237768 169.87627039 -176.74237768 169.87627039 -182 169 C-184.92644633 166.94786934 -186.72881257 165.31331844 -187.46954346 161.72607422 C-187.66301458 158.8685317 -187.69280675 156.0515139 -187.6640625 153.1875 C-187.66884613 152.14102295 -187.67362976 151.0945459 -187.67855835 150.01635742 C-187.68195548 147.80743911 -187.67276625 145.59847039 -187.65185547 143.38964844 C-187.62508896 140.0112279 -187.65161143 136.63612986 -187.68359375 133.2578125 C-187.68028962 131.10936768 -187.67388333 128.96092492 -187.6640625 126.8125 C-187.67418365 125.80405029 -187.68430481 124.79560059 -187.69473267 123.7565918 C-187.57812317 116.7686654 -187.57812317 116.7686654 -184.76220703 113.0246582 C-182.25573044 111.18744675 -179.79334535 109.41144086 -177.140625 107.79296875 C-176.2026709 107.21474365 -175.2647168 106.63651855 -174.29833984 106.04077148 C-173.2923877 105.42919189 -172.28643555 104.8176123 -171.25 104.1875 C-169.07995402 102.85021537 -166.91070797 101.51163196 -164.7421875 100.171875 C-163.62682617 99.48416016 -162.51146484 98.79644531 -161.36230469 98.08789062 C-155.99911203 94.75750843 -150.68631007 91.34980809 -145.375 87.9375 C-143.28260338 86.59497213 -141.19015579 85.25252369 -139.09765625 83.91015625 C-138.07945801 83.2567627 -137.06125977 82.60336914 -136.01220703 81.93017578 C-131.28556342 78.9014155 -126.54965632 75.88728258 -121.8125 72.875 C-120.91644043 72.30515381 -120.02038086 71.73530762 -119.09716797 71.14819336 C-117.29872305 70.00462933 -115.50022065 68.86115569 -113.70166016 67.71777344 C-109.13353943 64.81326436 -104.56684923 61.90650771 -100 59 C-98.16667337 57.8333228 -96.33334004 56.66665613 -94.5 55.5 C-93.5925 54.9225 -92.685 54.345 -91.75 53.75 C-81.66666667 47.33333333 -71.58333333 40.91666667 -61.5 34.5 C-60.5920166 33.92217773 -59.6840332 33.34435547 -58.74853516 32.74902344 C-56.92013828 31.58552768 -55.09168798 30.42211585 -53.26318359 29.25878906 C-47.65409407 25.69000461 -42.04694641 22.11819696 -36.44165039 18.54345703 C-33.68395316 16.78753748 -30.92216329 15.03819215 -28.16015625 13.2890625 C-24.85334824 11.19182257 -21.57140028 9.0634318 -18.30859375 6.8984375 C-17.58655762 6.42696289 -16.86452148 5.95548828 -16.12060547 5.46972656 C-14.79998847 4.60686079 -13.4869912 3.73215204 -12.18408203 2.84277344 C-7.93810504 0.09627029 -5.0091453 -0.78114261 0 0 Z M-12.375 23.625 C-13.913348 24.64560903 -15.4524471 25.66508658 -16.9921875 26.68359375 C-17.8078418 27.22612793 -18.62349609 27.76866211 -19.46386719 28.32763672 C-23.77391149 31.16974333 -28.13863591 33.92506738 -32.5 36.6875 C-40.51060601 41.77518427 -48.50919501 46.88127568 -56.5 52 C-65.22077159 57.58565688 -73.9516507 63.15504065 -82.69140625 68.7109375 C-89.63602308 73.12751396 -96.56958619 77.56117548 -103.5 82 C-114.07095702 88.77002657 -124.65641376 95.51691574 -135.25 102.25146484 C-140.0634401 105.31199911 -144.87537299 108.37490174 -149.6875 111.4375 C-151.42056633 112.54037494 -153.15363902 113.64323988 -154.88671875 114.74609375 C-155.71179932 115.28403564 -156.53687988 115.82197754 -157.38696289 116.3762207 C-160 118 -160 118 -163.06420898 119.59838867 C-168.61789097 122.42524634 -168.61789097 122.42524634 -171.86743164 127.42700195 C-172.08369468 130.17918531 -171.97009079 132.69261462 -171.6875 135.4375 C-171.63787109 136.35982422 -171.58824219 137.28214844 -171.53710938 138.23242188 C-171.40806504 140.49656336 -171.22830691 142.74407231 -171 145 C-163.48743071 140.7588 -156.20472009 136.24842513 -148.98022461 131.53955078 C-143.0523503 127.67588755 -137.09630672 123.85868619 -131.125 120.0625 C-130.19123535 119.46880615 -129.2574707 118.8751123 -128.29541016 118.26342773 C-121.59947812 114.00960291 -114.8938406 109.77127855 -108.18408203 105.53930664 C-102.11290002 101.70824259 -96.05480501 97.85688553 -90 94 C-82.40541918 89.1622837 -74.79984917 84.34256929 -67.18359375 79.5390625 C-60.18114323 75.12015382 -53.19610085 70.6741228 -46.21337891 66.22412109 C-41.75027181 63.38124233 -37.28343631 60.54474742 -32.8046875 57.7265625 C-31.98009033 57.20739258 -31.15549316 56.68822266 -30.3059082 56.15332031 C-28.70680674 55.14795975 -27.10641671 54.14464534 -25.50463867 53.14355469 C-22.08693095 50.99793482 -18.71163707 48.83122648 -15.43359375 46.4765625 C-14.40363281 45.74179688 -13.37367188 45.00703125 -12.3125 44.25 C-11.46300781 43.61578125 -10.61351562 42.9815625 -9.73828125 42.328125 C-6.0472783 40.53790959 -2.9658478 40.15648899 1 41 C4.28952125 42.53191224 7.16569718 44.53644773 10.125 46.625 C11.8961778 47.82563265 13.66834937 49.02480031 15.44140625 50.22265625 C16.35422363 50.84672363 17.26704102 51.47079102 18.20751953 52.11376953 C22.76513889 55.19229437 27.41348672 58.12459896 32.0625 61.0625 C33.91801819 62.24080757 35.77348731 63.41919241 37.62890625 64.59765625 C43.35356489 68.22610518 49.08397743 71.84541099 54.81665039 75.46118164 C61.82635082 79.88439551 68.81784173 84.33598263 75.80859375 88.7890625 C81.69766667 92.53890697 87.59478596 96.27563229 93.5 100 C101.28160185 104.90778936 109.0455087 109.84294604 116.80419922 114.78686523 C123.49486523 119.0482452 130.20340472 123.28052078 136.91748047 127.50488281 C143.91794047 131.92231715 150.85240909 136.43962499 157.76806641 140.98852539 C158.56905762 141.51309326 159.37004883 142.03766113 160.1953125 142.578125 C160.90703613 143.04637695 161.61875977 143.51462891 162.35205078 143.99707031 C163.8208486 145.08664712 163.8208486 145.08664712 165 145 C166.33588186 138.29360318 167.42172367 131.56967598 165 125 C160.06217787 119.26592733 152.72442576 116.07038926 146.10449219 112.65332031 C141.21901295 110.05152215 136.63201094 107.02300542 132 104 C130.16424447 102.82840059 128.32699934 101.65913196 126.48828125 100.4921875 C125.58029785 99.91436523 124.67231445 99.33654297 123.73681641 98.74121094 C121.02673034 97.01700632 118.31616466 95.29355817 115.60546875 93.5703125 C104.83070944 86.71930947 94.06921815 79.84796898 83.31713867 72.96142578 C76.55191813 68.62963631 69.7793407 64.30965345 63 60 C54.10777123 54.34717533 45.23062133 48.67108884 36.3581543 42.98730469 C28.27637763 37.81183862 20.18228246 32.6559763 12.078125 27.515625 C11.23378906 26.979375 10.38945312 26.443125 9.51953125 25.890625 C8.73400879 25.39369141 7.94848633 24.89675781 7.13916016 24.38476562 C5.26601754 23.17220401 3.45288829 21.90445187 1.63671875 20.609375 C-4.02663875 17.15262939 -7.58524464 20.3696372 -12.375 23.625 Z M-9.7890625 61.89453125 C-10.72153809 62.51489258 -11.65401367 63.13525391 -12.61474609 63.77441406 C-13.60812988 64.44698242 -14.60151367 65.11955078 -15.625 65.8125 C-17.71214808 67.20131535 -19.80070511 68.58801548 -21.890625 69.97265625 C-22.92638672 70.6598877 -23.96214844 71.34711914 -25.02929688 72.05517578 C-29.08972007 74.71340484 -33.21771381 77.24692677 -37.375 79.75 C-43.76841245 83.6129522 -50.07090633 87.59069357 -56.33007812 91.66723633 C-69.73495867 100.39545999 -83.27197581 108.92058314 -96.80273438 117.4519043 C-101.08061849 120.15068261 -105.3522531 122.85892032 -109.6171875 125.578125 C-110.57560547 126.18914062 -111.53402344 126.80015625 -112.52148438 127.4296875 C-114.3488975 128.59542948 -116.17577141 129.76201741 -118.00195312 130.9296875 C-118.85466797 131.47367187 -119.70738281 132.01765625 -120.5859375 132.578125 C-121.39341336 133.11181953 -122.20088923 133.64551407 -123.03283405 134.19538116 C-126 136 -126 136 -129.32058239 137.4842453 C-133.25629438 139.3950169 -135.84342879 140.95114581 -139 144 C-140.89316237 149.68329118 -140.65115043 155.13113015 -140.47583008 161.06445312 C-140.47184408 162.82758969 -140.4735894 164.59074699 -140.48057842 166.35387421 C-140.48350541 171.06246448 -140.40836157 175.76673179 -140.31664276 180.4743042 C-140.24241702 184.89673973 -140.23911347 189.31814198 -140.2298584 193.74121094 C-140.16173379 206.6613767 -139.98023658 219.5807435 -139.8125 232.5 C-139.544375 261.375 -139.27625 290.25 -139 320 C-49.24 320 40.52 320 133 320 C133.37125 291.186875 133.7425 262.37375 134.125 232.6875 C134.28887207 223.59920654 134.45274414 214.51091309 134.62158203 205.1472168 C134.68179211 196.98044611 134.68179211 196.98044611 134.71798706 188.81355286 C134.73472439 185.18201172 134.80198578 181.55523323 134.90036011 177.92500305 C136.36887482 158.9626428 136.36887482 158.9626428 131.28029633 141.34747696 C127.19073016 137.39546752 122.71514025 135.44722558 117.33083153 133.82603073 C113.40373178 132.43429348 110.1419134 130.06339646 106.75 127.6875 C105.97865723 127.18621582 105.20731445 126.68493164 104.41259766 126.16845703 C103.79433105 125.76481934 103.17606445 125.36118164 102.5390625 124.9453125 C89.8348721 116.6805465 76.99584751 108.62100083 64.17749023 100.53491211 C55.38027543 94.98296943 46.60727664 89.39307145 37.83349609 83.80419922 C34.95876397 81.97374338 32.08305006 80.14483969 29.20703125 78.31640625 C28.25852295 77.713125 27.31001465 77.10984375 26.33276367 76.48828125 C24.46511252 75.30101978 22.59680034 74.11479744 20.7277832 72.9296875 C16.67901771 70.35918279 12.64217594 67.77645548 8.6484375 65.12109375 C8.00197266 64.69417236 7.35550781 64.26725098 6.68945312 63.82739258 C5.01476017 62.71761556 3.34689866 61.597548 1.6796875 60.4765625 C-3.05325803 57.86861292 -5.63539102 59.09349048 -9.7890625 61.89453125 Z " fill="#000000" transform="translate(243,168)"/>
<path d="M0 0 C1.14001465 0.00902344 2.2800293 0.01804687 3.45458984 0.02734375 C21.75372469 0.40223 39.55036277 6.96997125 53.1875 19.4375 C54.52554688 20.63826172 54.52554688 20.63826172 55.890625 21.86328125 C70.08989646 35.26723833 79.81071223 54.03301617 80.62109375 73.76953125 C80.6447833 75.92955799 80.64561186 78.0899417 80.625 80.25 C80.61597656 81.39001465 80.60695313 82.5300293 80.59765625 83.70458984 C80.22277 102.00372469 73.65502875 119.80036277 61.1875 133.4375 C60.38699219 134.32953125 59.58648437 135.2215625 58.76171875 136.140625 C45.35776167 150.33989646 26.59198383 160.06071223 6.85546875 160.87109375 C4.69544201 160.8947833 2.5350583 160.89561186 0.375 160.875 C-0.76501465 160.86597656 -1.9050293 160.85695313 -3.07958984 160.84765625 C-21.37872469 160.47277 -39.17536277 153.90502875 -52.8125 141.4375 C-53.70453125 140.63699219 -54.5965625 139.83648437 -55.515625 139.01171875 C-69.71489646 125.60776167 -79.43571223 106.84198383 -80.24609375 87.10546875 C-80.2697833 84.94544201 -80.27061186 82.7850583 -80.25 80.625 C-80.24097656 79.48498535 -80.23195312 78.3449707 -80.22265625 77.17041016 C-79.84777 58.87127531 -73.28002875 41.07463723 -60.8125 27.4375 C-60.01199219 26.54546875 -59.21148437 25.6534375 -58.38671875 24.734375 C-42.99899265 8.43362897 -22.35087665 -0.21327808 0 0 Z M-45.328125 35.80859375 C-55.05836712 46.15111301 -60.81099628 58.42697397 -62.8125 72.4375 C-57.8625 72.4375 -52.9125 72.4375 -47.8125 72.4375 C-47.565 71.261875 -47.3175 70.08625 -47.0625 68.875 C-43.83023142 54.52191925 -39.85010942 42.00323682 -32.046875 29.43359375 C-30.79141842 27.47039179 -30.79141842 27.47039179 -29.8125 25.4375 C-35.34067217 25.4375 -41.50928295 32.20915722 -45.328125 35.80859375 Z M30.1875 25.4375 C30.70699219 26.30890625 31.22648437 27.1803125 31.76171875 28.078125 C38.44778823 39.43400868 43.3477157 50.49873279 46.1875 63.4375 C46.39375 64.34628906 46.6 65.25507813 46.8125 66.19140625 C47.28117122 68.2711348 47.73606672 70.35396177 48.1875 72.4375 C53.1375 72.4375 58.0875 72.4375 63.1875 72.4375 C60.51888384 55.94060011 53.03629761 40.72114517 39.59375 30.45703125 C35.28319404 26.90219985 35.28319404 26.90219985 30.1875 25.4375 Z M-10.37890625 27.9140625 C-22.21188867 40.65014925 -28.40061162 55.35329065 -30.8125 72.4375 C-23.2225 72.4375 -15.6325 72.4375 -7.8125 72.4375 C-7.8125 57.2575 -7.8125 42.0775 -7.8125 26.4375 C-9.04999574 26.32317825 -9.04999574 26.32317825 -10.37890625 27.9140625 Z M8.1875 26.4375 C8.1875 41.6175 8.1875 56.7975 8.1875 72.4375 C15.7775 72.4375 23.3675 72.4375 31.1875 72.4375 C28.31955095 54.27382266 23.04846465 38.32627172 8.1875 26.4375 Z M-62.8125 88.4375 C-59.49923611 106.8445216 -51.77200399 120.80829851 -36.8125 132.4375 C-34.27447929 134.22603777 -34.27447929 134.22603777 -31.8125 135.4375 C-30.8225 134.9425 -30.8225 134.9425 -29.8125 134.4375 C-30.16441406 133.9734375 -30.51632813 133.509375 -30.87890625 133.03125 C-38.4854472 122.38606475 -43.1970763 110.2015044 -45.8125 97.4375 C-46.20700416 95.68719988 -46.60271838 93.93717178 -47 92.1875 C-47.4021875 90.33125 -47.4021875 90.33125 -47.8125 88.4375 C-52.7625 88.4375 -57.7125 88.4375 -62.8125 88.4375 Z M-30.8125 88.4375 C-27.94455095 106.60117734 -22.67346465 122.54872828 -7.8125 134.4375 C-7.8125 119.2575 -7.8125 104.0775 -7.8125 88.4375 C-15.4025 88.4375 -22.9925 88.4375 -30.8125 88.4375 Z M8.1875 88.4375 C8.1875 103.6175 8.1875 118.7975 8.1875 134.4375 C22.58145102 122.92233919 28.42817437 106.06652484 31.1875 88.4375 C23.5975 88.4375 16.0075 88.4375 8.1875 88.4375 Z M48.1875 88.4375 C47.94 89.613125 47.6925 90.78875 47.4375 92 C44.20523142 106.35308075 40.22510942 118.87176318 32.421875 131.44140625 C31.16641842 133.40460821 31.16641842 133.40460821 30.1875 135.4375 C43.17756 130.86093082 51.60677618 119.4550547 57.47119141 107.59741211 C60.21688756 101.76536778 63.1875 94.99072642 63.1875 88.4375 C58.2375 88.4375 53.2875 88.4375 48.1875 88.4375 Z " fill="#000000" transform="translate(239.8125,295.5625)"/>
<path d="M0 0 C0.83694397 0.00304138 1.67388794 0.00608276 2.53619385 0.00921631 C14.81464635 0.07523423 26.49778588 0.56819172 38.25 4.4375 C38.93562012 4.65180664 39.62124023 4.86611328 40.32763672 5.08691406 C58.92705661 11.01216399 74.5225237 21.58013141 88.375 35.1875 C88.91970947 35.71819092 89.46441895 36.24888184 90.02563477 36.7956543 C93.23839018 40.04801693 95.68015716 43.06027398 97.25 47.4375 C96.85389531 52.45047488 95.00574533 56.49739417 92.7578125 60.91796875 C92.41120575 61.61263748 92.064599 62.30730621 91.70748901 63.02302551 C90.97666096 64.483029 90.2418968 65.94106816 89.50341797 67.3972168 C88.37572856 69.62356164 87.26322488 71.85702607 86.15234375 74.09179688 C85.43839021 75.51346824 84.72357571 76.93470763 84.0078125 78.35546875 C83.67645294 79.0211235 83.34509338 79.68677826 83.00369263 80.37260437 C79.91221503 86.43181203 79.91221503 86.43181203 77.25 88.4375 C73.67525344 89.36428615 71.3007008 89.84161569 67.8125 88.5 C65.5997841 86.71903355 63.81368193 84.93458897 61.875 82.875 C47.08068636 67.717121 25.13062075 58.52555706 4.08886719 58.14526367 C-7.21742322 58.07256286 -17.01574217 58.75441379 -27.75 62.4375 C-28.78898437 62.788125 -29.82796875 63.13875 -30.8984375 63.5 C-43.63104389 68.31232367 -53.88031656 76.24658661 -63.75 85.4375 C-67.01583885 88.35835588 -69.08017592 89.4185746 -73.62109375 89.546875 C-76.22353236 89.15330365 -77.39221519 88.82546381 -79.19140625 86.87451172 C-80.51876716 84.65706968 -81.61803878 82.41531467 -82.6875 80.0625 C-83.09718018 79.21921143 -83.50686035 78.37592285 -83.92895508 77.50708008 C-84.78761384 75.73069788 -85.63333244 73.94800955 -86.46679688 72.15966797 C-87.73658607 69.46595611 -89.06817898 66.8125482 -90.421875 64.16015625 C-91.26196168 62.48254363 -92.10055739 60.80418337 -92.9375 59.125 C-93.33638428 58.34398926 -93.73526855 57.56297852 -94.14624023 56.75830078 C-96.30244151 52.29053132 -97.43357782 49.36644272 -95.75 44.4375 C-94.5078125 42.48828125 -94.5078125 42.48828125 -92.875 40.75 C-92.24078125 40.07453125 -91.6065625 39.3990625 -90.953125 38.703125 C-90.22609375 37.95546875 -89.4990625 37.2078125 -88.75 36.4375 C-87.94046875 35.56609375 -87.1309375 34.6946875 -86.296875 33.796875 C-63.51301317 9.94710151 -32.40086116 -0.24976249 0 0 Z M-70.5 42.1875 C-71.27102051 42.87730957 -71.27102051 42.87730957 -72.05761719 43.58105469 C-73.9363281 45.34660574 -75.5357062 47.05225271 -76.79296875 49.3125 C-76.72174701 52.83473869 -74.94844616 55.65591616 -73.3125 58.6875 C-72.97412109 59.3371875 -72.63574219 59.986875 -72.28710938 60.65625 C-71.45213113 62.25564494 -70.60246886 63.84735859 -69.75 65.4375 C-66.65722837 64.01239935 -63.86708288 62.24549867 -61.03173828 60.36621094 C-42.26297707 47.94971613 -22.71329732 41.00728984 -0.0625 41.125 C1.07944824 41.13063965 2.22139648 41.1362793 3.39794922 41.14208984 C26.37881465 41.47062026 48.7502418 48.77567909 66.32421875 63.93359375 C68.10547626 65.64266297 68.10547626 65.64266297 70.25 65.4375 C71.45250158 63.19442972 72.6369162 60.9446209 73.8125 58.6875 C74.15474609 58.05328125 74.49699219 57.4190625 74.84960938 56.765625 C76.72421532 53.17233877 76.72421532 53.17233877 77.16796875 49.21484375 C70.048758 35.43083996 48.49806312 25.61076706 34.5625 21.125 C23.329097 17.76561967 12.33109031 17.02951126 0.6875 17.0625 C-0.44325958 17.06381424 -0.44325958 17.06381424 -1.59686279 17.06515503 C-27.57716624 17.16481666 -50.83565532 24.50492491 -70.5 42.1875 Z " fill="#000000" transform="translate(359.75,6.5625)"/>
<path d="M0 0 C4.35755438 3.30086967 8.18630364 7.09617197 12 11 C12.75925781 11.73863281 13.51851563 12.47726563 14.30078125 13.23828125 C18.85150298 17.9349179 18.85150298 17.9349179 19.453125 22.25 C18.87785163 27.01088302 17.14127341 29.83250913 14.5 33.75 C14.04802246 34.44303223 13.59604492 35.13606445 13.13037109 35.85009766 C11.77308395 37.91395707 10.39136259 39.95899757 9 42 C8.60586914 42.58555664 8.21173828 43.17111328 7.80566406 43.77441406 C1.26085086 53.43909424 1.26085086 53.43909424 -3 55 C-6.1875 55.1875 -6.1875 55.1875 -10 54 C-12.39319317 51.86506508 -14.5409123 49.57649943 -16.7265625 47.23046875 C-23.36829364 40.71426861 -31.52450183 39.51328204 -40.4765625 39.59375 C-48.9712916 40.57318661 -55.97755809 45.09905155 -61.5 51.484375 C-64.23893757 54.25184317 -66.44692739 54.968694 -70.3125 55.1875 C-75.92077799 53.38144438 -77.82815313 49.80638098 -81 45 C-81.45020508 44.3208252 -81.90041016 43.64165039 -82.36425781 42.94189453 C-94.37394757 24.76964894 -94.37394757 24.76964894 -93 18 C-91.19782495 15.06422267 -88.88440244 12.84057975 -86.375 10.5 C-85.35925903 9.52389771 -85.35925903 9.52389771 -84.32299805 8.52807617 C-61.63539031 -12.57722717 -26.38623556 -17.26840026 0 0 Z M-71.1875 19.625 C-73.17995279 21.7591613 -73.17995279 21.7591613 -73.0625 23.9375 C-71.59435626 26.78742609 -69.84475407 29.38163939 -68 32 C-63.72474951 30.35684323 -59.74213204 28.35276416 -55.6953125 26.21875 C-45.26515837 21.50250639 -32.26730664 21.26023919 -21.375 24.6875 C-17.08925611 26.33997823 -13.32342735 28.42948661 -9.62109375 31.14453125 C-8.81865234 31.56798828 -8.81865234 31.56798828 -8 32 C-3.93459004 30.64486335 -3.02699731 28.69203082 -1 25 C-1.40953955 20.47725884 -4.2424012 18.51006022 -7.55078125 15.7421875 C-26.92779455 1.95885747 -53.56354202 3.88932323 -71.1875 19.625 Z " fill="#000000" transform="translate(397,89)"/>
<path d="M0 0 C5.81354213 3.51312976 10.56861999 8.99167469 12.5625 15.5 C13.33626429 23.5345524 13.85333954 31.90607535 8.5625 38.5 C3.92600209 43.86210368 -1.45890395 46.44202042 -8.4375 47.5 C-16.05361556 47.75457768 -23.20975575 46.41866634 -28.93359375 41.11328125 C-35.04612658 34.20267291 -35.99648449 28.09128593 -35.77734375 19.1328125 C-35.02856333 11.12860796 -31.51432705 7.05673087 -25.53515625 1.9453125 C-18.47077988 -2.92213491 -7.84396301 -3.47595223 0 0 Z M-18.4375 18.5 C-18.89102711 21.67468977 -19.13261624 23.48984447 -18.4375 26.5 C-16.46678108 29.22675163 -16.46678108 29.22675163 -13.4375 30.5 C-10.28201076 30.43689022 -8.29980802 29.98864121 -5.5625 28.4375 C-3.71998091 25.26427268 -3.77696903 22.06241421 -4.4375 18.5 C-6.63462839 15.79584199 -7.99691961 15.55507255 -11.4375 15.125 C-14.87808039 15.55507255 -16.24037161 15.79584199 -18.4375 18.5 Z " fill="#000000" transform="translate(371.4375,144.5)"/>
</svg>
