<?xml version="1.0" encoding="UTF-8"?>
<svg version="1.1" xmlns="http://www.w3.org/2000/svg" width="512" height="511">
<path d="M0 0 C1.46469727 -0.01248528 1.46469727 -0.01248528 2.95898438 -0.02522278 C6.18021666 -0.04927338 9.40124609 -0.05809026 12.62255859 -0.06469727 C14.87210142 -0.07366946 17.12164366 -0.08279141 19.3711853 -0.09205627 C24.08698982 -0.10853692 28.80272344 -0.11624435 33.51855469 -0.11914062 C39.53727353 -0.12451412 45.55531796 -0.16215624 51.57384682 -0.20788479 C56.22210062 -0.23775313 60.87019422 -0.24486636 65.51853561 -0.24586678 C67.73593601 -0.25005197 69.95333764 -0.26241723 72.17064285 -0.28338432 C97.86928997 -0.50699134 97.86928997 -0.50699134 108.08349609 8.55639648 C115.78817415 17.16529104 117.80768659 25.84892068 117.55224609 37.11499023 C117.01626209 45.53568177 112.38671721 53.23694419 106.19287109 58.84155273 C97.70219376 64.91789625 89.52091658 66.3407155 79.39599609 66.31811523 C78.41115234 66.31642334 77.42630859 66.31473145 76.41162109 66.31298828 C75.29013672 66.30972534 75.29013672 66.30972534 74.14599609 66.30639648 C74.15487854 67.58711029 74.16376099 68.8678241 74.1729126 70.18734741 C74.25414261 82.28085415 74.31403079 94.37430523 74.35324478 106.4680233 C74.37408312 112.68493431 74.40233261 118.90162435 74.44775391 125.1184082 C74.49134486 131.12252589 74.51516142 137.12643157 74.52550507 143.13069534 C74.53287262 145.41673747 74.54725959 147.70276853 74.56891632 149.98871994 C74.59812577 153.20082049 74.60194469 156.41205473 74.60009766 159.62426758 C74.61447876 160.56079163 74.62885986 161.49731567 74.64367676 162.46221924 C74.57943356 172.84667383 70.84051093 180.65912364 63.70068359 188.10327148 C57.00968351 193.87349174 48.94560592 196.55662236 40.14599609 196.30639648 C30.74092262 195.36159458 21.78913295 191.86157808 15.61474609 184.47436523 C6.4516648 172.00987965 7.74249702 157.19486269 7.85302734 142.47827148 C7.85863159 140.27582083 7.86289777 138.0733664 7.8658905 135.87091064 C7.87727399 130.11042724 7.90668455 124.35017543 7.94000244 118.58978271 C7.9708442 112.69717541 7.98442583 106.80453021 7.99951172 100.91186523 C8.03156105 89.37660796 8.08267782 77.84152158 8.14599609 66.30639648 C7.4121167 66.31509766 6.6782373 66.32379883 5.92211914 66.33276367 C4.46092651 66.34291504 4.46092651 66.34291504 2.97021484 66.35327148 C2.00946045 66.36197266 1.04870605 66.37067383 0.05883789 66.37963867 C-9.38070086 66.14228542 -18.26627685 63.25417325 -25.40869141 56.91186523 C-32.14019173 49.4344419 -35.36718665 40.67775046 -35.10791016 30.66967773 C-33.99287978 20.29131812 -29.26014595 12.50950716 -21.18994141 5.95483398 C-14.41662564 0.85246836 -8.30812745 0.00604607 0 0 Z M-10.85400391 24.30639648 C-13.71935472 28.41339932 -14.34815769 31.58994562 -13.49072266 36.41186523 C-12.39415076 39.67467117 -10.55412244 41.26630693 -7.85400391 43.30639648 C-1.0644891 46.46818034 6.78367755 45.63015529 14.11279297 45.60913086 C15.19753906 45.62911133 16.28228516 45.6490918 17.39990234 45.66967773 C18.87438843 45.67414917 18.87438843 45.67414917 20.37866211 45.67871094 C24.39942103 46.59069781 25.66062084 48.00842532 28.14599609 51.30639648 C28.88204001 54.91888489 28.80545247 58.47591625 28.7578125 62.15185547 C28.76347733 63.24510132 28.76914215 64.33834717 28.77497864 65.46472168 C28.78848036 69.07766 28.76753391 72.6895957 28.74755859 76.30249023 C28.75305771 78.81446521 28.76118135 81.3264357 28.77182007 83.83839417 C28.79472733 90.45318841 28.79052396 97.06770418 28.77801514 103.68249512 C28.75824572 114.26680895 28.76964151 124.85097945 28.80387497 135.43525887 C28.80998408 139.13239808 28.79671122 142.82912316 28.78189087 146.52622986 C28.78483892 148.79466865 28.78849363 151.06310667 28.79296875 153.33154297 C28.77903328 154.87235283 28.77903328 154.87235283 28.76481628 156.44429016 C28.79483711 161.82316782 29.08391757 165.67742526 32.14599609 170.30639648 C35.26075457 173.33918763 37.73398354 175.20134857 42.14599609 175.30639648 C46.7693772 173.92749335 49.74955027 172.39990609 52.34217453 168.24674988 C54.04214545 164.14317206 53.69500929 159.72143638 53.66015625 155.34741211 C53.67084389 153.7073243 53.67084389 153.7073243 53.68174744 152.03410339 C53.7010162 148.42676686 53.69275089 144.82001735 53.68505859 141.21264648 C53.69496489 138.70209903 53.70690587 136.19155885 53.72079468 133.68103027 C53.74986277 127.74909866 53.76274476 121.81728856 53.76637113 115.88530016 C53.77341975 104.63630708 53.80882722 93.38747663 53.85981369 82.13859558 C53.87240233 78.44598313 53.87164041 74.75354266 53.86953735 71.06091309 C53.87611816 68.79573433 53.88312452 66.53055676 53.890625 64.26538086 C53.88650101 63.23974533 53.88237701 62.2141098 53.87812805 61.15739441 C53.93111984 51.80134502 53.93111984 51.80134502 56.14599609 47.30639648 C59.28173136 46.2611514 61.58799716 46.15165516 64.88037109 46.09545898 C66.01216797 46.06709961 67.14396484 46.03874023 68.31005859 46.00952148 C70.68490762 45.95778185 73.05992957 45.91341076 75.43505859 45.87670898 C83.02029317 45.67030804 88.67918022 45.32874878 94.58349609 40.18139648 C96.76062432 36.17548055 96.96459364 32.77221082 96.14599609 28.30639648 C94.08761085 24.97039281 92.40666969 23.48017888 89.14599609 21.30639648 C86.12166181 21.10596533 83.18915396 21.02312083 80.1640625 21.03173828 C78.78556877 21.02407188 78.78556877 21.02407188 77.37922668 21.01625061 C74.33527143 21.00232817 71.29154195 21.00331354 68.24755859 21.00561523 C66.1339001 21.00172944 64.02024239 20.99739502 61.90658569 20.99263 C57.47301708 20.98516185 53.03952808 20.98546316 48.60595703 20.99072266 C42.92404535 20.99651462 37.24245993 20.97959565 31.56060219 20.95637798 C27.1940012 20.94164557 22.82747883 20.94076834 18.46085739 20.94388771 C16.36608611 20.94337414 14.27131048 20.93812969 12.17656326 20.92807579 C9.24639966 20.91573996 6.31687217 20.92248636 3.38671875 20.93408203 C2.5210881 20.92643829 1.65545746 20.91879456 0.76359558 20.91091919 C-3.93011214 20.9519765 -7.05430843 21.24244963 -10.85400391 24.30639648 Z " fill="#000000" transform="translate(394.85400390625,158.693603515625)"/>
<path d="M0 0 C21.7497151 -0.68344761 42.60997878 7.00092933 58.98828125 21.12109375 C59.973125 21.90613281 60.95796875 22.69117188 61.97265625 23.5 C78.32804212 37.71562684 87.33470585 59.81290616 88.88623047 81.02539062 C90.11510641 106.26144592 81.19574731 127.52307891 64.9453125 146.5078125 C50.58886632 161.94166552 29.74785354 171.5000125 8.74609375 172.40234375 C-16.67337335 173.03887663 -38.90565339 166.00130381 -57.734375 148.43920898 C-72.17468 134.43598782 -82.63204033 113.2398886 -83.21484375 92.99609375 C-83.57714432 65.87201147 -76.27389211 44.08572278 -57.44921875 24.12109375 C-41.96796525 8.99275637 -21.38164426 1.28705043 0 0 Z M-45.7265625 42.45703125 C-59.2023646 58.16728259 -63.31074771 75.97288951 -62.01171875 96.12109375 C-59.9743557 112.27182632 -50.52285844 126.93225782 -38.32421875 137.37109375 C-22.9086566 148.99242311 -5.02391631 153.42762556 14.03027344 150.84423828 C30.77679984 147.88822899 45.13175039 138.1286811 55.30078125 124.68359375 C65.61879727 109.72663101 70.15183006 93.05527412 66.86328125 74.93359375 C64.5422177 63.54887295 60.0789305 54.2739005 52.98828125 45.12109375 C52.34503906 44.280625 51.70179688 43.44015625 51.0390625 42.57421875 C40.15958344 29.56028951 23.50133489 22.78627563 6.98828125 21.12109375 C-13.3619778 20.29082082 -31.70242997 27.74391598 -45.7265625 42.45703125 Z " fill="#000000" transform="translate(223.01171875,169.87890625)"/>
<path d="M0 0 C7.91318789 6.46906794 13.1108949 14.71407488 14.55758858 24.97792244 C14.73565899 28.517988 14.76245266 32.02618617 14.72875977 35.57055664 C14.73391266 36.91407715 14.74120418 38.25759085 14.7504425 39.60108948 C14.76878944 43.21283266 14.75612636 46.82382752 14.73635221 50.43553853 C14.71982787 54.23669081 14.72879743 58.03780077 14.73387146 61.838974 C14.73837663 68.21804601 14.72261979 74.59682329 14.69458008 80.97583008 C14.6625214 88.32529166 14.66255433 95.67422244 14.67979485 103.02372175 C14.69571918 110.1283279 14.68888949 117.23274155 14.67185783 124.3373394 C14.66502898 127.34546547 14.66597645 130.35343528 14.67340279 133.36155891 C14.68112684 136.91019862 14.66874329 140.4582422 14.64155388 144.00678062 C14.6315082 145.91178406 14.64078815 147.81685959 14.65087891 149.72186279 C14.52179336 161.47886387 11.49833577 171.23148038 3.09765625 179.71484375 C-5.61779315 186.87844155 -15.32226828 190.38995698 -26.6328125 189.5 C-36.58409001 188.0262565 -46.18324326 183.75575617 -52.4921875 175.6796875 C-59.12173512 166.22974553 -60.34542021 158.54907728 -60.29052734 147.17382812 C-60.29459872 145.81618326 -60.29994376 144.45854171 -60.30645752 143.10090637 C-60.32006982 139.43352102 -60.31485787 135.76639042 -60.30532026 132.09900093 C-60.29769193 128.24970978 -60.30477805 124.40043953 -60.30947876 120.55114746 C-60.31492711 114.08858347 -60.30776895 107.62612254 -60.29345703 101.16357422 C-60.27713224 93.70628967 -60.2824214 86.24925123 -60.29893625 78.79197264 C-60.31257744 72.37388369 -60.31445794 65.95586856 -60.30662024 59.53776979 C-60.30195816 55.71127066 -60.30127833 51.88488697 -60.31122971 48.05839539 C-60.31993558 44.45986677 -60.31381204 40.86165356 -60.29654694 37.2631588 C-60.29072848 35.3229299 -60.29956666 33.38267414 -60.30892944 31.44245911 C-60.22978476 20.50555929 -57.49016289 11.67228517 -49.89453125 3.57421875 C-35.87503026 -9.61485883 -15.82226298 -11.41323732 0 0 Z M-35.65234375 19.40234375 C-40.74348418 26.07478568 -40.19517211 34.60396704 -40.17700195 42.58764648 C-40.18211288 43.7545401 -40.18722382 44.92143372 -40.19248962 46.12368774 C-40.20634336 49.96532376 -40.2054321 53.80677954 -40.203125 57.6484375 C-40.20603032 59.65046077 -40.20894079 61.65248411 -40.21253175 63.65450627 C-40.22359852 69.94327307 -40.22408016 76.23198014 -40.21801758 82.52075195 C-40.21197796 88.98849661 -40.22429485 95.45602371 -40.24558765 101.92373127 C-40.26325162 107.49597565 -40.26919753 113.06815108 -40.2659499 118.6404224 C-40.26414472 121.96004702 -40.26802728 125.27948271 -40.28066444 128.59908867 C-40.29303822 132.30377721 -40.28623104 136.0079656 -40.2746582 139.71264648 C-40.28230194 140.79916 -40.28994568 141.88567352 -40.29782104 143.00511169 C-40.24448978 150.75219558 -39.55475552 157.59825992 -34.40234375 163.65234375 C-30.14963067 167.16083204 -27.4193797 168.34704135 -21.90234375 168.71484375 C-16.33263813 167.75454968 -13.51790174 166.0334269 -9.90234375 161.71484375 C-7.34426379 158.04370795 -6.52595044 155.60656511 -6.5146637 151.14271545 C-6.50475906 150.03384476 -6.49485443 148.92497406 -6.48464966 147.78250122 C-6.48915131 146.57560638 -6.49365295 145.36871155 -6.49829102 144.12524414 C-6.48799614 142.20739861 -6.48799614 142.20739861 -6.47749329 140.25080872 C-6.45957126 136.75074065 -6.46072839 133.25092341 -6.46643567 129.75082326 C-6.46952903 126.82588827 -6.46343343 123.90100135 -6.45739692 120.97607321 C-6.44335638 114.07425867 -6.44490894 107.17256792 -6.45629883 100.27075195 C-6.4677791 93.15709451 -6.45370514 86.04381412 -6.42690235 78.93020636 C-6.4047309 72.81623498 -6.39811122 66.70238184 -6.40397877 60.58837312 C-6.4073462 56.93957676 -6.40494783 53.29102206 -6.38772774 49.6422596 C-6.36935875 45.57254358 -6.38346038 41.50355909 -6.40063477 37.43383789 C-6.38613281 35.62653198 -6.38613281 35.62653198 -6.37133789 33.78271484 C-6.42725723 27.46136753 -6.58271713 23.48249311 -10.90234375 18.71484375 C-15.42499965 14.63342257 -18.69380728 13.39119839 -24.84765625 13.50390625 C-29.56895907 13.98860274 -32.33954276 16.16483369 -35.65234375 19.40234375 Z " fill="#000000" transform="translate(59.90234375,165.28515625)"/>
<path d="M0 0 C3.62291705 2.0127317 4.78765675 3.53107532 6.5 7.3125 C7.08989068 11.66294376 6.15072128 14.30243713 4 18 C2.11809495 20.1072829 0.35363096 21.90521919 -1.75 23.75 C-2.31783203 24.25950195 -2.88566406 24.76900391 -3.47070312 25.29394531 C-40.06393648 57.52704912 -88.19631912 74.2753071 -136.8815918 71.60791016 C-168.83427799 69.43877455 -204.60372562 60.44690328 -229.828125 39.48046875 C-231.99349423 36.74488562 -232.1054277 33.36709715 -232 30 C-230.32427902 25.81069754 -228.1069779 23.81471117 -224 22 C-217.55604896 20.90763505 -212.85403215 24.51585367 -207.5 27.625 C-205.51404657 28.7385368 -203.52576774 29.84793672 -201.53515625 30.953125 C-200.57754395 31.48486328 -199.61993164 32.01660156 -198.63330078 32.56445312 C-164.82903372 50.99288724 -120.82328871 54.55192174 -84.00537109 44.15429688 C-60.15431452 37.11885135 -38.88929971 26.259502 -20 10 C-17.98387043 8.32764637 -15.96309173 6.66088027 -13.9375 5 C-13.03902344 4.2575 -12.14054688 3.515 -11.21484375 2.75 C-7.38940114 -0.27257194 -4.87728693 -0.4133294 0 0 Z " fill="#000000" transform="translate(352,368)"/>
<path d="M0 0 C0.97259766 0.45906738 1.94519531 0.91813477 2.94726562 1.39111328 C16.68159382 8.05068764 16.68159382 8.05068764 18.875 12.4375 C19.43012815 17.06963493 19.5114242 20.41922127 17 24.4375 C13.8014599 27.44789068 11.53623126 27.81680579 7.13574219 27.75439453 C2.94734359 27.16729503 -0.39465705 24.98031801 -4 22.875 C-19.70843985 14.20790436 -35.54917618 8.95339119 -53.125 5.4375 C-54.35089844 5.19 -55.57679688 4.9425 -56.83984375 4.6875 C-90.17595023 -0.81123921 -124.08643282 5.64757493 -154.125 20.4375 C-155.28515625 21.00339844 -156.4453125 21.56929687 -157.640625 22.15234375 C-169.19398312 28.08250945 -179.36666658 35.59209009 -188.8828125 44.390625 C-198.94022003 53.57195174 -198.94022003 53.57195174 -205.125 53.4375 C-208.68465681 52.18115054 -210.61984296 51.06052702 -213 48.125 C-214.36333511 44.86814391 -214.62547119 42.94079831 -214.125 39.4375 C-198.1332642 12.39156894 -157.74565575 -5.47053699 -128.75927734 -12.93359375 C-84.81802376 -23.4241099 -40.82651052 -19.27346151 0 0 Z " fill="#000000" transform="translate(307.125,91.5625)"/>
<path d="M0 0 C5.44478179 1.6004102 9.36962734 6.03012323 13.51171875 9.73828125 C37.58967405 29.41132863 66.56578327 37.98426992 97.51171875 35.73828125 C122.06396735 33.22634964 145.49872745 23.21401917 163.1796875 5.8671875 C167.4877254 1.93438908 170.79089161 0.16714096 176.578125 0.375 C179.65244558 0.95259962 181.37774044 2.53963693 183.51171875 4.73828125 C185.25324673 8.2213372 185.08879313 11.93754998 184.51171875 15.73828125 C182.44921875 18.36328125 182.44921875 18.36328125 179.51171875 20.73828125 C178.57177754 21.77774564 177.6345409 22.81965864 176.69921875 23.86328125 C152.43587658 48.02135946 116.56746226 58.01879836 83.28442383 57.98486328 C51.65860696 57.65039249 22.61431915 46.04336583 -1.48828125 25.73828125 C-2.33132812 25.0421875 -3.174375 24.34609375 -4.04296875 23.62890625 C-4.84992188 22.943125 -5.656875 22.25734375 -6.48828125 21.55078125 C-7.21015625 20.93847656 -7.93203125 20.32617188 -8.67578125 19.6953125 C-11.72831094 16.39936989 -12.50527609 13.6899923 -12.42578125 9.23828125 C-10.63968798 2.5701997 -6.8093173 -0.39392745 0 0 Z " fill="#000000" transform="translate(139.48828125,333.26171875)"/>
<path d="M0 0 C2.90000876 2.92540288 3.42999359 4.54681836 3.60546875 8.5625 C3.55287277 12.1916224 3.31684553 13.12436105 1.16796875 16.25 C-2.36897567 18.65813237 -4.49516531 19.25 -8.76953125 19.25 C-13.01693995 17.45627362 -15.9975817 15.33934481 -19.26953125 12.125 C-41.32609334 -8.2145842 -71.42890113 -17.67026971 -101.12109375 -16.625 C-119.67114882 -15.52606714 -136.67358798 -9.88047406 -152.76953125 -0.75 C-153.775 -0.18410156 -154.78046875 0.38179687 -155.81640625 0.96484375 C-161.95252829 4.64825034 -167.04269067 9.02596773 -172.1640625 14.015625 C-176.04598317 17.34464843 -179.17043358 19.25 -184.33203125 19.25 C-188.53225011 18.02811815 -190.17489774 16.76038651 -192.76953125 13.25 C-193.85739911 9.44246247 -194.34048562 7.36185851 -192.5078125 3.79296875 C-186.21268429 -5.4163087 -176.90089334 -11.63686258 -167.76953125 -17.75 C-166.93679687 -18.3171875 -166.1040625 -18.884375 -165.24609375 -19.46875 C-149.39446244 -29.63976258 -129.38856116 -35.74522822 -110.76953125 -37.75 C-109.1453125 -37.93369141 -109.1453125 -37.93369141 -107.48828125 -38.12109375 C-67.23072762 -41.86061421 -29.1699686 -27.46447657 0 0 Z " fill="#000000" transform="translate(320.76953125,159.75)"/>
<path d="M0 0 C8.98090564 6.54109294 14.26724087 14.55403992 16.53125 25.45703125 C17.47099695 36.68777753 15.6095208 46.44832296 8.53125 55.45703125 C6.09375 58.08203125 6.09375 58.08203125 3.53125 60.45703125 C2.809375 61.13765625 2.0875 61.81828125 1.34375 62.51953125 C-7.5510854 68.64708453 -17.89840507 70.52905733 -28.53125 68.89453125 C-39.59581042 66.19499163 -47.61253315 59.89356631 -53.77734375 50.453125 C-58.58790867 41.73067212 -59.36250732 32.13352027 -57.46875 22.45703125 C-53.81981972 10.84807931 -47.9752636 3.56654577 -37.46875 -2.54296875 C-25.41686933 -8.16322181 -11.16368461 -6.97730288 0 0 Z M-34.84375 22.14453125 C-37.20500642 26.95786164 -38.38203334 31.4109627 -36.8046875 36.671875 C-34.30272686 42.133472 -31.13492844 45.21281465 -25.65625 47.76953125 C-21.65349451 48.63287067 -18.32754657 48.817689 -14.46875 47.45703125 C-10.56806242 44.89548817 -7.41925271 42.00159816 -4.96875 38.01953125 C-3.85578205 32.3155705 -3.65033421 28.29601737 -6.53125 23.20703125 C-9.22098666 19.37961886 -11.97718591 16.89433176 -16.46875 15.45703125 C-24.23508207 14.13510239 -29.60083756 16.21176191 -34.84375 22.14453125 Z " fill="#000000" transform="translate(246.46875,224.54296875)"/>
<path d="M0 0 C2.52168469 1.94529962 3.98976082 3.57599769 4.55859375 6.7734375 C4.68912 11.2727541 4.6952538 13.06257224 1.75 16.6875 C0.904375 17.3475 0.05875 18.0075 -0.8125 18.6875 C-1.1425 19.0175 -1.4725 19.3475 -1.8125 19.6875 C-6.72168271 20.18673892 -8.89892608 20.20242348 -13.25 17.75 C-16.5480565 13.80842028 -17.21809141 10.76661066 -16.8125 5.6875 C-15.60524538 2.70113331 -14.61429008 1.28884256 -12.0625 -0.625 C-7.72512545 -1.95030889 -4.11709119 -1.92130922 0 0 Z " fill="#000000" transform="translate(109.8125,369.3125)"/>
<path d="M0 0 C3.41421647 2.36904816 4.64346607 3.97496494 6 7.875 C6 12.0430077 5.15607248 14.42900496 3 18 C-0.9794887 20.52544475 -3.01394307 21.15041546 -7.6875 20.4375 C-13.05825243 18.10679612 -13.05825243 18.10679612 -15 15 C-15.89776839 9.99451777 -15.76303108 6.27171847 -13.125 1.875 C-8.72313726 -0.76611764 -5.00852491 -1.01979818 0 0 Z " fill="#000000" transform="translate(353,124)"/>
</svg>
