<?xml version="1.0" encoding="UTF-8"?>
<svg version="1.1" xmlns="http://www.w3.org/2000/svg" width="512" height="512">
<path d="M0 0 C1.52633057 -0.00744736 1.52633057 -0.00744736 3.08349609 -0.01504517 C6.41398821 -0.02952659 9.74443289 -0.03644131 13.07495117 -0.04199219 C14.21795874 -0.04481956 15.3609663 -0.04764694 16.53861046 -0.05056 C22.57440798 -0.06548723 28.61018196 -0.07476045 34.64599609 -0.07910156 C40.87808692 -0.08461037 47.10996193 -0.10870731 53.34198475 -0.13707352 C58.14176577 -0.15567592 62.94149419 -0.16090398 67.74130821 -0.16243744 C70.03983441 -0.16546441 72.33835966 -0.1734944 74.63685036 -0.18662262 C77.84400762 -0.20365008 81.05062856 -0.20181203 84.2578125 -0.1953125 C85.20595322 -0.20452728 86.15409393 -0.21374207 87.13096619 -0.22323608 C92.0059498 -0.19224021 95.37042184 -0.05427317 99.30541992 3.16113281 C101.46774873 5.91996612 102.24484755 7.67655385 102.68041992 11.16113281 C102.24916762 14.61115124 101.43390477 16.42450944 99.30541992 19.16113281 C96.42679394 20.92519328 94.26814764 21.41216795 90.91462708 21.41941833 C89.60538017 21.42966034 89.60538017 21.42966034 88.26968384 21.44010925 C87.31959442 21.4375563 86.369505 21.43500336 85.390625 21.43237305 C83.87989159 21.44021317 83.87989159 21.44021317 82.33863831 21.44821167 C80.14955517 21.4584559 77.96044764 21.46423281 75.77134132 21.46609306 C72.29232637 21.46976096 68.81359545 21.48650509 65.3346405 21.5068512 C55.44189784 21.56218467 45.54911148 21.59276561 35.65625 21.61743164 C29.60202396 21.63343521 23.54799483 21.66379924 17.49387169 21.70219612 C15.19971519 21.71374818 12.90552324 21.7197756 10.61133766 21.71987724 C-18.15055769 21.72161167 -42.76499455 26.600606 -65.69458008 45.16113281 C-66.48735352 45.78761719 -67.28012695 46.41410156 -68.09692383 47.05957031 C-85.47354526 61.53499836 -96.53234457 83.96130604 -99.69458008 106.16113281 C-101.72000747 134.13036247 -96.50655892 158.76854282 -78.53833008 180.80566406 C-61.25863093 200.61038967 -38.17818869 213.93022642 -11.69458008 216.16113281 C-3.3308963 216.52163493 5.04959069 216.39448715 13.41870117 216.35644531 C15.84392683 216.35270929 18.269154 216.3498651 20.69438171 216.34786987 C27.03840393 216.34027984 33.38233273 216.32067167 39.72631836 216.29846191 C46.21556332 216.27790314 52.70482357 216.26884681 59.1940918 216.25878906 C71.8979074 216.23742096 84.60165866 216.20373304 97.30541992 216.16113281 C97.14460937 215.37867188 96.98379883 214.59621094 96.81811523 213.79003906 C95.88348578 208.99761526 95.58501263 204.81806958 97.55541992 200.28613281 C99.78087626 197.58379297 101.79465304 196.35884053 105.29109669 195.90127563 C111.32841577 195.95909407 117.01948197 196.831059 122.93505859 197.99707031 C125.06372278 198.40159931 127.19240081 198.80605546 129.3210907 199.21044922 C130.44233526 199.4264679 131.56357983 199.64248657 132.7188015 199.86505127 C138.8014036 201.02978817 144.89310088 202.14551298 150.9831543 203.27050781 C158.66727623 204.6930783 166.34832599 206.12792165 174.02001953 207.61621094 C201.3771318 212.90754057 228.04944791 217.10143891 255.98120117 216.97363281 C257.09908712 216.96962463 258.21697308 216.96561646 259.36873436 216.96148682 C290.82590433 216.7083817 318.35716364 209.62242345 341.30541992 187.16113281 C360.40650747 167.19181401 368.99018924 142.36192919 368.77783203 115.05053711 C368.54034928 105.84953655 367.37082897 97.85123323 364.30541992 89.16113281 C364.09643066 88.53883789 363.88744141 87.91654297 363.67211914 87.27539062 C355.46730698 63.12189864 337.89698558 43.63746917 315.1809082 32.07226562 C296.90315018 23.19272996 278.35643074 21.72143674 258.29472923 21.78100777 C254.89342716 21.79025649 251.4926601 21.7797448 248.09138489 21.76438904 C238.43674312 21.72462989 228.78215158 21.72310154 219.12744141 21.7253418 C213.18678182 21.72539282 207.24641955 21.706285 201.30584145 21.67600822 C197.95924774 21.66519531 194.61322259 21.67729481 191.26664734 21.68983459 C189.22251824 21.68093543 187.1783938 21.67086289 185.13427734 21.65942383 C184.20805573 21.66916733 183.28183411 21.67891083 182.32754517 21.68894958 C178.12159632 21.64188773 175.89319687 21.52825573 172.25361633 19.25498962 C169.26145607 16.03911513 168.90980884 13.67422941 168.94995117 9.26660156 C169.58495219 5.50544166 171.58164311 3.75822233 174.30541992 1.16113281 C177.03407692 0.25158048 178.63512693 0.03211533 181.44187927 0.02069092 C182.70469727 0.0121257 182.70469727 0.0121257 183.99302673 0.00338745 C184.91394608 0.00226959 185.83486542 0.00115173 186.78369141 0 C187.7566214 -0.0049649 188.72955139 -0.00992981 189.73196411 -0.01504517 C192.96348781 -0.02969023 196.19496217 -0.03647813 199.42651367 -0.04199219 C201.68359884 -0.04774846 203.940684 -0.05350613 206.19776917 -0.05926514 C210.94499946 -0.06978637 215.6922128 -0.07561947 220.43945312 -0.07910156 C226.46961348 -0.08454213 232.49954295 -0.10846906 238.52963161 -0.13707352 C243.20307521 -0.15588436 247.87646571 -0.16091553 252.54994392 -0.16243744 C254.76908675 -0.1654309 256.9882294 -0.17334485 259.20733452 -0.18662262 C297.27331681 -0.3978374 329.8308006 8.87541197 357.55541992 35.97363281 C363.6883888 42.17264648 368.82457611 48.65375414 373.30541992 56.16113281 C373.68537109 56.7935791 374.06532227 57.42602539 374.45678711 58.07763672 C385.67520557 77.10640505 390.71443959 96.90420063 390.61791992 118.97363281 C390.6151857 119.96533981 390.6151857 119.96533981 390.61239624 120.9770813 C390.56702036 130.75211057 390.13609196 139.7559967 387.30541992 149.16113281 C386.96510742 150.36769531 386.62479492 151.57425781 386.27416992 152.81738281 C376.96960959 183.24580984 356.22900791 208.86143774 328.27612305 224.125 C317.804848 229.63046225 306.95665643 233.91098215 295.30541992 236.16113281 C294.385271 236.34426025 293.46512207 236.5273877 292.51708984 236.71606445 C285.15079313 237.98255055 278.13996425 238.25271777 270.68432617 238.11816406 C240.65124301 237.18430322 240.65124301 237.18430322 214.48144531 250.52954102 C211.57047171 252.71219967 208.4866612 254.39585156 205.30541992 256.16113281 C205.79179428 256.6341835 206.27816864 257.10723419 206.77928162 257.59461975 C211.84202261 262.52454015 216.8834539 267.47551916 221.91308594 272.43920898 C223.79247478 274.2884394 225.67721545 276.13224712 227.56738281 277.97045898 C230.28472022 280.61495318 232.98216162 283.27840471 235.67651367 285.94628906 C236.52442978 286.76323746 237.37234589 287.58018585 238.24595642 288.42189026 C241.66633866 291.8402871 243.99500367 294.22469502 245.53222656 298.86206055 C244.99913927 306.61621399 239.96067617 310.93665486 234.71557617 316.11425781 C233.97464218 316.85569031 233.23370819 317.5971228 232.47032166 318.36102295 C230.90796291 319.9210483 229.34192734 321.47739895 227.77246094 323.03027344 C225.3708601 325.40822159 222.98291643 327.79927077 220.59643555 330.19238281 C219.07444055 331.70880259 217.55167988 333.22445437 216.02807617 334.73925781 C215.31442398 335.45382141 214.60077179 336.16838501 213.86549377 336.90460205 C213.19477341 337.56579041 212.52405304 338.22697876 211.83300781 338.90820312 C211.24693253 339.48967102 210.66085724 340.07113892 210.05702209 340.67022705 C206.82342688 343.42255621 204.85142866 344.15203267 200.55541992 344.22363281 C197.01272458 343.66676271 195.14603464 342.46329534 192.51245117 340.0612793 C191.81748535 339.4289035 191.12251953 338.79652771 190.40649414 338.14498901 C187.1285301 335.04990116 183.91777977 331.89688138 180.74291992 328.69628906 C179.7277832 327.67902992 179.7277832 327.67902992 178.69213867 326.64122009 C176.56084318 324.50438976 174.43307774 322.36408458 172.30541992 320.22363281 C170.84862213 318.76181158 169.39159291 317.30022094 167.93432617 315.83886719 C164.38868019 312.28227881 160.84619253 308.72257265 157.30541992 305.16113281 C154.36352826 308.64781922 152.1078337 312.12311128 149.99291992 316.16113281 C149.3922168 317.29550781 148.79151367 318.42988281 148.17260742 319.59863281 C147.54959985 320.78581199 146.92720887 321.97331493 146.30541992 323.16113281 C145.08225572 325.49777183 143.85220448 327.83029502 142.61791992 330.16113281 C142.07780273 331.19238281 141.53768555 332.22363281 140.98120117 333.28613281 C136.83753881 340.39507337 136.83753881 340.39507337 133.30541992 342.16113281 C131.31713867 342.39941406 131.31713867 342.39941406 128.99291992 342.47363281 C128.23366211 342.51101563 127.4744043 342.54839844 126.69213867 342.58691406 C123.14139356 341.95347508 121.81308482 340.78879339 119.30541992 338.16113281 C118.05629263 334.80042903 117.51325516 331.34876751 116.91870117 327.82128906 C116.71948563 326.73880386 116.52027008 325.65631866 116.3150177 324.54103088 C115.74953484 321.43927088 115.20388743 318.33470223 114.66596222 315.22806549 C114.15830685 312.31775657 113.63486177 309.41035298 113.11195183 306.5027523 C111.3530487 296.72129102 109.63983669 286.93207281 107.93579102 277.14093018 C107.18690074 272.84193259 106.43446427 268.54355571 105.68237305 264.24511719 C104.22002101 255.88437465 102.76143763 247.52298079 101.30541992 239.16113281 C100.73540851 239.15874446 100.16539709 239.15635611 99.5781126 239.15389538 C85.61815533 239.09439622 71.65836242 239.01862884 57.69858837 238.9254179 C50.94734968 238.88071927 44.1961607 238.84124738 37.44482422 238.81469727 C30.91537346 238.78846765 24.38614689 238.74792963 17.85683632 238.69794655 C15.38012824 238.68140968 12.9033815 238.66981417 10.42662621 238.66351891 C-27.37484541 238.55782406 -58.60926488 230.64288189 -86.69458008 204.16113281 C-87.43321289 203.49855469 -88.1718457 202.83597656 -88.93286133 202.15332031 C-107.47404427 184.83065205 -120.60994454 157.2992015 -121.85571289 131.87231445 C-121.89349298 128.67748102 -121.92572144 125.48290004 -121.93481445 122.2878418 C-121.94440735 120.2601435 -121.97542812 118.23351097 -122.00708008 116.20605469 C-122.25833254 85.2657381 -108.44260553 56.34570424 -87.08520508 34.39550781 C-63.45005631 11.21216595 -32.86234573 0.03916279 0 0 Z M120.30541992 219.16113281 C120.87117323 228.63783403 122.3433529 237.87957065 124.02807617 247.20800781 C124.29616757 248.71534888 124.56377254 250.22277653 124.83091736 251.73028564 C125.52806222 255.65683819 126.23171398 259.58219614 126.93682861 263.50732422 C127.65810492 267.52923363 128.37308138 271.55226243 129.08862305 275.57519531 C130.48813411 283.43826984 131.89453625 291.30009096 133.30541992 299.16113281 C133.96541992 299.16113281 134.62541992 299.16113281 135.30541992 299.16113281 C135.62293213 298.56574707 135.94044434 297.97036133 136.26757812 297.35693359 C137.71003629 294.66248594 139.1638108 291.97430933 140.61791992 289.28613281 C141.11743164 288.34898437 141.61694336 287.41183594 142.1315918 286.44628906 C142.61821289 285.55039062 143.10483398 284.65449219 143.60620117 283.73144531 C144.05133057 282.90402832 144.49645996 282.07661133 144.95507812 281.22412109 C146.62591514 278.67149539 148.27659135 277.3904378 151.28588867 276.71972656 C154.70284809 276.53224737 157.33187151 276.50538466 160.2364502 278.46180725 C160.8489563 279.03168869 161.4614624 279.60157013 162.0925293 280.1887207 C162.78266113 280.82584991 163.47279297 281.46297913 164.18383789 282.11941528 C167.66754181 285.4719792 171.11787315 288.85090072 174.52416992 292.28222656 C175.26751587 293.02698746 176.01086182 293.77174835 176.7767334 294.53907776 C179.12201293 296.88990027 181.46376828 299.24419712 183.80541992 301.59863281 C185.40674953 303.2049848 187.0083099 304.81110678 188.61010742 306.41699219 C192.51121465 310.32905266 196.40944412 314.24396234 200.30541992 318.16113281 C203.42508033 316.67249545 205.54554605 315.15824589 207.97729492 312.68457031 C208.64116211 312.01425781 209.3050293 311.34394531 209.98901367 310.65332031 C210.67092773 309.95464844 211.3528418 309.25597656 212.05541992 308.53613281 C212.75280273 307.82972656 213.45018555 307.12332031 214.16870117 306.39550781 C215.88554923 304.65514129 217.5966599 302.9094301 219.30541992 301.16113281 C214.90829711 295.884757 210.25727396 291.01962323 205.35229492 286.21582031 C203.83117675 284.71220217 202.31035195 283.20828718 200.78979492 281.70410156 C198.4141124 279.3594705 196.03618018 277.01726457 193.65307617 274.68017578 C191.33772747 272.40712306 189.03190281 270.12475527 186.72729492 267.84082031 C186.01273132 267.14487762 185.29816772 266.44893494 184.56195068 265.73190308 C178.33680595 259.53928073 178.33680595 259.53928073 177.30541992 255.16113281 C177.43091533 251.58451372 177.54274353 249.13566376 179.78198242 246.27441406 C183.40031105 243.24420386 187.40927596 241.13968519 191.55541992 238.91113281 C192.39588867 238.45222656 193.23635742 237.99332031 194.10229492 237.52050781 C196.16670938 236.39446356 198.23438306 235.27493567 200.30541992 234.16113281 C200.30541992 233.83113281 200.30541992 233.50113281 200.30541992 233.16113281 C190.90854996 231.48199436 181.51144809 229.80416147 172.11405087 228.12797642 C167.7500735 227.34954518 163.38617612 226.57067126 159.02246094 225.79077148 C154.80811091 225.03758386 150.59355162 224.2855776 146.37884712 223.53437614 C144.7740999 223.24814505 143.16942742 222.96149456 141.56483269 222.67440987 C139.3105105 222.27115502 137.05592268 221.8694173 134.80126953 221.46801758 C133.51997665 221.23929459 132.23868378 221.01057159 130.91856384 220.7749176 C127.38575875 220.17478041 123.85481702 219.65091613 120.30541992 219.16113281 Z " fill="#000000" transform="translate(121.694580078125,83.8388671875)"/>
<path d="M0 0 C3.5002427 4.1002843 3.35122919 7.11784753 3.38037109 12.31347656 C3.39263733 13.51377754 3.39263733 13.51377754 3.40515137 14.73832703 C3.43001494 17.39325204 3.44652481 20.04812351 3.4609375 22.703125 C3.46626118 23.60950462 3.47158485 24.51588425 3.47706985 25.44972992 C3.50380708 30.2482163 3.52317915 35.04667662 3.53759766 39.84521484 C3.55423674 44.79970508 3.59900648 49.753529 3.6499691 54.70776749 C3.68364219 58.51852168 3.6951752 62.32911784 3.70082474 66.14000702 C3.70753827 67.96605261 3.72276305 69.79208776 3.74671555 71.61798859 C3.77836892 74.17719097 3.77840399 76.73459821 3.77099609 79.29394531 C3.78740143 80.04534286 3.80380676 80.79674042 3.82070923 81.57090759 C3.75250849 87.34059883 2.1454195 89.67004732 -1.8125 93.5625 C-4.95674302 95.13462151 -8.39041292 95.0804375 -11.8125 94.5625 C-17.31347106 92.31333449 -19.8104592 87.65780984 -22.9375 82.875 C-24.09086304 81.14955052 -25.24451351 79.42429314 -26.3984375 77.69921875 C-26.97174805 76.83474121 -27.54505859 75.97026367 -28.13574219 75.07958984 C-30.57235319 71.42183512 -33.06502011 67.80384006 -35.5625 64.1875 C-36.36983984 63.01305395 -37.17713123 61.83857459 -37.984375 60.6640625 C-41.91558491 54.95560546 -45.86570476 49.26018607 -49.8125 43.5625 C-49.81836624 44.11516037 -49.82423248 44.66782074 -49.83027649 45.23722839 C-49.89427822 50.99645947 -49.97871516 56.75513526 -50.07495117 62.51391602 C-50.10817746 64.66227898 -50.13621653 66.81072875 -50.15893555 68.95922852 C-50.19252331 72.05001776 -50.24484221 75.14001312 -50.30078125 78.23046875 C-50.31036613 79.66823921 -50.31036613 79.66823921 -50.32014465 81.13505554 C-50.42852235 86.0658132 -50.56749302 89.57919241 -53.8125 93.5625 C-57.24169572 96.13439679 -60.65189486 96.064642 -64.8125 95.5625 C-67.78489241 93.77773759 -70.23854027 91.71041945 -71.8125 88.5625 C-71.92118752 85.93447962 -71.96981862 83.33255474 -71.97363281 80.70385742 C-71.97859772 79.89229691 -71.98356262 79.08073639 -71.98867798 78.24458313 C-72.00331561 75.55236979 -72.01010463 72.86021539 -72.015625 70.16796875 C-72.02137561 68.29950458 -72.02713335 66.43104042 -72.03289795 64.56257629 C-72.04341282 60.6409172 -72.04925215 56.71927864 -72.05273438 52.79760742 C-72.05821688 47.77370367 -72.08223764 42.75007125 -72.11070633 37.72625256 C-72.12933621 33.86492625 -72.13453852 30.0036652 -72.13607025 26.14229774 C-72.13909706 24.29034252 -72.14712653 22.43838844 -72.16025543 20.58647728 C-72.17732156 17.9938842 -72.17543427 15.40195272 -72.16894531 12.80932617 C-72.1781601 12.0449826 -72.18737488 11.28063904 -72.1968689 10.49313354 C-72.16167625 6.00161689 -71.61643396 3.11464128 -68.8125 -0.4375 C-65.76517415 -2.46905057 -64.91830195 -2.75310065 -61.4375 -2.8125 C-60.31214844 -2.85503906 -60.31214844 -2.85503906 -59.1640625 -2.8984375 C-53.47317881 -1.78294867 -50.59821079 2.98753501 -47.56225586 7.50317383 C-47.04671143 8.28587646 -46.53116699 9.0685791 -46 9.875 C-44.86048754 11.57366352 -43.71980687 13.27154379 -42.578125 14.96875 C-41.97419922 15.86980469 -41.37027344 16.77085937 -40.74804688 17.69921875 C-37.30304011 22.79546489 -33.77273655 27.8323194 -30.25 32.875 C-28.91478942 34.78735896 -27.58012255 36.7000977 -26.24609375 38.61328125 C-25.67947021 39.42450439 -25.11284668 40.23572754 -24.52905273 41.0715332 C-22.59256152 43.88166261 -20.69938736 46.71888103 -18.8125 49.5625 C-18.81107498 48.99953217 -18.80964996 48.43656433 -18.80818176 47.85653687 C-18.78845605 41.98345563 -18.73412149 36.11140972 -18.65991211 30.23876953 C-18.63675177 28.04874099 -18.62234103 25.85860138 -18.61694336 23.66845703 C-18.60763975 20.51524801 -18.56661647 17.36378126 -18.51953125 14.2109375 C-18.5234639 13.23571136 -18.52739655 12.26048523 -18.53144836 11.25570679 C-18.43513617 6.74239048 -18.2939771 3.54768416 -15.3894043 -0.04443359 C-10.41832067 -4.66087715 -5.21285914 -4.51781126 0 0 Z " fill="#000000" transform="translate(403.8125,157.4375)"/>
<path d="M0 0 C10.09074518 10.58763793 14.43752292 23.02080607 14.36352539 37.42041016 C14.03991086 50.70730364 8.68925889 62.11013251 -0.3125 71.8125 C-11.04021062 81.82023004 -23.96204166 85.37159024 -38.30859375 85.20703125 C-51.7736062 84.45185066 -63.61073954 78.59259588 -72.890625 68.8046875 C-82.87999643 55.52252327 -85.17430718 42.2467695 -84 26 C-81.75092076 13.5216748 -74.34727624 2.25533866 -64 -5 C-42.84107586 -17.80671724 -18.90934335 -16.78810291 0 0 Z M-57 17 C-62.79900188 25.33174017 -63.9268285 32.93421141 -63 43 C-60.86035099 50.41878302 -56.39066196 55.78059622 -50 60 C-42.67417187 64.04059588 -35.55431424 65.48226077 -27.39453125 63.3046875 C-19.00725611 60.2847609 -13.92427359 56.16315518 -9.5625 48.375 C-6.2539515 41.20795659 -5.66845933 34.8217912 -7.7734375 27.19921875 C-10.61674358 19.52229233 -14.79145073 13.98043233 -22 10 C-34.95861917 4.84530363 -47.09167765 6.79853202 -57 17 Z " fill="#000000" transform="translate(249,168)"/>
<path d="M0 0 C2.86942113 2.26533247 3.83907612 3.51722837 5 7 C5.10975003 9.20061038 5.15902803 11.4043939 5.17700195 13.60766602 C5.18685875 14.60835365 5.18685875 14.60835365 5.19691467 15.6292572 C5.21662383 17.83747479 5.2283089 20.04562423 5.23828125 22.25390625 C5.24235678 23.01095289 5.2464323 23.76799953 5.25063133 24.54798698 C5.27148841 28.5600647 5.28578801 32.57210833 5.29516602 36.58422852 C5.30619073 40.70757239 5.34054527 44.83037069 5.38033772 48.95352268 C5.40662634 52.1407921 5.41486894 55.32793439 5.41844749 58.51530266 C5.42328703 60.03379918 5.43482502 61.55229104 5.45348549 63.07068062 C5.56981924 73.16967768 4.73898091 81.26689593 -0.875 89.875 C-6.54589055 95.54589055 -12.38236998 98.04365752 -20.3125 98.375 C-29.16915149 98.18272534 -35.92970133 94.32322778 -42 88 C-43.60086627 84.79826746 -43.49917089 81.47422941 -43 78 C-41.20636089 75.1899654 -39.98119065 73.49059532 -37 72 C-30.60592325 71.21992264 -27.26667984 72.16968739 -22 76 C-19.38512822 76.16706043 -19.38512822 76.16706043 -17 76 C-16.99413376 75.1466658 -16.98826752 74.2933316 -16.98222351 73.41413879 C-16.92428024 65.36578119 -16.85219416 57.31770061 -16.76428509 49.26961231 C-16.71958889 45.13215399 -16.68033125 40.99479397 -16.65356445 36.85717773 C-16.62752376 32.86289577 -16.58711632 28.86899221 -16.53681374 24.87494469 C-16.52015012 23.35240072 -16.50863267 21.8297913 -16.50238609 20.30716896 C-16.49273912 18.17158114 -16.46467507 16.03696025 -16.43237305 13.90161133 C-16.42126999 12.6869368 -16.41016693 11.47226227 -16.39872742 10.22077942 C-15.96197609 6.69285628 -15.12432978 4.82301331 -13 2 C-8.41970359 -1.12292937 -5.32974526 -1.48048479 0 0 Z " fill="#000000" transform="translate(140,155)"/>
<path d="M0 0 C2.3181362 1.89111111 3.66914015 3.33828031 5 6 C5.11919011 8.68874978 5.17835036 11.35239891 5.19287109 14.04223633 C5.20104858 14.87330399 5.20922607 15.70437164 5.21765137 16.56062317 C5.24251468 19.31775182 5.25902345 22.07482897 5.2734375 24.83203125 C5.27876118 25.77275671 5.28408485 26.71348217 5.28956985 27.68271446 C5.31630508 32.66159628 5.33567908 37.64045299 5.35009766 42.61938477 C5.3667496 47.76453208 5.41153082 52.90903937 5.4624691 58.05394459 C5.49610863 62.00791671 5.50767145 65.96173628 5.51332474 69.91583824 C5.52004597 71.81248556 5.53529066 73.70912255 5.55921555 75.60563087 C5.59080091 78.26081277 5.59091422 80.91425999 5.58349609 83.56958008 C5.59990143 84.35262512 5.61630676 85.13567017 5.63320923 85.94244385 C5.58683233 89.99893502 5.18305577 91.77497083 2.58853149 94.96440125 C-1.46482181 98.15192319 -3.81114724 98.51888528 -9 98 C-12.47998516 95.99707521 -14.7068445 93.87946651 -16 90 C-16.10633352 87.40043194 -16.15723968 84.82727788 -16.16113281 82.22729492 C-16.16609772 81.43670181 -16.17106262 80.6461087 -16.17617798 79.83155823 C-16.19078981 77.21451956 -16.1976002 74.59754152 -16.203125 71.98046875 C-16.20887756 70.16066995 -16.21463528 68.34087116 -16.22039795 66.52107239 C-16.23090535 62.70374265 -16.23674963 58.88643396 -16.24023438 55.0690918 C-16.2457165 50.18319534 -16.2697396 45.29757792 -16.29820633 40.41176891 C-16.3168522 36.65162856 -16.32203936 32.89155513 -16.32357025 29.13137245 C-16.32659324 27.33048287 -16.33460985 25.52959437 -16.34775543 23.72875023 C-16.3648557 21.20591533 -16.36292604 18.6837584 -16.35644531 16.16088867 C-16.3656601 15.4204129 -16.37487488 14.67993713 -16.3843689 13.91702271 C-16.3465883 9.20985446 -15.51660819 5.98337258 -13 2 C-8.47136416 -1.1906298 -5.30857332 -1.4746037 0 0 Z " fill="#000000" transform="translate(301,155)"/>
<path d="M0 0 C3.54281383 2.61860153 4.78669043 4.25341652 6 8.5 C6 13.31804413 4.50968717 15.37848415 1.3125 18.8125 C-2.08364801 20.5564679 -5.3104216 20.68081506 -9 20 C-11.8100346 18.20636089 -13.50940468 16.98119065 -15 14 C-15.42074378 10.94059163 -15.47999423 8.0540292 -15 5 C-10.58053726 -0.73335706 -6.94670018 -1.6767897 0 0 Z " fill="#000000" transform="translate(263,85)"/>
</svg>
